<mxfile host="Electron" modified="2024-08-09T07:10:16.198Z" agent="Mozilla/5.0 (Macintosh; Intel Mac OS X 10_15_7) AppleWebKit/537.36 (KHTML, like Gecko) draw.io/22.1.18 Chrome/120.0.6099.199 Electron/28.1.2 Safari/537.36" etag="zCXEIVdgjGjBLmrZzu3s" version="22.1.18" type="device">
  <diagram name="第 1 页" id="cQd2TrnyDHOL4J6pcIvh">
    <mxGraphModel dx="852" dy="571" grid="1" gridSize="10" guides="1" tooltips="1" connect="1" arrows="1" fold="1" page="1" pageScale="1" pageWidth="827" pageHeight="1169" math="0" shadow="0">
      <root>
        <mxCell id="0" />
        <mxCell id="1" parent="0" />
        <mxCell id="mjHcxdp8gh_cBobqj5dB-1" value="" style="shape=image;verticalLabelPosition=bottom;labelBackgroundColor=default;verticalAlign=top;imageAspect=0;image=data:image/svg+xml,PHN2ZyB4bWxuczp4bGluaz0iaHR0cDovL3d3dy53My5vcmcvMTk5OS94bGluayIgeG1sbnM9Imh0dHA6Ly93d3cudzMub3JnLzIwMDAvc3ZnIiB2aWV3Qm94PSIwIDAgMzYwLjAwIDQzMi4wMCIgaGVpZ2h0PSI0MzIuMDBwdCIgd2lkdGg9IjM2MC4wMHB0IiBjbGFzcz0ic3ZnbGl0ZSI+JiN4YTs8ZGVmcz4mI3hhOyAgPHN0eWxlIHR5cGU9InRleHQvY3NzIj4mI3hhOyAgICAuc3ZnbGl0ZSBsaW5lLCAuc3ZnbGl0ZSBwb2x5bGluZSwgLnN2Z2xpdGUgcG9seWdvbiwgLnN2Z2xpdGUgcGF0aCwgLnN2Z2xpdGUgcmVjdCwgLnN2Z2xpdGUgY2lyY2xlIHsmI3hhOyAgICAgIGZpbGw6IG5vbmU7JiN4YTsgICAgICBzdHJva2U6ICMwMDAwMDA7JiN4YTsgICAgICBzdHJva2UtbGluZWNhcDogcm91bmQ7JiN4YTsgICAgICBzdHJva2UtbGluZWpvaW46IHJvdW5kOyYjeGE7ICAgICAgc3Ryb2tlLW1pdGVybGltaXQ6IDEwLjAwOyYjeGE7ICAgIH0mI3hhOyAgICAuc3ZnbGl0ZSB0ZXh0IHsmI3hhOyAgICAgIHdoaXRlLXNwYWNlOiBwcmU7JiN4YTsgICAgfSYjeGE7ICA8L3N0eWxlPiYjeGE7PC9kZWZzPiYjeGE7PHJlY3Qgc3R5bGU9InN0cm9rZTogbm9uZTsgZmlsbDogbm9uZTsiIGhlaWdodD0iMTAwJSIgd2lkdGg9IjEwMCUiLz4mI3hhOzxkZWZzPiYjeGE7ICA8Y2xpcFBhdGggaWQ9ImNwTUM0d01Id3pOakF1TURCOE1DNHdNSHcwTXpJdU1EQT0iPiYjeGE7ICAgIDxyZWN0IGhlaWdodD0iNDMyLjAwIiB3aWR0aD0iMzYwLjAwIiB5PSIwLjAwIiB4PSIwLjAwIi8+JiN4YTsgIDwvY2xpcFBhdGg+JiN4YTs8L2RlZnM+JiN4YTs8ZyBjbGlwLXBhdGg9InVybCgjY3BNQzR3TUh3ek5qQXVNREI4TUM0d01IdzBNekl1TURBPSkiPiYjeGE7PC9nPiYjeGE7PGRlZnM+JiN4YTsgIDxjbGlwUGF0aCBpZD0iY3BNQzR3TUh3ek5qQXVNREI4TUM0d01Id3hORFF1TURBPSI+JiN4YTsgICAgPHJlY3QgaGVpZ2h0PSIxNDQuMDAiIHdpZHRoPSIzNjAuMDAiIHk9IjAuMDAiIHg9IjAuMDAiLz4mI3hhOyAgPC9jbGlwUGF0aD4mI3hhOzwvZGVmcz4mI3hhOzxnIGNsaXAtcGF0aD0idXJsKCNjcE1DNHdNSHd6TmpBdU1EQjhNQzR3TUh3eE5EUXVNREE9KSI+JiN4YTs8cmVjdCBzdHlsZT0ic3Ryb2tlLXdpZHRoOiAxLjA3OyBzdHJva2U6ICNGRkZGRkY7IGZpbGw6ICNGRkZGRkY7IiBoZWlnaHQ9IjE0NC4wMCIgd2lkdGg9IjM2MC4wMCIgeT0iMC4wMCIgeD0iMC4wMCIvPiYjeGE7PC9nPiYjeGE7PGcgY2xpcC1wYXRoPSJ1cmwoI2NwTUM0d01Id3pOakF1TURCOE1DNHdNSHcwTXpJdU1EQT0pIj4mI3hhOzwvZz4mI3hhOzxkZWZzPiYjeGE7ICA8Y2xpcFBhdGggaWQ9ImNwTWk0M05Id3pOakF1TURCOE1qRXVOakI4TVRReExqSTIiPiYjeGE7ICAgIDxyZWN0IGhlaWdodD0iMTE5LjY2IiB3aWR0aD0iMzU3LjI2IiB5PSIyMS42MCIgeD0iMi43NCIvPiYjeGE7ICA8L2NsaXBQYXRoPiYjeGE7PC9kZWZzPiYjeGE7PGcgY2xpcC1wYXRoPSJ1cmwoI2NwTWk0M05Id3pOakF1TURCOE1qRXVOakI4TVRReExqSTIpIj4mI3hhOzxyZWN0IHN0eWxlPSJzdHJva2Utd2lkdGg6IDEuMDc7IGZpbGw6ICNGRkZGRkY7IiBoZWlnaHQ9IjExOS42NiIgd2lkdGg9IjM1Ny4yNiIgeT0iMjEuNjAiIHg9IjIuNzQiLz4mI3hhOzxwb2x5Z29uIHN0eWxlPSJzdHJva2Utd2lkdGg6IDAuMDA7IHN0cm9rZTogbm9uZTsgc3Ryb2tlLWxpbmVjYXA6IGJ1dHQ7IGZpbGw6ICNEMUU4RkY7IiBwb2ludHM9IjMuMTMsMzkuNjQgNC45MSwzOS45OSA2LjcwLDQwLjM4IDguNDgsNDAuODIgMTAuMjYsNDEuMjggMTIuMDQsNDEuNzkgMTMuODMsNDIuMzIgMTUuNjEsNDIuODggMTcuMzksNDMuNDcgMTkuMTcsNDQuMDggMjAuOTYsNDQuNzIgMjIuNzQsNDUuMzcgMjQuNTIsNDYuMDMgMjYuMzAsNDYuNzEgMjguMDksNDcuNDAgMjkuODcsNDguMDkgMzEuNjUsNDguNzkgMzMuNDMsNDkuNDkgMzUuMjEsNTAuMTkgMzcuMDAsNTAuODkgMzguNzgsNTEuNTggNDAuNTYsNTIuMjYgNDIuMzQsNTIuOTMgNDQuMTMsNTMuNTkgNDUuOTEsNTQuMjMgNDcuNjksNTQuODUgNDkuNDcsNTUuNDQgNTEuMjYsNTYuMDEgNTMuMDQsNTYuNTYgNTQuODIsNTcuMDcgNTYuNjAsNTcuNTUgNTguMzksNTcuOTkgNjAuMTcsNTguNDAgNjEuOTUsNTguNzcgNjMuNzMsNTkuMDkgNjUuNTIsNTkuMzYgNjcuMzAsNTkuNTkgNjkuMDgsNTkuNzYgNzAuODYsNTkuODggNzIuNjQsNTkuOTQgNzQuNDMsNTkuOTQgNzYuMjEsNTkuMjMgNzcuOTksNTguNTMgNzkuNzcsNTcuODQgODEuNTYsNTcuMTYgODMuMzQsNTYuNDkgODUuMTIsNTUuODMgODYuOTAsNTUuMTkgODguNjksNTQuNTUgOTAuNDcsNTMuOTMgOTIuMjUsNTMuMzIgOTQuMDMsNTIuNzMgOTUuODIsNTIuMTQgOTcuNjAsNTEuNTggOTkuMzgsNTEuMDIgMTAxLjE2LDUwLjQ4IDEwMi45NSw0OS45NSAxMDQuNzMsNDkuNDQgMTA2LjUxLDQ4Ljk0IDEwOC4yOSw0OC40NiAxMTAuMDcsNDguMDAgMTExLjg2LDQ3LjU1IDExMy42NCw0Ny4xMiAxMTUuNDIsNDYuNzEgMTE3LjIwLDQ2LjMyIDExOC45OSw0NS45NSAxMjAuNzcsNDUuNjAgMTIyLjU1LDQ1LjI3IDEyNC4zMyw0NC45NyAxMjYuMTIsNDQuNzAgMTI3LjkwLDQ0LjQ2IDEyOS42OCw0NC4yNCAxMzEuNDYsNDQuMDYgMTMzLjI1LDQzLjkwIDEzNS4wMyw0My43OCAxMzYuODEsNDMuNzAgMTM4LjU5LDQzLjY0IDE0MC4zOCw0My42MyAxNDIuMTYsNDMuNjUgMTQzLjk0LDQzLjcyIDE0NS43Miw0My44MiAxNDcuNTAsNDMuOTYgMTQ5LjI5LDQ0LjE1IDE1MS4wNyw0NC4zNyAxNTIuODUsNDQuNjQgMTU0LjYzLDQ0Ljk0IDE1Ni40Miw0NS4yNyAxNTguMjAsNDUuNjQgMTU5Ljk4LDQ2LjA1IDE2MS43Niw0Ni40OCAxNjMuNTUsNDYuOTUgMTY1LjMzLDQ3LjQ1IDE2Ny4xMSw0Ny45NyAxNjguODksNDguNTMgMTcwLjY4LDQ5LjExIDE3Mi40Niw0OS43MSAxNzQuMjQsNTAuMzQgMTc2LjAyLDUwLjk5IDE3Ny44MSw1MS42NiAxNzkuNTksNTIuMzYgMTgxLjM3LDUzLjA3IDE4My4xNSw1My44MCAxODQuOTMsNTQuNTQgMTg2LjcyLDU1LjMxIDE4OC41MCw1Ni4wOCAxOTAuMjgsNTYuODcgMTkyLjA2LDU3LjY4IDE5My44NSw1OC40OSAxOTUuNjMsNTkuMzEgMTk3LjQxLDYwLjE0IDE5OS4xOSw2MC45OCAyMDAuOTgsNjEuODIgMjAyLjc2LDYyLjY3IDIwNC41NCw2My41MiAyMDYuMzIsNjQuMzggMjA4LjExLDY1LjIzIDIwOS44OSw2Ni4wOSAyMTEuNjcsNjYuOTQgMjEzLjQ1LDY3LjgwIDIxNS4yNCw2OC42NSAyMTcuMDIsNjkuNDkgMjE4LjgwLDcwLjMzIDIyMC41OCw3MS4xNiAyMjIuMzYsNzEuOTkgMjI0LjE1LDcyLjgyIDIyNS45Myw3My42NSAyMjcuNzEsNzQuNDggMjI5LjQ5LDc1LjMyIDIzMS4yOCw3Ni4xNSAyMzMuMDYsNzcuMDAgMjM0Ljg0LDc3Ljg1IDIzNi42Miw3OC43MSAyMzguNDEsNzkuNTcgMjQwLjE5LDgwLjQ0IDI0MS45Nyw4MS4zMSAyNDMuNzUsODIuMTcgMjQ1LjU0LDgzLjA0IDI0Ny4zMiw4My45MCAyNDkuMTAsODQuNzQgMjUwLjg4LDg1LjU4IDI1Mi42Nyw4Ni40MSAyNTQuNDUsODcuMjEgMjU2LjIzLDg4LjAwIDI1OC4wMSw4OC43NyAyNTkuNzksODkuNTIgMjYxLjU4LDkwLjI0IDI2My4zNiw5MC45MyAyNjUuMTQsOTEuNTkgMjY2LjkyLDkyLjIyIDI2OC43MSw5Mi44MSAyNzAuNDksOTMuMzcgMjcyLjI3LDkzLjg4IDI3NC4wNSw5NC4zNiAyNzUuODQsOTQuNzggMjc3LjYyLDk1LjE3IDI3OS40MCw5NS41MCAyODEuMTgsOTUuNzggMjgyLjk3LDk2LjAxIDI4NC43NSw5Ni4xOCAyODYuNTMsOTYuMzAgMjg4LjMxLDk2LjM1IDI5MC4xMCw5NC43NSAyOTEuODgsOTMuMjEgMjkzLjY2LDkxLjc1IDI5NS40NCw5MC4zNSAyOTcuMjIsODkuMDIgMjk5LjAxLDg3Ljc1IDMwMC43OSw4Ni41NCAzMDIuNTcsODUuMzggMzA0LjM1LDg0LjI4IDMwNi4xNCw4My4yMiAzMDcuOTIsODIuMjEgMzA5LjcwLDgxLjI0IDMxMS40OCw4MC4zMCAzMTMuMjcsNzkuNDEgMzE1LjA1LDc4LjU0IDMxNi44Myw3Ny43MCAzMTguNjEsNzYuODkgMzIwLjQwLDc2LjEwIDMyMi4xOCw3NS4zMiAzMjMuOTYsNzQuNTYgMzI1Ljc0LDczLjgyIDMyNy41Myw3My4wOCAzMjkuMzEsNzIuMzUgMzMxLjA5LDcxLjYyIDMzMi44Nyw3MC44OSAzMzQuNjUsNzAuMTUgMzM2LjQ0LDY5LjQxIDMzOC4yMiw2OC42NiAzNDAuMDAsNjcuODkgMzQxLjc4LDY3LjEwIDM0My41Nyw2Ni4zMCAzNDUuMzUsNjUuNDYgMzQ3LjEzLDY0LjYxIDM0OC45MSw2My43MiAzNTAuNzAsNjIuNzkgMzUyLjQ4LDYxLjgzIDM1NC4yNiw2MC44MyAzNTYuMDQsNTkuNzkgMzU3LjgzLDU4LjY5IDM1OS42MSw1Ny41NSAzNTkuNjEsODEuNDMgMzU3LjgzLDgyLjMyIDM1Ni4wNCw4My4yMCAzNTQuMjYsODQuMDcgMzUyLjQ4LDg0LjkzIDM1MC43MCw4NS43OCAzNDguOTEsODYuNjEgMzQ3LjEzLDg3LjQzIDM0NS4zNSw4OC4yNCAzNDMuNTcsODkuMDIgMzQxLjc4LDg5Ljc5IDM0MC4wMCw5MC41MyAzMzguMjIsOTEuMjYgMzM2LjQ0LDkxLjk2IDMzNC42NSw5Mi42MyAzMzIuODcsOTMuMjggMzMxLjA5LDkzLjkwIDMyOS4zMSw5NC40OCAzMjcuNTMsOTUuMDQgMzI1Ljc0LDk1LjU3IDMyMy45Niw5Ni4wNiAzMjIuMTgsOTYuNTEgMzIwLjQwLDk2LjkzIDMxOC42MSw5Ny4zMSAzMTYuODMsOTcuNjQgMzE1LjA1LDk3Ljk0IDMxMy4yNyw5OC4xOSAzMTEuNDgsOTguNDAgMzA5LjcwLDk4LjU2IDMwNy45Miw5OC42OCAzMDYuMTQsOTguNzQgMzA0LjM1LDk4Ljc2IDMwMi41Nyw5OC43MiAzMDAuNzksOTguNjMgMjk5LjAxLDk4LjQ4IDI5Ny4yMiw5OC4yOCAyOTUuNDQsOTguMDEgMjkzLjY2LDk3LjY5IDI5MS44OCw5Ny4zMSAyOTAuMTAsOTYuODYgMjg4LjMxLDk2LjM1IDI4Ni41Myw5Ny4yOCAyODQuNzUsOTguMTUgMjgyLjk3LDk4Ljk4IDI4MS4xOCw5OS43NiAyNzkuNDAsMTAwLjUwIDI3Ny42MiwxMDEuMjAgMjc1Ljg0LDEwMS44NSAyNzQuMDUsMTAyLjQ2IDI3Mi4yNywxMDMuMDIgMjcwLjQ5LDEwMy41NSAyNjguNzEsMTA0LjAzIDI2Ni45MiwxMDQuNDggMjY1LjE0LDEwNC44OCAyNjMuMzYsMTA1LjI1IDI2MS41OCwxMDUuNTggMjU5Ljc5LDEwNS44NyAyNTguMDEsMTA2LjEzIDI1Ni4yMywxMDYuMzUgMjU0LjQ1LDEwNi41NCAyNTIuNjcsMTA2LjY5IDI1MC44OCwxMDYuODAgMjQ5LjEwLDEwNi44OSAyNDcuMzIsMTA2Ljk0IDI0NS41NCwxMDYuOTYgMjQzLjc1LDEwNi45NSAyNDEuOTcsMTA2LjkwIDI0MC4xOSwxMDYuODMgMjM4LjQxLDEwNi43MyAyMzYuNjIsMTA2LjYwIDIzNC44NCwxMDYuNDUgMjMzLjA2LDEwNi4yNiAyMzEuMjgsMTA2LjA2IDIyOS40OSwxMDUuODIgMjI3LjcxLDEwNS41NiAyMjUuOTMsMTA1LjI4IDIyNC4xNSwxMDQuOTcgMjIyLjM2LDEwNC42NCAyMjAuNTgsMTA0LjI5IDIxOC44MCwxMDMuOTEgMjE3LjAyLDEwMy41MiAyMTUuMjQsMTAzLjEwIDIxMy40NSwxMDIuNjcgMjExLjY3LDEwMi4yMiAyMDkuODksMTAxLjc0IDIwOC4xMSwxMDEuMjUgMjA2LjMyLDEwMC43NSAyMDQuNTQsMTAwLjIyIDIwMi43Niw5OS42OCAyMDAuOTgsOTkuMTIgMTk5LjE5LDk4LjU1IDE5Ny40MSw5Ny45NiAxOTUuNjMsOTcuMzYgMTkzLjg1LDk2Ljc0IDE5Mi4wNiw5Ni4xMSAxOTAuMjgsOTUuNDcgMTg4LjUwLDk0LjgyIDE4Ni43Miw5NC4xNSAxODQuOTMsOTMuNDcgMTgzLjE1LDkyLjc4IDE4MS4zNyw5Mi4wOCAxNzkuNTksOTEuMzcgMTc3LjgxLDkwLjY1IDE3Ni4wMiw4OS45MiAxNzQuMjQsODkuMTggMTcyLjQ2LDg4LjQ0IDE3MC42OCw4Ny42OSAxNjguODksODYuOTMgMTY3LjExLDg2LjE2IDE2NS4zMyw4NS4zOSAxNjMuNTUsODQuNjEgMTYxLjc2LDgzLjgzIDE1OS45OCw4My4wNCAxNTguMjAsODIuMjUgMTU2LjQyLDgxLjQ2IDE1NC42Myw4MC42NiAxNTIuODUsNzkuODYgMTUxLjA3LDc5LjA2IDE0OS4yOSw3OC4yNiAxNDcuNTAsNzcuNDYgMTQ1LjcyLDc2LjY1IDE0My45NCw3NS44NSAxNDIuMTYsNzUuMDUgMTQwLjM4LDc0LjI2IDEzOC41OSw3My40NyAxMzYuODEsNzIuNjkgMTM1LjAzLDcxLjkzIDEzMy4yNSw3MS4xOCAxMzEuNDYsNzAuNDUgMTI5LjY4LDY5Ljc1IDEyNy45MCw2OS4wNiAxMjYuMTIsNjguNDEgMTI0LjMzLDY3Ljc4IDEyMi41NSw2Ny4xOCAxMjAuNzcsNjYuNjIgMTE4Ljk5LDY2LjEwIDExNy4yMCw2NS42MSAxMTUuNDIsNjUuMTcgMTEzLjY0LDY0Ljc3IDExMS44Niw2NC40MiAxMTAuMDcsNjQuMTIgMTA4LjI5LDYzLjg3IDEwNi41MSw2My42NiAxMDQuNzMsNjMuNTAgMTAyLjk1LDYzLjM3IDEwMS4xNiw2My4yNiA5OS4zOCw2My4xNyA5Ny42MCw2My4wOSA5NS44Miw2My4wMSA5NC4wMyw2Mi45NCA5Mi4yNSw2Mi44NSA5MC40Nyw2Mi43NCA4OC42OSw2Mi42MiA4Ni45MCw2Mi40NiA4NS4xMiw2Mi4yNiA4My4zNCw2Mi4wMiA4MS41Niw2MS43MyA3OS43Nyw2MS4zOCA3Ny45OSw2MC45NyA3Ni4yMSw2MC40OSA3NC40Myw1OS45NCA3Mi42NCw2MC41MyA3MC44Niw2MS4wOCA2OS4wOCw2MS41OSA2Ny4zMCw2Mi4wNiA2NS41Miw2Mi40OSA2My43Myw2Mi44OSA2MS45NSw2My4yNSA2MC4xNyw2My41NyA1OC4zOSw2My44NiA1Ni42MCw2NC4xMiA1NC44Miw2NC4zNSA1My4wNCw2NC41NSA1MS4yNiw2NC43MiA0OS40Nyw2NC44NyA0Ny42OSw2NC45OSA0NS45MSw2NS4xMCA0NC4xMyw2NS4xOCA0Mi4zNCw2NS4yNCA0MC41Niw2NS4yOCAzOC43OCw2NS4zMSAzNy4wMCw2NS4zMiAzNS4yMSw2NS4zMiAzMy40Myw2NS4zMSAzMS42NSw2NS4yOSAyOS44Nyw2NS4yNiAyOC4wOSw2NS4yMiAyNi4zMCw2NS4xNyAyNC41Miw2NS4xMiAyMi43NCw2NS4wNyAyMC45Niw2NS4wMSAxOS4xNyw2NC45NiAxNy4zOSw2NC45MSAxNS42MSw2NC44NiAxMy44Myw2NC44MSAxMi4wNCw2NC43NyAxMC4yNiw2NC43NCA4LjQ4LDY0LjcyIDYuNzAsNjQuNzAgNC45MSw2NC43MCAzLjEzLDY0LjcxIi8+JiN4YTs8cG9seWxpbmUgc3R5bGU9InN0cm9rZS13aWR0aDogMS4wNzsgc3Ryb2tlOiBub25lOyBzdHJva2UtbGluZWNhcDogYnV0dDsiIHBvaW50cz0iMy4xMywzOS42NCA0LjkxLDM5Ljk5IDYuNzAsNDAuMzggOC40OCw0MC44MiAxMC4yNiw0MS4yOCAxMi4wNCw0MS43OSAxMy44Myw0Mi4zMiAxNS42MSw0Mi44OCAxNy4zOSw0My40NyAxOS4xNyw0NC4wOCAyMC45Niw0NC43MiAyMi43NCw0NS4zNyAyNC41Miw0Ni4wMyAyNi4zMCw0Ni43MSAyOC4wOSw0Ny40MCAyOS44Nyw0OC4wOSAzMS42NSw0OC43OSAzMy40Myw0OS40OSAzNS4yMSw1MC4xOSAzNy4wMCw1MC44OSAzOC43OCw1MS41OCA0MC41Niw1Mi4yNiA0Mi4zNCw1Mi45MyA0NC4xMyw1My41OSA0NS45MSw1NC4yMyA0Ny42OSw1NC44NSA0OS40Nyw1NS40NCA1MS4yNiw1Ni4wMSA1My4wNCw1Ni41NiA1NC44Miw1Ny4wNyA1Ni42MCw1Ny41NSA1OC4zOSw1Ny45OSA2MC4xNyw1OC40MCA2MS45NSw1OC43NyA2My43Myw1OS4wOSA2NS41Miw1OS4zNiA2Ny4zMCw1OS41OSA2OS4wOCw1OS43NiA3MC44Niw1OS44OCA3Mi42NCw1OS45NCA3NC40Myw1OS45NCA3Ni4yMSw1OS4yMyA3Ny45OSw1OC41MyA3OS43Nyw1Ny44NCA4MS41Niw1Ny4xNiA4My4zNCw1Ni40OSA4NS4xMiw1NS44MyA4Ni45MCw1NS4xOSA4OC42OSw1NC41NSA5MC40Nyw1My45MyA5Mi4yNSw1My4zMiA5NC4wMyw1Mi43MyA5NS44Miw1Mi4xNCA5Ny42MCw1MS41OCA5OS4zOCw1MS4wMiAxMDEuMTYsNTAuNDggMTAyLjk1LDQ5Ljk1IDEwNC43Myw0OS40NCAxMDYuNTEsNDguOTQgMTA4LjI5LDQ4LjQ2IDExMC4wNyw0OC4wMCAxMTEuODYsNDcuNTUgMTEzLjY0LDQ3LjEyIDExNS40Miw0Ni43MSAxMTcuMjAsNDYuMzIgMTE4Ljk5LDQ1Ljk1IDEyMC43Nyw0NS42MCAxMjIuNTUsNDUuMjcgMTI0LjMzLDQ0Ljk3IDEyNi4xMiw0NC43MCAxMjcuOTAsNDQuNDYgMTI5LjY4LDQ0LjI0IDEzMS40Niw0NC4wNiAxMzMuMjUsNDMuOTAgMTM1LjAzLDQzLjc4IDEzNi44MSw0My43MCAxMzguNTksNDMuNjQgMTQwLjM4LDQzLjYzIDE0Mi4xNiw0My42NSAxNDMuOTQsNDMuNzIgMTQ1LjcyLDQzLjgyIDE0Ny41MCw0My45NiAxNDkuMjksNDQuMTUgMTUxLjA3LDQ0LjM3IDE1Mi44NSw0NC42NCAxNTQuNjMsNDQuOTQgMTU2LjQyLDQ1LjI3IDE1OC4yMCw0NS42NCAxNTkuOTgsNDYuMDUgMTYxLjc2LDQ2LjQ4IDE2My41NSw0Ni45NSAxNjUuMzMsNDcuNDUgMTY3LjExLDQ3Ljk3IDE2OC44OSw0OC41MyAxNzAuNjgsNDkuMTEgMTcyLjQ2LDQ5LjcxIDE3NC4yNCw1MC4zNCAxNzYuMDIsNTAuOTkgMTc3LjgxLDUxLjY2IDE3OS41OSw1Mi4zNiAxODEuMzcsNTMuMDcgMTgzLjE1LDUzLjgwIDE4NC45Myw1NC41NCAxODYuNzIsNTUuMzEgMTg4LjUwLDU2LjA4IDE5MC4yOCw1Ni44NyAxOTIuMDYsNTcuNjggMTkzLjg1LDU4LjQ5IDE5NS42Myw1OS4zMSAxOTcuNDEsNjAuMTQgMTk5LjE5LDYwLjk4IDIwMC45OCw2MS44MiAyMDIuNzYsNjIuNjcgMjA0LjU0LDYzLjUyIDIwNi4zMiw2NC4zOCAyMDguMTEsNjUuMjMgMjA5Ljg5LDY2LjA5IDIxMS42Nyw2Ni45NCAyMTMuNDUsNjcuODAgMjE1LjI0LDY4LjY1IDIxNy4wMiw2OS40OSAyMTguODAsNzAuMzMgMjIwLjU4LDcxLjE2IDIyMi4zNiw3MS45OSAyMjQuMTUsNzIuODIgMjI1LjkzLDczLjY1IDIyNy43MSw3NC40OCAyMjkuNDksNzUuMzIgMjMxLjI4LDc2LjE1IDIzMy4wNiw3Ny4wMCAyMzQuODQsNzcuODUgMjM2LjYyLDc4LjcxIDIzOC40MSw3OS41NyAyNDAuMTksODAuNDQgMjQxLjk3LDgxLjMxIDI0My43NSw4Mi4xNyAyNDUuNTQsODMuMDQgMjQ3LjMyLDgzLjkwIDI0OS4xMCw4NC43NCAyNTAuODgsODUuNTggMjUyLjY3LDg2LjQxIDI1NC40NSw4Ny4yMSAyNTYuMjMsODguMDAgMjU4LjAxLDg4Ljc3IDI1OS43OSw4OS41MiAyNjEuNTgsOTAuMjQgMjYzLjM2LDkwLjkzIDI2NS4xNCw5MS41OSAyNjYuOTIsOTIuMjIgMjY4LjcxLDkyLjgxIDI3MC40OSw5My4zNyAyNzIuMjcsOTMuODggMjc0LjA1LDk0LjM2IDI3NS44NCw5NC43OCAyNzcuNjIsOTUuMTcgMjc5LjQwLDk1LjUwIDI4MS4xOCw5NS43OCAyODIuOTcsOTYuMDEgMjg0Ljc1LDk2LjE4IDI4Ni41Myw5Ni4zMCAyODguMzEsOTYuMzUgMjkwLjEwLDk0Ljc1IDI5MS44OCw5My4yMSAyOTMuNjYsOTEuNzUgMjk1LjQ0LDkwLjM1IDI5Ny4yMiw4OS4wMiAyOTkuMDEsODcuNzUgMzAwLjc5LDg2LjU0IDMwMi41Nyw4NS4zOCAzMDQuMzUsODQuMjggMzA2LjE0LDgzLjIyIDMwNy45Miw4Mi4yMSAzMDkuNzAsODEuMjQgMzExLjQ4LDgwLjMwIDMxMy4yNyw3OS40MSAzMTUuMDUsNzguNTQgMzE2LjgzLDc3LjcwIDMxOC42MSw3Ni44OSAzMjAuNDAsNzYuMTAgMzIyLjE4LDc1LjMyIDMyMy45Niw3NC41NiAzMjUuNzQsNzMuODIgMzI3LjUzLDczLjA4IDMyOS4zMSw3Mi4zNSAzMzEuMDksNzEuNjIgMzMyLjg3LDcwLjg5IDMzNC42NSw3MC4xNSAzMzYuNDQsNjkuNDEgMzM4LjIyLDY4LjY2IDM0MC4wMCw2Ny44OSAzNDEuNzgsNjcuMTAgMzQzLjU3LDY2LjMwIDM0NS4zNSw2NS40NiAzNDcuMTMsNjQuNjEgMzQ4LjkxLDYzLjcyIDM1MC43MCw2Mi43OSAzNTIuNDgsNjEuODMgMzU0LjI2LDYwLjgzIDM1Ni4wNCw1OS43OSAzNTcuODMsNTguNjkgMzU5LjYxLDU3LjU1Ii8+JiN4YTs8cG9seWxpbmUgc3R5bGU9InN0cm9rZS13aWR0aDogMS4wNzsgc3Ryb2tlOiBub25lOyBzdHJva2UtbGluZWNhcDogYnV0dDsiIHBvaW50cz0iMzU5LjYxLDgxLjQzIDM1Ny44Myw4Mi4zMiAzNTYuMDQsODMuMjAgMzU0LjI2LDg0LjA3IDM1Mi40OCw4NC45MyAzNTAuNzAsODUuNzggMzQ4LjkxLDg2LjYxIDM0Ny4xMyw4Ny40MyAzNDUuMzUsODguMjQgMzQzLjU3LDg5LjAyIDM0MS43OCw4OS43OSAzNDAuMDAsOTAuNTMgMzM4LjIyLDkxLjI2IDMzNi40NCw5MS45NiAzMzQuNjUsOTIuNjMgMzMyLjg3LDkzLjI4IDMzMS4wOSw5My45MCAzMjkuMzEsOTQuNDggMzI3LjUzLDk1LjA0IDMyNS43NCw5NS41NyAzMjMuOTYsOTYuMDYgMzIyLjE4LDk2LjUxIDMyMC40MCw5Ni45MyAzMTguNjEsOTcuMzEgMzE2LjgzLDk3LjY0IDMxNS4wNSw5Ny45NCAzMTMuMjcsOTguMTkgMzExLjQ4LDk4LjQwIDMwOS43MCw5OC41NiAzMDcuOTIsOTguNjggMzA2LjE0LDk4Ljc0IDMwNC4zNSw5OC43NiAzMDIuNTcsOTguNzIgMzAwLjc5LDk4LjYzIDI5OS4wMSw5OC40OCAyOTcuMjIsOTguMjggMjk1LjQ0LDk4LjAxIDI5My42Niw5Ny42OSAyOTEuODgsOTcuMzEgMjkwLjEwLDk2Ljg2IDI4OC4zMSw5Ni4zNSAyODYuNTMsOTcuMjggMjg0Ljc1LDk4LjE1IDI4Mi45Nyw5OC45OCAyODEuMTgsOTkuNzYgMjc5LjQwLDEwMC41MCAyNzcuNjIsMTAxLjIwIDI3NS44NCwxMDEuODUgMjc0LjA1LDEwMi40NiAyNzIuMjcsMTAzLjAyIDI3MC40OSwxMDMuNTUgMjY4LjcxLDEwNC4wMyAyNjYuOTIsMTA0LjQ4IDI2NS4xNCwxMDQuODggMjYzLjM2LDEwNS4yNSAyNjEuNTgsMTA1LjU4IDI1OS43OSwxMDUuODcgMjU4LjAxLDEwNi4xMyAyNTYuMjMsMTA2LjM1IDI1NC40NSwxMDYuNTQgMjUyLjY3LDEwNi42OSAyNTAuODgsMTA2LjgwIDI0OS4xMCwxMDYuODkgMjQ3LjMyLDEwNi45NCAyNDUuNTQsMTA2Ljk2IDI0My43NSwxMDYuOTUgMjQxLjk3LDEwNi45MCAyNDAuMTksMTA2LjgzIDIzOC40MSwxMDYuNzMgMjM2LjYyLDEwNi42MCAyMzQuODQsMTA2LjQ1IDIzMy4wNiwxMDYuMjYgMjMxLjI4LDEwNi4wNiAyMjkuNDksMTA1LjgyIDIyNy43MSwxMDUuNTYgMjI1LjkzLDEwNS4yOCAyMjQuMTUsMTA0Ljk3IDIyMi4zNiwxMDQuNjQgMjIwLjU4LDEwNC4yOSAyMTguODAsMTAzLjkxIDIxNy4wMiwxMDMuNTIgMjE1LjI0LDEwMy4xMCAyMTMuNDUsMTAyLjY3IDIxMS42NywxMDIuMjIgMjA5Ljg5LDEwMS43NCAyMDguMTEsMTAxLjI1IDIwNi4zMiwxMDAuNzUgMjA0LjU0LDEwMC4yMiAyMDIuNzYsOTkuNjggMjAwLjk4LDk5LjEyIDE5OS4xOSw5OC41NSAxOTcuNDEsOTcuOTYgMTk1LjYzLDk3LjM2IDE5My44NSw5Ni43NCAxOTIuMDYsOTYuMTEgMTkwLjI4LDk1LjQ3IDE4OC41MCw5NC44MiAxODYuNzIsOTQuMTUgMTg0LjkzLDkzLjQ3IDE4My4xNSw5Mi43OCAxODEuMzcsOTIuMDggMTc5LjU5LDkxLjM3IDE3Ny44MSw5MC42NSAxNzYuMDIsODkuOTIgMTc0LjI0LDg5LjE4IDE3Mi40Niw4OC40NCAxNzAuNjgsODcuNjkgMTY4Ljg5LDg2LjkzIDE2Ny4xMSw4Ni4xNiAxNjUuMzMsODUuMzkgMTYzLjU1LDg0LjYxIDE2MS43Niw4My44MyAxNTkuOTgsODMuMDQgMTU4LjIwLDgyLjI1IDE1Ni40Miw4MS40NiAxNTQuNjMsODAuNjYgMTUyLjg1LDc5Ljg2IDE1MS4wNyw3OS4wNiAxNDkuMjksNzguMjYgMTQ3LjUwLDc3LjQ2IDE0NS43Miw3Ni42NSAxNDMuOTQsNzUuODUgMTQyLjE2LDc1LjA1IDE0MC4zOCw3NC4yNiAxMzguNTksNzMuNDcgMTM2LjgxLDcyLjY5IDEzNS4wMyw3MS45MyAxMzMuMjUsNzEuMTggMTMxLjQ2LDcwLjQ1IDEyOS42OCw2OS43NSAxMjcuOTAsNjkuMDYgMTI2LjEyLDY4LjQxIDEyNC4zMyw2Ny43OCAxMjIuNTUsNjcuMTggMTIwLjc3LDY2LjYyIDExOC45OSw2Ni4xMCAxMTcuMjAsNjUuNjEgMTE1LjQyLDY1LjE3IDExMy42NCw2NC43NyAxMTEuODYsNjQuNDIgMTEwLjA3LDY0LjEyIDEwOC4yOSw2My44NyAxMDYuNTEsNjMuNjYgMTA0LjczLDYzLjUwIDEwMi45NSw2My4zNyAxMDEuMTYsNjMuMjYgOTkuMzgsNjMuMTcgOTcuNjAsNjMuMDkgOTUuODIsNjMuMDEgOTQuMDMsNjIuOTQgOTIuMjUsNjIuODUgOTAuNDcsNjIuNzQgODguNjksNjIuNjIgODYuOTAsNjIuNDYgODUuMTIsNjIuMjYgODMuMzQsNjIuMDIgODEuNTYsNjEuNzMgNzkuNzcsNjEuMzggNzcuOTksNjAuOTcgNzYuMjEsNjAuNDkgNzQuNDMsNTkuOTQgNzIuNjQsNjAuNTMgNzAuODYsNjEuMDggNjkuMDgsNjEuNTkgNjcuMzAsNjIuMDYgNjUuNTIsNjIuNDkgNjMuNzMsNjIuODkgNjEuOTUsNjMuMjUgNjAuMTcsNjMuNTcgNTguMzksNjMuODYgNTYuNjAsNjQuMTIgNTQuODIsNjQuMzUgNTMuMDQsNjQuNTUgNTEuMjYsNjQuNzIgNDkuNDcsNjQuODcgNDcuNjksNjQuOTkgNDUuOTEsNjUuMTAgNDQuMTMsNjUuMTggNDIuMzQsNjUuMjQgNDAuNTYsNjUuMjggMzguNzgsNjUuMzEgMzcuMDAsNjUuMzIgMzUuMjEsNjUuMzIgMzMuNDMsNjUuMzEgMzEuNjUsNjUuMjkgMjkuODcsNjUuMjYgMjguMDksNjUuMjIgMjYuMzAsNjUuMTcgMjQuNTIsNjUuMTIgMjIuNzQsNjUuMDcgMjAuOTYsNjUuMDEgMTkuMTcsNjQuOTYgMTcuMzksNjQuOTEgMTUuNjEsNjQuODYgMTMuODMsNjQuODEgMTIuMDQsNjQuNzcgMTAuMjYsNjQuNzQgOC40OCw2NC43MiA2LjcwLDY0LjcwIDQuOTEsNjQuNzAgMy4xMyw2NC43MSIvPiYjeGE7PHBvbHlsaW5lIHN0eWxlPSJzdHJva2Utd2lkdGg6IDEuMDc7IHN0cm9rZS1saW5lY2FwOiBidXR0OyIgcG9pbnRzPSIzLjEzLDUxLjU4IDQuOTEsNTIuMzcgNi43MCw1My4xMyA4LjQ4LDUzLjg0IDEwLjI2LDU0LjUyIDEyLjA0LDU1LjE2IDEzLjgzLDU1Ljc3IDE1LjYxLDU2LjM0IDE3LjM5LDU2Ljg3IDE5LjE3LDU3LjM3IDIwLjk2LDU3Ljg0IDIyLjc0LDU4LjI4IDI0LjUyLDU4LjY4IDI2LjMwLDU5LjA1IDI4LjA5LDU5LjM5IDI5Ljg3LDU5LjcxIDMxLjY1LDU5Ljk5IDMzLjQzLDYwLjI0IDM1LjIxLDYwLjQ3IDM3LjAwLDYwLjY3IDM4Ljc4LDYwLjg0IDQwLjU2LDYwLjk5IDQyLjM0LDYxLjEyIDQ0LjEzLDYxLjIyIDQ1LjkxLDYxLjI5IDQ3LjY5LDYxLjM1IDQ5LjQ3LDYxLjM4IDUxLjI2LDYxLjM5IDUzLjA0LDYxLjM4IDU0LjgyLDYxLjM1IDU2LjYwLDYxLjMwIDU4LjM5LDYxLjI0IDYwLjE3LDYxLjE1IDYxLjk1LDYxLjA1IDYzLjczLDYwLjk0IDY1LjUyLDYwLjgwIDY3LjMwLDYwLjY2IDY5LjA4LDYwLjUwIDcwLjg2LDYwLjMyIDcyLjY0LDYwLjE0IDc0LjQzLDU5Ljk0IDc2LjIxLDU5LjczIDc3Ljk5LDU5LjUxIDc5Ljc3LDU5LjI4IDgxLjU2LDU5LjA1IDgzLjM0LDU4LjgxIDg1LjEyLDU4LjU3IDg2LjkwLDU4LjMyIDg4LjY5LDU4LjA3IDkwLjQ3LDU3LjgyIDkyLjI1LDU3LjU4IDk0LjAzLDU3LjMzIDk1LjgyLDU3LjA5IDk3LjYwLDU2Ljg2IDk5LjM4LDU2LjYzIDEwMS4xNiw1Ni40MSAxMDIuOTUsNTYuMjAgMTA0LjczLDU2LjAwIDEwNi41MSw1NS44MSAxMDguMjksNTUuNjQgMTEwLjA3LDU1LjQ4IDExMS44Niw1NS4zNCAxMTMuNjQsNTUuMjEgMTE1LjQyLDU1LjExIDExNy4yMCw1NS4wMiAxMTguOTksNTQuOTYgMTIwLjc3LDU0LjkyIDEyMi41NSw1NC45MCAxMjQuMzMsNTQuOTEgMTI2LjEyLDU0Ljk1IDEyNy45MCw1NS4wMSAxMjkuNjgsNTUuMTEgMTMxLjQ2LDU1LjI0IDEzMy4yNSw1NS40MCAxMzUuMDMsNTUuNTkgMTM2LjgxLDU1LjgyIDEzOC41OSw1Ni4wOSAxNDAuMzgsNTYuMzkgMTQyLjE2LDU2Ljc0IDE0My45NCw1Ny4xMiAxNDUuNzIsNTcuNTUgMTQ3LjUwLDU4LjAyIDE0OS4yOSw1OC41MyAxNTEuMDcsNTkuMDkgMTUyLjg1LDU5LjY4IDE1NC42Myw2MC4zMSAxNTYuNDIsNjAuOTcgMTU4LjIwLDYxLjY2IDE1OS45OCw2Mi4zOCAxNjEuNzYsNjMuMTQgMTYzLjU1LDYzLjkyIDE2NS4zMyw2NC43MiAxNjcuMTEsNjUuNTUgMTY4Ljg5LDY2LjQwIDE3MC42OCw2Ny4yNyAxNzIuNDYsNjguMTUgMTc0LjI0LDY5LjA1IDE3Ni4wMiw2OS45NiAxNzcuODEsNzAuODkgMTc5LjU5LDcxLjgzIDE4MS4zNyw3Mi43NyAxODMuMTUsNzMuNzIgMTg0LjkzLDc0LjY3IDE4Ni43Miw3NS42MyAxODguNTAsNzYuNTggMTkwLjI4LDc3LjU0IDE5Mi4wNiw3OC40OSAxOTMuODUsNzkuNDMgMTk1LjYzLDgwLjM3IDE5Ny40MSw4MS4zMCAxOTkuMTksODIuMjIgMjAwLjk4LDgzLjEzIDIwMi43Niw4NC4wMiAyMDQuNTQsODQuODkgMjA2LjMyLDg1Ljc1IDIwOC4xMSw4Ni41OCAyMDkuODksODcuMzkgMjExLjY3LDg4LjE4IDIxMy40NSw4OC45NSAyMTUuMjQsODkuNjggMjE3LjAyLDkwLjM4IDIxOC44MCw5MS4wNiAyMjAuNTgsOTEuNzAgMjIyLjM2LDkyLjMxIDIyNC4xNSw5Mi44OSAyMjUuOTMsOTMuNDQgMjI3LjcxLDkzLjk2IDIyOS40OSw5NC40NSAyMzEuMjgsOTQuOTEgMjMzLjA2LDk1LjM1IDIzNC44NCw5NS43NSAyMzYuNjIsOTYuMTMgMjM4LjQxLDk2LjQ3IDI0MC4xOSw5Ni43OSAyNDEuOTcsOTcuMDkgMjQzLjc1LDk3LjM1IDI0NS41NCw5Ny41OSAyNDcuMzIsOTcuODEgMjQ5LjEwLDk4LjAwIDI1MC44OCw5OC4xNiAyNTIuNjcsOTguMzAgMjU0LjQ1LDk4LjQxIDI1Ni4yMyw5OC41MCAyNTguMDEsOTguNTYgMjU5Ljc5LDk4LjYxIDI2MS41OCw5OC42MiAyNjMuMzYsOTguNjIgMjY1LjE0LDk4LjU5IDI2Ni45Miw5OC41NCAyNjguNzEsOTguNDcgMjcwLjQ5LDk4LjM4IDI3Mi4yNyw5OC4yNyAyNzQuMDUsOTguMTMgMjc1Ljg0LDk3Ljk4IDI3Ny42Miw5Ny44MCAyNzkuNDAsOTcuNjEgMjgxLjE4LDk3LjQwIDI4Mi45Nyw5Ny4xNiAyODQuNzUsOTYuOTEgMjg2LjUzLDk2LjY0IDI4OC4zMSw5Ni4zNSAyOTAuMTAsOTYuMDUgMjkxLjg4LDk1LjczIDI5My42Niw5NS4zOSAyOTUuNDQsOTUuMDMgMjk3LjIyLDk0LjY1IDI5OS4wMSw5NC4yNiAzMDAuNzksOTMuODUgMzAyLjU3LDkzLjQyIDMwNC4zNSw5Mi45NyAzMDYuMTQsOTIuNTAgMzA3LjkyLDkyLjAyIDMwOS43MCw5MS41MSAzMTEuNDgsOTAuOTkgMzEzLjI3LDkwLjQ1IDMxNS4wNSw4OS44OSAzMTYuODMsODkuMzEgMzE4LjYxLDg4LjcxIDMyMC40MCw4OC4wOSAzMjIuMTgsODcuNDYgMzIzLjk2LDg2LjgwIDMyNS43NCw4Ni4xMyAzMjcuNTMsODUuNDMgMzI5LjMxLDg0LjcyIDMzMS4wOSw4My45OCAzMzIuODcsODMuMjMgMzM0LjY1LDgyLjQ2IDMzNi40NCw4MS42NiAzMzguMjIsODAuODUgMzQwLjAwLDgwLjAyIDM0MS43OCw3OS4xNiAzNDMuNTcsNzguMjkgMzQ1LjM1LDc3LjM5IDM0Ny4xMyw3Ni40OCAzNDguOTEsNzUuNTQgMzUwLjcwLDc0LjU5IDM1Mi40OCw3My42MSAzNTQuMjYsNzIuNjEgMzU2LjA0LDcxLjU5IDM1Ny44Myw3MC41NSAzNTkuNjEsNjkuNDkiLz4mI3hhOzxwb2x5bGluZSBzdHlsZT0ic3Ryb2tlLXdpZHRoOiAxLjA3OyBzdHJva2UtZGFzaGFycmF5OiA1LjY5LDUuNjk7IHN0cm9rZS1saW5lY2FwOiBidXR0OyIgcG9pbnRzPSIzLjEzLDQ4LjAwIDQuOTEsNDkuMDggNi43MCw1MC4xMiA4LjQ4LDUxLjEwIDEwLjI2LDUyLjAzIDEyLjA0LDUyLjkyIDEzLjgzLDUzLjc1IDE1LjYxLDU0LjU0IDE3LjM5LDU1LjI5IDE5LjE3LDU1Ljk5IDIwLjk2LDU2LjY0IDIyLjc0LDU3LjI1IDI0LjUyLDU3LjgyIDI2LjMwLDU4LjM1IDI4LjA5LDU4LjgzIDI5Ljg3LDU5LjI4IDMxLjY1LDU5LjY5IDMzLjQzLDYwLjA2IDM1LjIxLDYwLjM5IDM3LjAwLDYwLjY4IDM4Ljc4LDYwLjk0IDQwLjU2LDYxLjE2IDQyLjM0LDYxLjM1IDQ0LjEzLDYxLjUxIDQ1LjkxLDYxLjY0IDQ3LjY5LDYxLjczIDQ5LjQ3LDYxLjc5IDUxLjI2LDYxLjgyIDUzLjA0LDYxLjgzIDU0LjgyLDYxLjgwIDU2LjYwLDYxLjc1IDU4LjM5LDYxLjY4IDYwLjE3LDYxLjU3IDYxLjk1LDYxLjQ1IDYzLjczLDYxLjI5IDY1LjUyLDYxLjEyIDY3LjMwLDYwLjkyIDY5LjA4LDYwLjcxIDcwLjg2LDYwLjQ3IDcyLjY0LDYwLjIxIDc0LjQzLDU5Ljk0IDc2LjIxLDU5LjY1IDc3Ljk5LDU5LjM0IDc5Ljc3LDU5LjAxIDgxLjU2LDU4LjY3IDgzLjM0LDU4LjMyIDg1LjEyLDU3Ljk1IDg2LjkwLDU3LjU4IDg4LjY5LDU3LjE5IDkwLjQ3LDU2Ljc5IDkyLjI1LDU2LjM5IDk0LjAzLDU1Ljk3IDk1LjgyLDU1LjU2IDk3LjYwLDU1LjEzIDk5LjM4LDU0LjcxIDEwMS4xNiw1NC4yNyAxMDIuOTUsNTMuODQgMTA0LjczLDUzLjQxIDEwNi41MSw1Mi45OCAxMDguMjksNTIuNTQgMTEwLjA3LDUyLjExIDExMS44Niw1MS42OSAxMTMuNjQsNTEuMjcgMTE1LjQyLDUwLjg1IDExNy4yMCw1MC40NCAxMTguOTksNTAuMDQgMTIwLjc3LDQ5LjY0IDEyMi41NSw0OS4yNiAxMjQuMzMsNDguODggMTI2LjEyLDQ4LjUyIDEyNy45MCw0OC4xNyAxMjkuNjgsNDcuODQgMTMxLjQ2LDQ3LjUyIDEzMy4yNSw0Ny4yMSAxMzUuMDMsNDYuOTIgMTM2LjgxLDQ2LjY1IDEzOC41OSw0Ni40MCAxNDAuMzgsNDYuMTcgMTQyLjE2LDQ1Ljk2IDE0My45NCw0NS43OCAxNDUuNzIsNDUuNjEgMTQ3LjUwLDQ1LjQ3IDE0OS4yOSw0NS4zNiAxNTEuMDcsNDUuMjYgMTUyLjg1LDQ1LjIwIDE1NC42Myw0NS4xNiAxNTYuNDIsNDUuMTQgMTU4LjIwLDQ1LjE1IDE1OS45OCw0NS4xOCAxNjEuNzYsNDUuMjQgMTYzLjU1LDQ1LjMyIDE2NS4zMyw0NS40MyAxNjcuMTEsNDUuNTYgMTY4Ljg5LDQ1LjcyIDE3MC42OCw0NS45MCAxNzIuNDYsNDYuMTEgMTc0LjI0LDQ2LjM1IDE3Ni4wMiw0Ni42MSAxNzcuODEsNDYuOTAgMTc5LjU5LDQ3LjIxIDE4MS4zNyw0Ny41NSAxODMuMTUsNDcuOTEgMTg0LjkzLDQ4LjMwIDE4Ni43Miw0OC43MiAxODguNTAsNDkuMTcgMTkwLjI4LDQ5LjY0IDE5Mi4wNiw1MC4xMyAxOTMuODUsNTAuNjYgMTk1LjYzLDUxLjIxIDE5Ny40MSw1MS43OSAxOTkuMTksNTIuMzkgMjAwLjk4LDUzLjAyIDIwMi43Niw1My42OCAyMDQuNTQsNTQuMzcgMjA2LjMyLDU1LjA4IDIwOC4xMSw1NS44MiAyMDkuODksNTYuNTkgMjExLjY3LDU3LjM4IDIxMy40NSw1OC4yMSAyMTUuMjQsNTkuMDYgMjE3LjAyLDU5Ljk0IDIxOC44MCw2MC44NSAyMjAuNTgsNjEuNzggMjIyLjM2LDYyLjczIDIyNC4xNSw2My43MSAyMjUuOTMsNjQuNzEgMjI3LjcxLDY1LjczIDIyOS40OSw2Ni43NiAyMzEuMjgsNjcuODEgMjMzLjA2LDY4Ljg2IDIzNC44NCw2OS45MyAyMzYuNjIsNzEuMDAgMjM4LjQxLDcyLjA5IDI0MC4xOSw3My4xNyAyNDEuOTcsNzQuMjUgMjQzLjc1LDc1LjM0IDI0NS41NCw3Ni40MiAyNDcuMzIsNzcuNTAgMjQ5LjEwLDc4LjU3IDI1MC44OCw3OS42MyAyNTIuNjcsODAuNjkgMjU0LjQ1LDgxLjcyIDI1Ni4yMyw4Mi43NSAyNTguMDEsODMuNzYgMjU5Ljc5LDg0Ljc1IDI2MS41OCw4NS43MSAyNjMuMzYsODYuNjYgMjY1LjE0LDg3LjU4IDI2Ni45Miw4OC40NyAyNjguNzEsODkuMzQgMjcwLjQ5LDkwLjE3IDI3Mi4yNyw5MC45NyAyNzQuMDUsOTEuNzQgMjc1Ljg0LDkyLjQ3IDI3Ny42Miw5My4xNiAyNzkuNDAsOTMuODAgMjgxLjE4LDk0LjQxIDI4Mi45Nyw5NC45NyAyODQuNzUsOTUuNDggMjg2LjUzLDk1Ljk0IDI4OC4zMSw5Ni4zNSAyOTAuMTAsOTYuNzEgMjkxLjg4LDk3LjAwIDI5My42Niw5Ny4yMSAyOTUuNDQsOTcuMzIgMjk3LjIyLDk3LjMyIDI5OS4wMSw5Ny4xOSAzMDAuNzksOTYuOTMgMzAyLjU3LDk2LjUxIDMwNC4zNSw5NS45MyAzMDYuMTQsOTUuMTYgMzA3LjkyLDk0LjIwIDMwOS43MCw5My4wNyAzMTEuNDgsOTEuNzcgMzEzLjI3LDkwLjMzIDMxNS4wNSw4OC43NiAzMTYuODMsODcuMDkgMzE4LjYxLDg1LjMyIDMyMC40MCw4My40OCAzMjIuMTgsODEuNTggMzIzLjk2LDc5LjY0IDMyNS43NCw3Ny42OCAzMjcuNTMsNzUuNzEgMzI5LjMxLDczLjc0IDMzMS4wOSw3MS43OCAzMzIuODcsNjkuODUgMzM0LjY1LDY3Ljk1IDMzNi40NCw2Ni4xMCAzMzguMjIsNjQuMzEgMzQwLjAwLDYyLjU5IDM0MS43OCw2MC45NSAzNDMuNTcsNTkuNDEgMzQ1LjM1LDU3Ljk2IDM0Ny4xMyw1Ni42NCAzNDguOTEsNTUuNDQgMzUwLjcwLDU0LjM4IDM1Mi40OCw1My40OCAzNTQuMjYsNTIuNzMgMzU2LjA0LDUyLjE2IDM1Ny44Myw1MS43NyAzNTkuNjEsNTEuNTgiLz4mI3hhOzxwb2x5bGluZSBzdHlsZT0ic3Ryb2tlLXdpZHRoOiAxLjA3OyBzdHJva2U6ICNGRkE1MDA7IHN0cm9rZS1saW5lY2FwOiBidXR0OyIgcG9pbnRzPSIzLjEzLDE0MS4wMSA0LjkxLDE0MS4wMSA2LjcwLDE0MS4wMSA4LjQ4LDE0MS4wMSAxMC4yNiwxNDEuMDEgMTIuMDQsMTQxLjAxIDEzLjgzLDE0MS4wMSAxNS42MSwxNDEuMDEgMTcuMzksMTQxLjAxIDE5LjE3LDE0MS4wMSAyMC45NiwxNDEuMDEgMjIuNzQsMTQxLjAxIDI0LjUyLDE0MS4wMSAyNi4zMCwxNDEuMDEgMjguMDksMTQxLjAxIDI5Ljg3LDE0MS4wMSAzMS42NSwxNDEuMDEgMzMuNDMsMTQxLjAxIDM1LjIxLDE0MS4wMSAzNy4wMCwxNDEuMDEgMzguNzgsMTQxLjAxIDQwLjU2LDE0MS4wMSA0Mi4zNCwxNDEuMDEgNDQuMTMsMTQxLjAxIDQ1LjkxLDE0MS4wMSA0Ny42OSwxNDEuMDEgNDkuNDcsMTQxLjAxIDUxLjI2LDE0MS4wMSA1My4wNCwxNDEuMDEgNTQuODIsMTQxLjAxIDU2LjYwLDE0MS4wMSA1OC4zOSwxNDEuMDEgNjAuMTcsMTQxLjAxIDYxLjk1LDE0MS4wMSA2My43MywxNDEuMDEgNjUuNTIsMTQxLjAxIDY3LjMwLDE0MS4wMSA2OS4wOCwxNDEuMDEgNzAuODYsMTQxLjAxIDcyLjY0LDE0MS4wMSA3NC40MywxNDEuMDEgNzYuMjEsMTQxLjAxIDc3Ljk5LDE0MS4wMSA3OS43NywxNDEuMDEgODEuNTYsMTQxLjAxIDgzLjM0LDE0MS4wMSA4NS4xMiwxNDEuMDEgODYuOTAsMTQxLjAxIDg4LjY5LDE0MS4wMSA5MC40NywxNDEuMDEgOTIuMjUsMTQxLjAxIDk0LjAzLDE0MS4wMSA5NS44MiwxNDEuMDEgOTcuNjAsMTQxLjAxIDk5LjM4LDE0MS4wMSAxMDEuMTYsMTQxLjAxIDEwMi45NSwxNDEuMDEgMTA0LjczLDE0MS4wMSAxMDYuNTEsMTQxLjAxIDEwOC4yOSwxNDEuMDEgMTEwLjA3LDE0MS4wMSAxMTEuODYsMTQxLjAwIDExMy42NCwxNDEuMDAgMTE1LjQyLDE0MS4wMCAxMTcuMjAsMTQwLjk5IDExOC45OSwxNDAuOTkgMTIwLjc3LDE0MC45OCAxMjIuNTUsMTQwLjk3IDEyNC4zMywxNDAuOTcgMTI2LjEyLDE0MC45NiAxMjcuOTAsMTQwLjk1IDEyOS42OCwxNDAuOTQgMTMxLjQ2LDE0MC45MyAxMzMuMjUsMTQwLjkyIDEzNS4wMywxNDAuOTAgMTM2LjgxLDE0MC44OSAxMzguNTksMTQwLjg3IDE0MC4zOCwxNDAuODUgMTQyLjE2LDE0MC44MiAxNDMuOTQsMTQwLjgwIDE0NS43MiwxNDAuNzcgMTQ3LjUwLDE0MC43NCAxNDkuMjksMTQwLjcxIDE1MS4wNywxNDAuNjcgMTUyLjg1LDE0MC42MiAxNTQuNjMsMTQwLjU3IDE1Ni40MiwxNDAuNTIgMTU4LjIwLDE0MC40NiAxNTkuOTgsMTQwLjM5IDE2MS43NiwxNDAuMzEgMTYzLjU1LDE0MC4yMyAxNjUuMzMsMTQwLjEzIDE2Ny4xMSwxNDAuMDMgMTY4Ljg5LDEzOS45MSAxNzAuNjgsMTM5Ljc4IDE3Mi40NiwxMzkuNjQgMTc0LjI0LDEzOS40OSAxNzYuMDIsMTM5LjMyIDE3Ny44MSwxMzkuMTQgMTc5LjU5LDEzOC45NSAxODEuMzcsMTM4Ljc0IDE4My4xNSwxMzguNTIgMTg0LjkzLDEzOC4yNyAxODYuNzIsMTM4LjAyIDE4OC41MCwxMzcuNzUgMTkwLjI4LDEzNy40NiAxOTIuMDYsMTM3LjE2IDE5My44NSwxMzYuODQgMTk1LjYzLDEzNi41MSAxOTcuNDEsMTM2LjE3IDE5OS4xOSwxMzUuODIgMjAwLjk4LDEzNS40NSAyMDIuNzYsMTM1LjA2IDIwNC41NCwxMzQuNjcgMjA2LjMyLDEzNC4yNiAyMDguMTEsMTMzLjg0IDIwOS44OSwxMzMuNDEgMjExLjY3LDEzMi45NyAyMTMuNDUsMTMyLjUyIDIxNS4yNCwxMzIuMDUgMjE3LjAyLDEzMS41OCAyMTguODAsMTMxLjA5IDIyMC41OCwxMzAuNjAgMjIyLjM2LDEzMC4xMSAyMjQuMTUsMTI5LjYxIDIyNS45MywxMjkuMTIgMjI3LjcxLDEyOC42NCAyMjkuNDksMTI4LjE3IDIzMS4yOCwxMjcuNzEgMjMzLjA2LDEyNy4yNyAyMzQuODQsMTI2Ljg1IDIzNi42MiwxMjYuNDYgMjM4LjQxLDEyNi4xMCAyNDAuMTksMTI1Ljc3IDI0MS45NywxMjUuNDcgMjQzLjc1LDEyNS4yMiAyNDUuNTQsMTI1LjAwIDI0Ny4zMiwxMjQuODQgMjQ5LjEwLDEyNC43MiAyNTAuODgsMTI0LjY2IDI1Mi42NywxMjQuNjUgMjU0LjQ1LDEyNC43MSAyNTYuMjMsMTI0LjgzIDI1OC4wMSwxMjUuMDEgMjU5Ljc5LDEyNS4yNiAyNjEuNTgsMTI1LjU5IDI2My4zNiwxMjUuOTkgMjY1LjE0LDEyNi40NyAyNjYuOTIsMTI3LjAzIDI2OC43MSwxMjcuNjggMjcwLjQ5LDEyOC40MSAyNzIuMjcsMTI5LjIzIDI3NC4wNSwxMzAuMTQgMjc1Ljg0LDEzMS4xNSAyNzcuNjIsMTMyLjI2IDI3OS40MCwxMzMuNDcgMjgxLjE4LDEzNC43OCAyODIuOTcsMTM2LjIwIDI4NC43NSwxMzcuNzMgMjg2LjUzLDEzOS4zNyAyODguMzEsMTQxLjAxIDI5MC4xMCwxMzguNzYgMjkxLjg4LDEzNi43MCAyOTMuNjYsMTM0LjkyIDI5NS40NCwxMzMuNDIgMjk3LjIyLDEzMi4xNyAyOTkuMDEsMTMxLjE2IDMwMC43OSwxMzAuMzcgMzAyLjU3LDEyOS43OSAzMDQuMzUsMTI5LjQwIDMwNi4xNCwxMjkuMTkgMzA3LjkyLDEyOS4xMyAzMDkuNzAsMTI5LjIxIDMxMS40OCwxMjkuNDEgMzEzLjI3LDEyOS43MCAzMTUuMDUsMTMwLjA2IDMxNi44MywxMzAuNDcgMzE4LjYxLDEzMC45MCAzMjAuNDAsMTMxLjM1IDMyMi4xOCwxMzEuNzggMzIzLjk2LDEzMi4xNyAzMjUuNzQsMTMyLjUxIDMyNy41MywxMzIuODAgMzI5LjMxLDEzMy4wNCAzMzEuMDksMTMzLjI1IDMzMi44NywxMzMuNDEgMzM0LjY1LDEzMy41NSAzMzYuNDQsMTMzLjY3IDMzOC4yMiwxMzMuNzggMzQwLjAwLDEzMy44NyAzNDEuNzgsMTMzLjk3IDM0My41NywxMzQuMDYgMzQ1LjM1LDEzNC4xNiAzNDcuMTMsMTM0LjI2IDM0OC45MSwxMzQuMzcgMzUwLjcwLDEzNC40OCAzNTIuNDgsMTM0LjYwIDM1NC4yNiwxMzQuNzMgMzU2LjA0LDEzNC44NyAzNTcuODMsMTM1LjAxIDM1OS42MSwxMzUuMTYiLz4mI3hhOzxwb2x5Z29uIHN0eWxlPSJzdHJva2Utd2lkdGg6IDAuMDA7IHN0cm9rZTogbm9uZTsgc3Ryb2tlLWxpbmVjYXA6IGJ1dHQ7IGZpbGw6ICNGRkY0RTA7IiBwb2ludHM9IjMuMTMsMTQxLjAxIDQuOTEsMTQxLjAxIDYuNzAsMTQxLjAxIDguNDgsMTQxLjAxIDEwLjI2LDE0MS4wMSAxMi4wNCwxNDEuMDEgMTMuODMsMTQxLjAxIDE1LjYxLDE0MS4wMSAxNy4zOSwxNDEuMDEgMTkuMTcsMTQxLjAxIDIwLjk2LDE0MS4wMSAyMi43NCwxNDEuMDEgMjQuNTIsMTQxLjAxIDI2LjMwLDE0MS4wMSAyOC4wOSwxNDEuMDEgMjkuODcsMTQxLjAxIDMxLjY1LDE0MS4wMSAzMy40MywxNDEuMDEgMzUuMjEsMTQxLjAxIDM3LjAwLDE0MS4wMSAzOC43OCwxNDEuMDEgNDAuNTYsMTQxLjAxIDQyLjM0LDE0MS4wMSA0NC4xMywxNDEuMDEgNDUuOTEsMTQxLjAxIDQ3LjY5LDE0MS4wMSA0OS40NywxNDEuMDEgNTEuMjYsMTQxLjAxIDUzLjA0LDE0MS4wMSA1NC44MiwxNDEuMDEgNTYuNjAsMTQxLjAxIDU4LjM5LDE0MS4wMSA2MC4xNywxNDEuMDEgNjEuOTUsMTQxLjAxIDYzLjczLDE0MS4wMSA2NS41MiwxNDEuMDEgNjcuMzAsMTQxLjAxIDY5LjA4LDE0MS4wMSA3MC44NiwxNDEuMDEgNzIuNjQsMTQxLjAxIDc0LjQzLDE0MS4wMSA3Ni4yMSwxNDEuMDEgNzcuOTksMTQxLjAxIDc5Ljc3LDE0MS4wMSA4MS41NiwxNDEuMDEgODMuMzQsMTQxLjAxIDg1LjEyLDE0MS4wMSA4Ni45MCwxNDEuMDEgODguNjksMTQxLjAxIDkwLjQ3LDE0MS4wMSA5Mi4yNSwxNDEuMDEgOTQuMDMsMTQxLjAxIDk1LjgyLDE0MS4wMSA5Ny42MCwxNDEuMDEgOTkuMzgsMTQxLjAxIDEwMS4xNiwxNDEuMDEgMTAyLjk1LDE0MS4wMSAxMDQuNzMsMTQxLjAxIDEwNi41MSwxNDEuMDEgMTA4LjI5LDE0MS4wMSAxMTAuMDcsMTQxLjAxIDExMS44NiwxNDEuMDAgMTEzLjY0LDE0MS4wMCAxMTUuNDIsMTQxLjAwIDExNy4yMCwxNDAuOTkgMTE4Ljk5LDE0MC45OSAxMjAuNzcsMTQwLjk4IDEyMi41NSwxNDAuOTcgMTI0LjMzLDE0MC45NyAxMjYuMTIsMTQwLjk2IDEyNy45MCwxNDAuOTUgMTI5LjY4LDE0MC45NCAxMzEuNDYsMTQwLjkzIDEzMy4yNSwxNDAuOTIgMTM1LjAzLDE0MC45MCAxMzYuODEsMTQwLjg5IDEzOC41OSwxNDAuODcgMTQwLjM4LDE0MC44NSAxNDIuMTYsMTQwLjgyIDE0My45NCwxNDAuODAgMTQ1LjcyLDE0MC43NyAxNDcuNTAsMTQwLjc0IDE0OS4yOSwxNDAuNzEgMTUxLjA3LDE0MC42NyAxNTIuODUsMTQwLjYyIDE1NC42MywxNDAuNTcgMTU2LjQyLDE0MC41MiAxNTguMjAsMTQwLjQ2IDE1OS45OCwxNDAuMzkgMTYxLjc2LDE0MC4zMSAxNjMuNTUsMTQwLjIzIDE2NS4zMywxNDAuMTMgMTY3LjExLDE0MC4wMyAxNjguODksMTM5LjkxIDE3MC42OCwxMzkuNzggMTcyLjQ2LDEzOS42NCAxNzQuMjQsMTM5LjQ5IDE3Ni4wMiwxMzkuMzIgMTc3LjgxLDEzOS4xNCAxNzkuNTksMTM4Ljk1IDE4MS4zNywxMzguNzQgMTgzLjE1LDEzOC41MiAxODQuOTMsMTM4LjI3IDE4Ni43MiwxMzguMDIgMTg4LjUwLDEzNy43NSAxOTAuMjgsMTM3LjQ2IDE5Mi4wNiwxMzcuMTYgMTkzLjg1LDEzNi44NCAxOTUuNjMsMTM2LjUxIDE5Ny40MSwxMzYuMTcgMTk5LjE5LDEzNS44MiAyMDAuOTgsMTM1LjQ1IDIwMi43NiwxMzUuMDYgMjA0LjU0LDEzNC42NyAyMDYuMzIsMTM0LjI2IDIwOC4xMSwxMzMuODQgMjA5Ljg5LDEzMy40MSAyMTEuNjcsMTMyLjk3IDIxMy40NSwxMzIuNTIgMjE1LjI0LDEzMi4wNSAyMTcuMDIsMTMxLjU4IDIxOC44MCwxMzEuMDkgMjIwLjU4LDEzMC42MCAyMjIuMzYsMTMwLjExIDIyNC4xNSwxMjkuNjEgMjI1LjkzLDEyOS4xMiAyMjcuNzEsMTI4LjY0IDIyOS40OSwxMjguMTcgMjMxLjI4LDEyNy43MSAyMzMuMDYsMTI3LjI3IDIzNC44NCwxMjYuODUgMjM2LjYyLDEyNi40NiAyMzguNDEsMTI2LjEwIDI0MC4xOSwxMjUuNzcgMjQxLjk3LDEyNS40NyAyNDMuNzUsMTI1LjIyIDI0NS41NCwxMjUuMDAgMjQ3LjMyLDEyNC44NCAyNDkuMTAsMTI0LjcyIDI1MC44OCwxMjQuNjYgMjUyLjY3LDEyNC42NSAyNTQuNDUsMTI0LjcxIDI1Ni4yMywxMjQuODMgMjU4LjAxLDEyNS4wMSAyNTkuNzksMTI1LjI2IDI2MS41OCwxMjUuNTkgMjYzLjM2LDEyNS45OSAyNjUuMTQsMTI2LjQ3IDI2Ni45MiwxMjcuMDMgMjY4LjcxLDEyNy42OCAyNzAuNDksMTI4LjQxIDI3Mi4yNywxMjkuMjMgMjc0LjA1LDEzMC4xNCAyNzUuODQsMTMxLjE1IDI3Ny42MiwxMzIuMjYgMjc5LjQwLDEzMy40NyAyODEuMTgsMTM0Ljc4IDI4Mi45NywxMzYuMjAgMjg0Ljc1LDEzNy43MyAyODYuNTMsMTM5LjM3IDI4OC4zMSwxNDEuMDEgMjkwLjEwLDEzOC43NiAyOTEuODgsMTM2LjcwIDI5My42NiwxMzQuOTIgMjk1LjQ0LDEzMy40MiAyOTcuMjIsMTMyLjE3IDI5OS4wMSwxMzEuMTYgMzAwLjc5LDEzMC4zNyAzMDIuNTcsMTI5Ljc5IDMwNC4zNSwxMjkuNDAgMzA2LjE0LDEyOS4xOSAzMDcuOTIsMTI5LjEzIDMwOS43MCwxMjkuMjEgMzExLjQ4LDEyOS40MSAzMTMuMjcsMTI5LjcwIDMxNS4wNSwxMzAuMDYgMzE2LjgzLDEzMC40NyAzMTguNjEsMTMwLjkwIDMyMC40MCwxMzEuMzUgMzIyLjE4LDEzMS43OCAzMjMuOTYsMTMyLjE3IDMyNS43NCwxMzIuNTEgMzI3LjUzLDEzMi44MCAzMjkuMzEsMTMzLjA0IDMzMS4wOSwxMzMuMjUgMzMyLjg3LDEzMy40MSAzMzQuNjUsMTMzLjU1IDMzNi40NCwxMzMuNjcgMzM4LjIyLDEzMy43OCAzNDAuMDAsMTMzLjg3IDM0MS43OCwxMzMuOTcgMzQzLjU3LDEzNC4wNiAzNDUuMzUsMTM0LjE2IDM0Ny4xMywxMzQuMjYgMzQ4LjkxLDEzNC4zNyAzNTAuNzAsMTM0LjQ4IDM1Mi40OCwxMzQuNjAgMzU0LjI2LDEzNC43MyAzNTYuMDQsMTM0Ljg3IDM1Ny44MywxMzUuMDEgMzU5LjYxLDEzNS4xNiAzNTkuNjEsMTQxLjEzIDM1Ny44MywxNDEuMTMgMzU2LjA0LDE0MS4xMyAzNTQuMjYsMTQxLjEzIDM1Mi40OCwxNDEuMTMgMzUwLjcwLDE0MS4xMyAzNDguOTEsMTQxLjEzIDM0Ny4xMywxNDEuMTMgMzQ1LjM1LDE0MS4xMyAzNDMuNTcsMTQxLjEzIDM0MS43OCwxNDEuMTMgMzQwLjAwLDE0MS4xMyAzMzguMjIsMTQxLjEzIDMzNi40NCwxNDEuMTMgMzM0LjY1LDE0MS4xMyAzMzIuODcsMTQxLjEzIDMzMS4wOSwxNDEuMTMgMzI5LjMxLDE0MS4xMyAzMjcuNTMsMTQxLjEzIDMyNS43NCwxNDEuMTMgMzIzLjk2LDE0MS4xMyAzMjIuMTgsMTQxLjEzIDMyMC40MCwxNDEuMTMgMzE4LjYxLDE0MS4xMyAzMTYuODMsMTQxLjEzIDMxNS4wNSwxNDEuMTMgMzEzLjI3LDE0MS4xMyAzMTEuNDgsMTQxLjEzIDMwOS43MCwxNDEuMTMgMzA3LjkyLDE0MS4xMyAzMDYuMTQsMTQxLjEzIDMwNC4zNSwxNDEuMTMgMzAyLjU3LDE0MS4xMyAzMDAuNzksMTQxLjEzIDI5OS4wMSwxNDEuMTMgMjk3LjIyLDE0MS4xMyAyOTUuNDQsMTQxLjEzIDI5My42NiwxNDEuMTMgMjkxLjg4LDE0MS4xMyAyOTAuMTAsMTQxLjEzIDI4OC4zMSwxNDEuMTMgMjg2LjUzLDE0MS4xMyAyODQuNzUsMTQxLjEzIDI4Mi45NywxNDEuMTMgMjgxLjE4LDE0MS4xMyAyNzkuNDAsMTQxLjEzIDI3Ny42MiwxNDEuMTMgMjc1Ljg0LDE0MS4xMyAyNzQuMDUsMTQxLjEzIDI3Mi4yNywxNDEuMTMgMjcwLjQ5LDE0MS4xMyAyNjguNzEsMTQxLjEzIDI2Ni45MiwxNDEuMTMgMjY1LjE0LDE0MS4xMyAyNjMuMzYsMTQxLjEzIDI2MS41OCwxNDEuMTMgMjU5Ljc5LDE0MS4xMyAyNTguMDEsMTQxLjEzIDI1Ni4yMywxNDEuMTMgMjU0LjQ1LDE0MS4xMyAyNTIuNjcsMTQxLjEzIDI1MC44OCwxNDEuMTMgMjQ5LjEwLDE0MS4xMyAyNDcuMzIsMTQxLjEzIDI0NS41NCwxNDEuMTMgMjQzLjc1LDE0MS4xMyAyNDEuOTcsMTQxLjEzIDI0MC4xOSwxNDEuMTMgMjM4LjQxLDE0MS4xMyAyMzYuNjIsMTQxLjEzIDIzNC44NCwxNDEuMTMgMjMzLjA2LDE0MS4xMyAyMzEuMjgsMTQxLjEzIDIyOS40OSwxNDEuMTMgMjI3LjcxLDE0MS4xMyAyMjUuOTMsMTQxLjEzIDIyNC4xNSwxNDEuMTMgMjIyLjM2LDE0MS4xMyAyMjAuNTgsMTQxLjEzIDIxOC44MCwxNDEuMTMgMjE3LjAyLDE0MS4xMyAyMTUuMjQsMTQxLjEzIDIxMy40NSwxNDEuMTMgMjExLjY3LDE0MS4xMyAyMDkuODksMTQxLjEzIDIwOC4xMSwxNDEuMTMgMjA2LjMyLDE0MS4xMyAyMDQuNTQsMTQxLjEzIDIwMi43NiwxNDEuMTMgMjAwLjk4LDE0MS4xMyAxOTkuMTksMTQxLjEzIDE5Ny40MSwxNDEuMTMgMTk1LjYzLDE0MS4xMyAxOTMuODUsMTQxLjEzIDE5Mi4wNiwxNDEuMTMgMTkwLjI4LDE0MS4xMyAxODguNTAsMTQxLjEzIDE4Ni43MiwxNDEuMTMgMTg0LjkzLDE0MS4xMyAxODMuMTUsMTQxLjEzIDE4MS4zNywxNDEuMTMgMTc5LjU5LDE0MS4xMyAxNzcuODEsMTQxLjEzIDE3Ni4wMiwxNDEuMTMgMTc0LjI0LDE0MS4xMyAxNzIuNDYsMTQxLjEzIDE3MC42OCwxNDEuMTMgMTY4Ljg5LDE0MS4xMyAxNjcuMTEsMTQxLjEzIDE2NS4zMywxNDEuMTMgMTYzLjU1LDE0MS4xMyAxNjEuNzYsMTQxLjEzIDE1OS45OCwxNDEuMTMgMTU4LjIwLDE0MS4xMyAxNTYuNDIsMTQxLjEzIDE1NC42MywxNDEuMTMgMTUyLjg1LDE0MS4xMyAxNTEuMDcsMTQxLjEzIDE0OS4yOSwxNDEuMTMgMTQ3LjUwLDE0MS4xMyAxNDUuNzIsMTQxLjEzIDE0My45NCwxNDEuMTMgMTQyLjE2LDE0MS4xMyAxNDAuMzgsMTQxLjEzIDEzOC41OSwxNDEuMTMgMTM2LjgxLDE0MS4xMyAxMzUuMDMsMTQxLjEzIDEzMy4yNSwxNDEuMTMgMTMxLjQ2LDE0MS4xMyAxMjkuNjgsMTQxLjEzIDEyNy45MCwxNDEuMTMgMTI2LjEyLDE0MS4xMyAxMjQuMzMsMTQxLjEzIDEyMi41NSwxNDEuMTMgMTIwLjc3LDE0MS4xMyAxMTguOTksMTQxLjEzIDExNy4yMCwxNDEuMTMgMTE1LjQyLDE0MS4xMyAxMTMuNjQsMTQxLjEzIDExMS44NiwxNDEuMTMgMTEwLjA3LDE0MS4xMyAxMDguMjksMTQxLjEzIDEwNi41MSwxNDEuMTMgMTA0LjczLDE0MS4xMyAxMDIuOTUsMTQxLjEzIDEwMS4xNiwxNDEuMTMgOTkuMzgsMTQxLjEzIDk3LjYwLDE0MS4xMyA5NS44MiwxNDEuMTMgOTQuMDMsMTQxLjEzIDkyLjI1LDE0MS4xMyA5MC40NywxNDEuMTMgODguNjksMTQxLjEzIDg2LjkwLDE0MS4xMyA4NS4xMiwxNDEuMTMgODMuMzQsMTQxLjEzIDgxLjU2LDE0MS4xMyA3OS43NywxNDEuMTMgNzcuOTksMTQxLjEzIDc2LjIxLDE0MS4xMyA3NC40MywxNDEuMTMgNzIuNjQsMTQxLjEzIDcwLjg2LDE0MS4xMyA2OS4wOCwxNDEuMTMgNjcuMzAsMTQxLjEzIDY1LjUyLDE0MS4xMyA2My43MywxNDEuMTMgNjEuOTUsMTQxLjEzIDYwLjE3LDE0MS4xMyA1OC4zOSwxNDEuMTMgNTYuNjAsMTQxLjEzIDU0LjgyLDE0MS4xMyA1My4wNCwxNDEuMTMgNTEuMjYsMTQxLjEzIDQ5LjQ3LDE0MS4xMyA0Ny42OSwxNDEuMTMgNDUuOTEsMTQxLjEzIDQ0LjEzLDE0MS4xMyA0Mi4zNCwxNDEuMTMgNDAuNTYsMTQxLjEzIDM4Ljc4LDE0MS4xMyAzNy4wMCwxNDEuMTMgMzUuMjEsMTQxLjEzIDMzLjQzLDE0MS4xMyAzMS42NSwxNDEuMTMgMjkuODcsMTQxLjEzIDI4LjA5LDE0MS4xMyAyNi4zMCwxNDEuMTMgMjQuNTIsMTQxLjEzIDIyLjc0LDE0MS4xMyAyMC45NiwxNDEuMTMgMTkuMTcsMTQxLjEzIDE3LjM5LDE0MS4xMyAxNS42MSwxNDEuMTMgMTMuODMsMTQxLjEzIDEyLjA0LDE0MS4xMyAxMC4yNiwxNDEuMTMgOC40OCwxNDEuMTMgNi43MCwxNDEuMTMgNC45MSwxNDEuMTMgMy4xMywxNDEuMTMiLz4mI3hhOzxwb2x5bGluZSBzdHlsZT0ic3Ryb2tlLXdpZHRoOiAxLjA3OyBzdHJva2U6IG5vbmU7IHN0cm9rZS1saW5lY2FwOiBidXR0OyIgcG9pbnRzPSIzLjEzLDE0MS4wMSA0LjkxLDE0MS4wMSA2LjcwLDE0MS4wMSA4LjQ4LDE0MS4wMSAxMC4yNiwxNDEuMDEgMTIuMDQsMTQxLjAxIDEzLjgzLDE0MS4wMSAxNS42MSwxNDEuMDEgMTcuMzksMTQxLjAxIDE5LjE3LDE0MS4wMSAyMC45NiwxNDEuMDEgMjIuNzQsMTQxLjAxIDI0LjUyLDE0MS4wMSAyNi4zMCwxNDEuMDEgMjguMDksMTQxLjAxIDI5Ljg3LDE0MS4wMSAzMS42NSwxNDEuMDEgMzMuNDMsMTQxLjAxIDM1LjIxLDE0MS4wMSAzNy4wMCwxNDEuMDEgMzguNzgsMTQxLjAxIDQwLjU2LDE0MS4wMSA0Mi4zNCwxNDEuMDEgNDQuMTMsMTQxLjAxIDQ1LjkxLDE0MS4wMSA0Ny42OSwxNDEuMDEgNDkuNDcsMTQxLjAxIDUxLjI2LDE0MS4wMSA1My4wNCwxNDEuMDEgNTQuODIsMTQxLjAxIDU2LjYwLDE0MS4wMSA1OC4zOSwxNDEuMDEgNjAuMTcsMTQxLjAxIDYxLjk1LDE0MS4wMSA2My43MywxNDEuMDEgNjUuNTIsMTQxLjAxIDY3LjMwLDE0MS4wMSA2OS4wOCwxNDEuMDEgNzAuODYsMTQxLjAxIDcyLjY0LDE0MS4wMSA3NC40MywxNDEuMDEgNzYuMjEsMTQxLjAxIDc3Ljk5LDE0MS4wMSA3OS43NywxNDEuMDEgODEuNTYsMTQxLjAxIDgzLjM0LDE0MS4wMSA4NS4xMiwxNDEuMDEgODYuOTAsMTQxLjAxIDg4LjY5LDE0MS4wMSA5MC40NywxNDEuMDEgOTIuMjUsMTQxLjAxIDk0LjAzLDE0MS4wMSA5NS44MiwxNDEuMDEgOTcuNjAsMTQxLjAxIDk5LjM4LDE0MS4wMSAxMDEuMTYsMTQxLjAxIDEwMi45NSwxNDEuMDEgMTA0LjczLDE0MS4wMSAxMDYuNTEsMTQxLjAxIDEwOC4yOSwxNDEuMDEgMTEwLjA3LDE0MS4wMSAxMTEuODYsMTQxLjAwIDExMy42NCwxNDEuMDAgMTE1LjQyLDE0MS4wMCAxMTcuMjAsMTQwLjk5IDExOC45OSwxNDAuOTkgMTIwLjc3LDE0MC45OCAxMjIuNTUsMTQwLjk3IDEyNC4zMywxNDAuOTcgMTI2LjEyLDE0MC45NiAxMjcuOTAsMTQwLjk1IDEyOS42OCwxNDAuOTQgMTMxLjQ2LDE0MC45MyAxMzMuMjUsMTQwLjkyIDEzNS4wMywxNDAuOTAgMTM2LjgxLDE0MC44OSAxMzguNTksMTQwLjg3IDE0MC4zOCwxNDAuODUgMTQyLjE2LDE0MC44MiAxNDMuOTQsMTQwLjgwIDE0NS43MiwxNDAuNzcgMTQ3LjUwLDE0MC43NCAxNDkuMjksMTQwLjcxIDE1MS4wNywxNDAuNjcgMTUyLjg1LDE0MC42MiAxNTQuNjMsMTQwLjU3IDE1Ni40MiwxNDAuNTIgMTU4LjIwLDE0MC40NiAxNTkuOTgsMTQwLjM5IDE2MS43NiwxNDAuMzEgMTYzLjU1LDE0MC4yMyAxNjUuMzMsMTQwLjEzIDE2Ny4xMSwxNDAuMDMgMTY4Ljg5LDEzOS45MSAxNzAuNjgsMTM5Ljc4IDE3Mi40NiwxMzkuNjQgMTc0LjI0LDEzOS40OSAxNzYuMDIsMTM5LjMyIDE3Ny44MSwxMzkuMTQgMTc5LjU5LDEzOC45NSAxODEuMzcsMTM4Ljc0IDE4My4xNSwxMzguNTIgMTg0LjkzLDEzOC4yNyAxODYuNzIsMTM4LjAyIDE4OC41MCwxMzcuNzUgMTkwLjI4LDEzNy40NiAxOTIuMDYsMTM3LjE2IDE5My44NSwxMzYuODQgMTk1LjYzLDEzNi41MSAxOTcuNDEsMTM2LjE3IDE5OS4xOSwxMzUuODIgMjAwLjk4LDEzNS40NSAyMDIuNzYsMTM1LjA2IDIwNC41NCwxMzQuNjcgMjA2LjMyLDEzNC4yNiAyMDguMTEsMTMzLjg0IDIwOS44OSwxMzMuNDEgMjExLjY3LDEzMi45NyAyMTMuNDUsMTMyLjUyIDIxNS4yNCwxMzIuMDUgMjE3LjAyLDEzMS41OCAyMTguODAsMTMxLjA5IDIyMC41OCwxMzAuNjAgMjIyLjM2LDEzMC4xMSAyMjQuMTUsMTI5LjYxIDIyNS45MywxMjkuMTIgMjI3LjcxLDEyOC42NCAyMjkuNDksMTI4LjE3IDIzMS4yOCwxMjcuNzEgMjMzLjA2LDEyNy4yNyAyMzQuODQsMTI2Ljg1IDIzNi42MiwxMjYuNDYgMjM4LjQxLDEyNi4xMCAyNDAuMTksMTI1Ljc3IDI0MS45NywxMjUuNDcgMjQzLjc1LDEyNS4yMiAyNDUuNTQsMTI1LjAwIDI0Ny4zMiwxMjQuODQgMjQ5LjEwLDEyNC43MiAyNTAuODgsMTI0LjY2IDI1Mi42NywxMjQuNjUgMjU0LjQ1LDEyNC43MSAyNTYuMjMsMTI0LjgzIDI1OC4wMSwxMjUuMDEgMjU5Ljc5LDEyNS4yNiAyNjEuNTgsMTI1LjU5IDI2My4zNiwxMjUuOTkgMjY1LjE0LDEyNi40NyAyNjYuOTIsMTI3LjAzIDI2OC43MSwxMjcuNjggMjcwLjQ5LDEyOC40MSAyNzIuMjcsMTI5LjIzIDI3NC4wNSwxMzAuMTQgMjc1Ljg0LDEzMS4xNSAyNzcuNjIsMTMyLjI2IDI3OS40MCwxMzMuNDcgMjgxLjE4LDEzNC43OCAyODIuOTcsMTM2LjIwIDI4NC43NSwxMzcuNzMgMjg2LjUzLDEzOS4zNyAyODguMzEsMTQxLjAxIDI5MC4xMCwxMzguNzYgMjkxLjg4LDEzNi43MCAyOTMuNjYsMTM0LjkyIDI5NS40NCwxMzMuNDIgMjk3LjIyLDEzMi4xNyAyOTkuMDEsMTMxLjE2IDMwMC43OSwxMzAuMzcgMzAyLjU3LDEyOS43OSAzMDQuMzUsMTI5LjQwIDMwNi4xNCwxMjkuMTkgMzA3LjkyLDEyOS4xMyAzMDkuNzAsMTI5LjIxIDMxMS40OCwxMjkuNDEgMzEzLjI3LDEyOS43MCAzMTUuMDUsMTMwLjA2IDMxNi44MywxMzAuNDcgMzE4LjYxLDEzMC45MCAzMjAuNDAsMTMxLjM1IDMyMi4xOCwxMzEuNzggMzIzLjk2LDEzMi4xNyAzMjUuNzQsMTMyLjUxIDMyNy41MywxMzIuODAgMzI5LjMxLDEzMy4wNCAzMzEuMDksMTMzLjI1IDMzMi44NywxMzMuNDEgMzM0LjY1LDEzMy41NSAzMzYuNDQsMTMzLjY3IDMzOC4yMiwxMzMuNzggMzQwLjAwLDEzMy44NyAzNDEuNzgsMTMzLjk3IDM0My41NywxMzQuMDYgMzQ1LjM1LDEzNC4xNiAzNDcuMTMsMTM0LjI2IDM0OC45MSwxMzQuMzcgMzUwLjcwLDEzNC40OCAzNTIuNDgsMTM0LjYwIDM1NC4yNiwxMzQuNzMgMzU2LjA0LDEzNC44NyAzNTcuODMsMTM1LjAxIDM1OS42MSwxMzUuMTYiLz4mI3hhOzxwb2x5bGluZSBzdHlsZT0ic3Ryb2tlLXdpZHRoOiAxLjA3OyBzdHJva2U6IG5vbmU7IHN0cm9rZS1saW5lY2FwOiBidXR0OyIgcG9pbnRzPSIzNTkuNjEsMTQxLjEzIDM1Ny44MywxNDEuMTMgMzU2LjA0LDE0MS4xMyAzNTQuMjYsMTQxLjEzIDM1Mi40OCwxNDEuMTMgMzUwLjcwLDE0MS4xMyAzNDguOTEsMTQxLjEzIDM0Ny4xMywxNDEuMTMgMzQ1LjM1LDE0MS4xMyAzNDMuNTcsMTQxLjEzIDM0MS43OCwxNDEuMTMgMzQwLjAwLDE0MS4xMyAzMzguMjIsMTQxLjEzIDMzNi40NCwxNDEuMTMgMzM0LjY1LDE0MS4xMyAzMzIuODcsMTQxLjEzIDMzMS4wOSwxNDEuMTMgMzI5LjMxLDE0MS4xMyAzMjcuNTMsMTQxLjEzIDMyNS43NCwxNDEuMTMgMzIzLjk2LDE0MS4xMyAzMjIuMTgsMTQxLjEzIDMyMC40MCwxNDEuMTMgMzE4LjYxLDE0MS4xMyAzMTYuODMsMTQxLjEzIDMxNS4wNSwxNDEuMTMgMzEzLjI3LDE0MS4xMyAzMTEuNDgsMTQxLjEzIDMwOS43MCwxNDEuMTMgMzA3LjkyLDE0MS4xMyAzMDYuMTQsMTQxLjEzIDMwNC4zNSwxNDEuMTMgMzAyLjU3LDE0MS4xMyAzMDAuNzksMTQxLjEzIDI5OS4wMSwxNDEuMTMgMjk3LjIyLDE0MS4xMyAyOTUuNDQsMTQxLjEzIDI5My42NiwxNDEuMTMgMjkxLjg4LDE0MS4xMyAyOTAuMTAsMTQxLjEzIDI4OC4zMSwxNDEuMTMgMjg2LjUzLDE0MS4xMyAyODQuNzUsMTQxLjEzIDI4Mi45NywxNDEuMTMgMjgxLjE4LDE0MS4xMyAyNzkuNDAsMTQxLjEzIDI3Ny42MiwxNDEuMTMgMjc1Ljg0LDE0MS4xMyAyNzQuMDUsMTQxLjEzIDI3Mi4yNywxNDEuMTMgMjcwLjQ5LDE0MS4xMyAyNjguNzEsMTQxLjEzIDI2Ni45MiwxNDEuMTMgMjY1LjE0LDE0MS4xMyAyNjMuMzYsMTQxLjEzIDI2MS41OCwxNDEuMTMgMjU5Ljc5LDE0MS4xMyAyNTguMDEsMTQxLjEzIDI1Ni4yMywxNDEuMTMgMjU0LjQ1LDE0MS4xMyAyNTIuNjcsMTQxLjEzIDI1MC44OCwxNDEuMTMgMjQ5LjEwLDE0MS4xMyAyNDcuMzIsMTQxLjEzIDI0NS41NCwxNDEuMTMgMjQzLjc1LDE0MS4xMyAyNDEuOTcsMTQxLjEzIDI0MC4xOSwxNDEuMTMgMjM4LjQxLDE0MS4xMyAyMzYuNjIsMTQxLjEzIDIzNC44NCwxNDEuMTMgMjMzLjA2LDE0MS4xMyAyMzEuMjgsMTQxLjEzIDIyOS40OSwxNDEuMTMgMjI3LjcxLDE0MS4xMyAyMjUuOTMsMTQxLjEzIDIyNC4xNSwxNDEuMTMgMjIyLjM2LDE0MS4xMyAyMjAuNTgsMTQxLjEzIDIxOC44MCwxNDEuMTMgMjE3LjAyLDE0MS4xMyAyMTUuMjQsMTQxLjEzIDIxMy40NSwxNDEuMTMgMjExLjY3LDE0MS4xMyAyMDkuODksMTQxLjEzIDIwOC4xMSwxNDEuMTMgMjA2LjMyLDE0MS4xMyAyMDQuNTQsMTQxLjEzIDIwMi43NiwxNDEuMTMgMjAwLjk4LDE0MS4xMyAxOTkuMTksMTQxLjEzIDE5Ny40MSwxNDEuMTMgMTk1LjYzLDE0MS4xMyAxOTMuODUsMTQxLjEzIDE5Mi4wNiwxNDEuMTMgMTkwLjI4LDE0MS4xMyAxODguNTAsMTQxLjEzIDE4Ni43MiwxNDEuMTMgMTg0LjkzLDE0MS4xMyAxODMuMTUsMTQxLjEzIDE4MS4zNywxNDEuMTMgMTc5LjU5LDE0MS4xMyAxNzcuODEsMTQxLjEzIDE3Ni4wMiwxNDEuMTMgMTc0LjI0LDE0MS4xMyAxNzIuNDYsMTQxLjEzIDE3MC42OCwxNDEuMTMgMTY4Ljg5LDE0MS4xMyAxNjcuMTEsMTQxLjEzIDE2NS4zMywxNDEuMTMgMTYzLjU1LDE0MS4xMyAxNjEuNzYsMTQxLjEzIDE1OS45OCwxNDEuMTMgMTU4LjIwLDE0MS4xMyAxNTYuNDIsMTQxLjEzIDE1NC42MywxNDEuMTMgMTUyLjg1LDE0MS4xMyAxNTEuMDcsMTQxLjEzIDE0OS4yOSwxNDEuMTMgMTQ3LjUwLDE0MS4xMyAxNDUuNzIsMTQxLjEzIDE0My45NCwxNDEuMTMgMTQyLjE2LDE0MS4xMyAxNDAuMzgsMTQxLjEzIDEzOC41OSwxNDEuMTMgMTM2LjgxLDE0MS4xMyAxMzUuMDMsMTQxLjEzIDEzMy4yNSwxNDEuMTMgMTMxLjQ2LDE0MS4xMyAxMjkuNjgsMTQxLjEzIDEyNy45MCwxNDEuMTMgMTI2LjEyLDE0MS4xMyAxMjQuMzMsMTQxLjEzIDEyMi41NSwxNDEuMTMgMTIwLjc3LDE0MS4xMyAxMTguOTksMTQxLjEzIDExNy4yMCwxNDEuMTMgMTE1LjQyLDE0MS4xMyAxMTMuNjQsMTQxLjEzIDExMS44NiwxNDEuMTMgMTEwLjA3LDE0MS4xMyAxMDguMjksMTQxLjEzIDEwNi41MSwxNDEuMTMgMTA0LjczLDE0MS4xMyAxMDIuOTUsMTQxLjEzIDEwMS4xNiwxNDEuMTMgOTkuMzgsMTQxLjEzIDk3LjYwLDE0MS4xMyA5NS44MiwxNDEuMTMgOTQuMDMsMTQxLjEzIDkyLjI1LDE0MS4xMyA5MC40NywxNDEuMTMgODguNjksMTQxLjEzIDg2LjkwLDE0MS4xMyA4NS4xMiwxNDEuMTMgODMuMzQsMTQxLjEzIDgxLjU2LDE0MS4xMyA3OS43NywxNDEuMTMgNzcuOTksMTQxLjEzIDc2LjIxLDE0MS4xMyA3NC40MywxNDEuMTMgNzIuNjQsMTQxLjEzIDcwLjg2LDE0MS4xMyA2OS4wOCwxNDEuMTMgNjcuMzAsMTQxLjEzIDY1LjUyLDE0MS4xMyA2My43MywxNDEuMTMgNjEuOTUsMTQxLjEzIDYwLjE3LDE0MS4xMyA1OC4zOSwxNDEuMTMgNTYuNjAsMTQxLjEzIDU0LjgyLDE0MS4xMyA1My4wNCwxNDEuMTMgNTEuMjYsMTQxLjEzIDQ5LjQ3LDE0MS4xMyA0Ny42OSwxNDEuMTMgNDUuOTEsMTQxLjEzIDQ0LjEzLDE0MS4xMyA0Mi4zNCwxNDEuMTMgNDAuNTYsMTQxLjEzIDM4Ljc4LDE0MS4xMyAzNy4wMCwxNDEuMTMgMzUuMjEsMTQxLjEzIDMzLjQzLDE0MS4xMyAzMS42NSwxNDEuMTMgMjkuODcsMTQxLjEzIDI4LjA5LDE0MS4xMyAyNi4zMCwxNDEuMTMgMjQuNTIsMTQxLjEzIDIyLjc0LDE0MS4xMyAyMC45NiwxNDEuMTMgMTkuMTcsMTQxLjEzIDE3LjM5LDE0MS4xMyAxNS42MSwxNDEuMTMgMTMuODMsMTQxLjEzIDEyLjA0LDE0MS4xMyAxMC4yNiwxNDEuMTMgOC40OCwxNDEuMTMgNi43MCwxNDEuMTMgNC45MSwxNDEuMTMgMy4xMywxNDEuMTMiLz4mI3hhOzwvZz4mI3hhOzxnIGNsaXAtcGF0aD0idXJsKCNjcE1DNHdNSHd6TmpBdU1EQjhNQzR3TUh3ME16SXVNREE9KSI+JiN4YTs8L2c+JiN4YTs8ZGVmcz4mI3hhOyAgPGNsaXBQYXRoIGlkPSJjcE1DNHdNSHd6TmpBdU1EQjhNVFEwTGpBd2ZESTRPQzR3TUE9PSI+JiN4YTsgICAgPHJlY3QgaGVpZ2h0PSIxNDQuMDAiIHdpZHRoPSIzNjAuMDAiIHk9IjE0NC4wMCIgeD0iMC4wMCIvPiYjeGE7ICA8L2NsaXBQYXRoPiYjeGE7PC9kZWZzPiYjeGE7PGcgY2xpcC1wYXRoPSJ1cmwoI2NwTUM0d01Id3pOakF1TURCOE1UUTBMakF3ZkRJNE9DNHdNQT09KSI+JiN4YTs8cmVjdCBzdHlsZT0ic3Ryb2tlLXdpZHRoOiAxLjA3OyBzdHJva2U6ICNGRkZGRkY7IGZpbGw6ICNGRkZGRkY7IiBoZWlnaHQ9IjE0NC4wMCIgd2lkdGg9IjM2MC4wMCIgeT0iMTQ0LjAwIiB4PSIwLjAwIi8+JiN4YTs8L2c+JiN4YTs8ZyBjbGlwLXBhdGg9InVybCgjY3BNQzR3TUh3ek5qQXVNREI4TUM0d01IdzBNekl1TURBPSkiPiYjeGE7PC9nPiYjeGE7PGRlZnM+JiN4YTsgIDxjbGlwUGF0aCBpZD0iY3BNaTQzTkh3ek5qQXVNREI4TVRZMUxqWXdmREk0TlM0eU5nPT0iPiYjeGE7ICAgIDxyZWN0IGhlaWdodD0iMTE5LjY2IiB3aWR0aD0iMzU3LjI2IiB5PSIxNjUuNjAiIHg9IjIuNzQiLz4mI3hhOyAgPC9jbGlwUGF0aD4mI3hhOzwvZGVmcz4mI3hhOzxnIGNsaXAtcGF0aD0idXJsKCNjcE1pNDNOSHd6TmpBdU1EQjhNVFkxTGpZd2ZESTROUzR5Tmc9PSkiPiYjeGE7PHJlY3Qgc3R5bGU9InN0cm9rZS13aWR0aDogMS4wNzsgZmlsbDogI0ZGRkZGRjsiIGhlaWdodD0iMTE5LjY2IiB3aWR0aD0iMzU3LjI2IiB5PSIxNjUuNjAiIHg9IjIuNzQiLz4mI3hhOzxwb2x5Z29uIHN0eWxlPSJzdHJva2Utd2lkdGg6IDAuMDA7IHN0cm9rZTogbm9uZTsgc3Ryb2tlLWxpbmVjYXA6IGJ1dHQ7IGZpbGw6ICNEMUU4RkY7IiBwb2ludHM9IjMuMTMsMTgzLjY0IDQuOTEsMTgzLjgzIDYuNzAsMTg0LjA5IDguNDgsMTg0LjQxIDEwLjI2LDE4NC43OSAxMi4wNCwxODUuMjIgMTMuODMsMTg1LjcxIDE1LjYxLDE4Ni4yNCAxNy4zOSwxODYuODIgMTkuMTcsMTg3LjQ0IDIwLjk2LDE4OC4wOSAyMi43NCwxODguNzcgMjQuNTIsMTg5LjQ3IDI2LjMwLDE5MC4yMCAyOC4wOSwxOTAuOTUgMjkuODcsMTkxLjcxIDMxLjY1LDE5Mi40OCAzMy40MywxOTMuMjYgMzUuMjEsMTk0LjA0IDM3LjAwLDE5NC44MSAzOC43OCwxOTUuNTggNDAuNTYsMTk2LjM0IDQyLjM0LDE5Ny4wOCA0NC4xMywxOTcuNzkgNDUuOTEsMTk4LjQ4IDQ3LjY5LDE5OS4xMiA0OS40NywxOTkuNzIgNTEuMjYsMjAwLjI3IDUzLjA0LDIwMC43NyA1NC44MiwyMDEuMTkgNTYuNjAsMjAxLjU1IDU4LjM5LDIwMS44MyA2MC4xNywyMDIuMDYgNjEuOTUsMjAyLjI0IDYzLjczLDIwMi40MCA2NS41MiwyMDIuNTYgNjcuMzAsMjAyLjc0IDY5LjA4LDIwMi45NiA3MC44NiwyMDMuMjIgNzIuNjQsMjAzLjU1IDc0LjQzLDIwMy45NCA3Ni4yMSwyMDMuNDggNzcuOTksMjAzLjAzIDc5Ljc3LDIwMi42MCA4MS41NiwyMDIuMTcgODMuMzQsMjAxLjc2IDg1LjEyLDIwMS4zNiA4Ni45MCwyMDAuOTYgODguNjksMjAwLjU4IDkwLjQ3LDIwMC4yMSA5Mi4yNSwxOTkuODUgOTQuMDMsMTk5LjQ5IDk1LjgyLDE5OS4xNSA5Ny42MCwxOTguODIgOTkuMzgsMTk4LjUwIDEwMS4xNiwxOTguMTkgMTAyLjk1LDE5Ny44OSAxMDQuNzMsMTk3LjU5IDEwNi41MSwxOTcuMzEgMTA4LjI5LDE5Ny4wNCAxMTAuMDcsMTk2Ljc3IDExMS44NiwxOTYuNTIgMTEzLjY0LDE5Ni4yOCAxMTUuNDIsMTk2LjA0IDExNy4yMCwxOTUuODAgMTE4Ljk5LDE5NS41OCAxMjAuNzcsMTk1LjM1IDEyMi41NSwxOTUuMTMgMTI0LjMzLDE5NC45MSAxMjYuMTIsMTk0LjcwIDEyNy45MCwxOTQuNDggMTI5LjY4LDE5NC4yNSAxMzEuNDYsMTk0LjAzIDEzMy4yNSwxOTMuODAgMTM1LjAzLDE5My41NyAxMzYuODEsMTkzLjMzIDEzOC41OSwxOTMuMDggMTQwLjM4LDE5Mi44MyAxNDIuMTYsMTkyLjU2IDE0My45NCwxOTIuMjkgMTQ1LjcyLDE5Mi4wMCAxNDcuNTAsMTkxLjcwIDE0OS4yOSwxOTEuMzkgMTUxLjA3LDE5MS4wNiAxNTIuODUsMTkwLjc0IDE1NC42MywxOTAuNDAgMTU2LjQyLDE5MC4wNiAxNTguMjAsMTg5LjcxIDE1OS45OCwxODkuMzcgMTYxLjc2LDE4OS4wMiAxNjMuNTUsMTg4LjY4IDE2NS4zMywxODguMzQgMTY3LjExLDE4OC4wMCAxNjguODksMTg3LjY3IDE3MC42OCwxODcuMzUgMTcyLjQ2LDE4Ny4wNCAxNzQuMjQsMTg2Ljc0IDE3Ni4wMiwxODYuNDUgMTc3LjgxLDE4Ni4xOCAxNzkuNTksMTg1LjkyIDE4MS4zNywxODUuNjggMTgzLjE1LDE4NS40NyAxODQuOTMsMTg1LjI3IDE4Ni43MiwxODUuMTAgMTg4LjUwLDE4NC45NSAxOTAuMjgsMTg0LjgyIDE5Mi4wNiwxODQuNzMgMTkzLjg1LDE4NC42NiAxOTUuNjMsMTg0LjYzIDE5Ny40MSwxODQuNjIgMTk5LjE5LDE4NC42NiAyMDAuOTgsMTg0LjcyIDIwMi43NiwxODQuODMgMjA0LjU0LDE4NC45NyAyMDYuMzIsMTg1LjE2IDIwOC4xMSwxODUuMzkgMjA5Ljg5LDE4NS42NiAyMTEuNjcsMTg1Ljk4IDIxMy40NSwxODYuMzQgMjE1LjI0LDE4Ni43NiAyMTcuMDIsMTg3LjIyIDIxOC44MCwxODcuNzQgMjIwLjU4LDE4OC4zMiAyMjIuMzYsMTg4Ljk3IDIyNC4xNSwxODkuNzAgMjI1LjkzLDE5MC41MSAyMjcuNzEsMTkxLjQyIDIyOS40OSwxOTIuNDMgMjMxLjI4LDE5My41NiAyMzMuMDYsMTk0LjgwIDIzNC44NCwxOTYuMTggMjM2LjYyLDE5Ny42OSAyMzguNDEsMTk5LjM1IDI0MC4xOSwyMDEuMTUgMjQxLjk3LDIwMy4xMCAyNDMuNzUsMjA1LjIxIDI0NS41NCwyMDcuNDggMjQ3LjMyLDIwOS45MiAyNDkuMTAsMjEyLjUzIDI1MC44OCwyMTUuMzEgMjUyLjY3LDIxOC4yNyAyNTQuNDUsMjE5LjU0IDI1Ni4yMywyMjAuODAgMjU4LjAxLDIyMi4wNCAyNTkuNzksMjIzLjI2IDI2MS41OCwyMjQuNDYgMjYzLjM2LDIyNS42NSAyNjUuMTQsMjI2LjgxIDI2Ni45MiwyMjcuOTYgMjY4LjcxLDIyOS4wOSAyNzAuNDksMjMwLjIxIDI3Mi4yNywyMzEuMzAgMjc0LjA1LDIzMi4zOCAyNzUuODQsMjMzLjQ0IDI3Ny42MiwyMzQuNDggMjc5LjQwLDIzNS41MCAyODEuMTgsMjM2LjUxIDI4Mi45NywyMzcuNTAgMjg0Ljc1LDIzOC40NyAyODYuNTMsMjM5LjQyIDI4OC4zMSwyNDAuMzUgMjkwLjEwLDI0MC4zOSAyOTEuODgsMjQwLjQxIDI5My42NiwyNDAuNDEgMjk1LjQ0LDI0MC40MCAyOTcuMjIsMjQwLjM3IDI5OS4wMSwyNDAuMzEgMzAwLjc5LDI0MC4yMyAzMDIuNTcsMjQwLjExIDMwNC4zNSwyMzkuOTUgMzA2LjE0LDIzOS43NiAzMDcuOTIsMjM5LjUyIDMwOS43MCwyMzkuMjQgMzExLjQ4LDIzOC45MiAzMTMuMjcsMjM4LjU2IDMxNS4wNSwyMzguMTcgMzE2LjgzLDIzNy43MyAzMTguNjEsMjM3LjIxIDMyMC40MCwyMzYuNTkgMzIyLjE4LDIzNS44NSAzMjMuOTYsMjM0Ljk4IDMyNS43NCwyMzMuOTUgMzI3LjUzLDIzMi43OCAzMjkuMzEsMjMxLjQ3IDMzMS4wOSwyMzAuMDMgMzMyLjg3LDIyOC40OCAzMzQuNjUsMjI2LjgzIDMzNi40NCwyMjUuMDkgMzM4LjIyLDIyMy4yOCAzNDAuMDAsMjIxLjQwIDM0MS43OCwyMTkuNDYgMzQzLjU3LDIxNy40OCAzNDUuMzUsMjE1LjQ3IDM0Ny4xMywyMTMuNDMgMzQ4LjkxLDIxMS4zOCAzNTAuNzAsMjA5LjMyIDM1Mi40OCwyMDcuMjYgMzU0LjI2LDIwNS4yMCAzNTYuMDQsMjAzLjE2IDM1Ny44MywyMDEuMTUgMzU5LjYxLDE5OS4xNiAzNTkuNjEsMjMyLjU5IDM1Ny44MywyMzQuMzMgMzU2LjA0LDIzNS45NyAzNTQuMjYsMjM3LjUxIDM1Mi40OCwyMzguOTYgMzUwLjcwLDI0MC4zMSAzNDguOTEsMjQxLjU3IDM0Ny4xMywyNDIuNzQgMzQ1LjM1LDI0My44MyAzNDMuNTcsMjQ0LjgyIDM0MS43OCwyNDUuNzMgMzQwLjAwLDI0Ni41NSAzMzguMjIsMjQ3LjI5IDMzNi40NCwyNDcuOTUgMzM0LjY1LDI0OC41MyAzMzIuODcsMjQ5LjAzIDMzMS4wOSwyNDkuNDUgMzI5LjMxLDI0OS44MCAzMjcuNTMsMjUwLjA3IDMyNS43NCwyNTAuMjcgMzIzLjk2LDI1MC40MCAzMjIuMTgsMjUwLjQ2IDMyMC40MCwyNTAuNDYgMzE4LjYxLDI1MC4zOCAzMTYuODMsMjUwLjI0IDMxNS4wNSwyNTAuMDQgMzEzLjI3LDI0OS43NyAzMTEuNDgsMjQ5LjQ0IDMwOS43MCwyNDkuMDYgMzA3LjkyLDI0OC42MiAzMDYuMTQsMjQ4LjEyIDMwNC4zNSwyNDcuNTYgMzAyLjU3LDI0Ni45NSAzMDAuNzksMjQ2LjI5IDI5OS4wMSwyNDUuNTggMjk3LjIyLDI0NC44MyAyOTUuNDQsMjQ0LjAyIDI5My42NiwyNDMuMTcgMjkxLjg4LDI0Mi4yNyAyOTAuMTAsMjQxLjMzIDI4OC4zMSwyNDAuMzUgMjg2LjUzLDIzOS42NSAyODQuNzUsMjM4LjkwIDI4Mi45NywyMzguMTEgMjgxLjE4LDIzNy4yNyAyNzkuNDAsMjM2LjQwIDI3Ny42MiwyMzUuNDggMjc1Ljg0LDIzNC41MyAyNzQuMDUsMjMzLjUzIDI3Mi4yNywyMzIuNDggMjcwLjQ5LDIzMS40MCAyNjguNzEsMjMwLjI3IDI2Ni45MiwyMjkuMTEgMjY1LjE0LDIyNy45MCAyNjMuMzYsMjI2LjY1IDI2MS41OCwyMjUuMzYgMjU5Ljc5LDIyNC4wMiAyNTguMDEsMjIyLjY1IDI1Ni4yMywyMjEuMjMgMjU0LjQ1LDIxOS43NyAyNTIuNjcsMjE4LjI3IDI1MC44OCwyMTcuNDMgMjQ5LjEwLDIxNi42MyAyNDcuMzIsMjE1Ljg3IDI0NS41NCwyMTUuMTQgMjQzLjc1LDIxNC40NCAyNDEuOTcsMjEzLjc3IDI0MC4xOSwyMTMuMTQgMjM4LjQxLDIxMi41MyAyMzYuNjIsMjExLjk2IDIzNC44NCwyMTEuNDIgMjMzLjA2LDIxMC45MSAyMzEuMjgsMjEwLjQyIDIyOS40OSwyMDkuOTcgMjI3LjcxLDIwOS41NCAyMjUuOTMsMjA5LjE0IDIyNC4xNSwyMDguNzYgMjIyLjM2LDIwOC40MiAyMjAuNTgsMjA4LjA5IDIxOC44MCwyMDcuNzkgMjE3LjAyLDIwNy41MiAyMTUuMjQsMjA3LjI3IDIxMy40NSwyMDcuMDQgMjExLjY3LDIwNi44NCAyMDkuODksMjA2LjY1IDIwOC4xMSwyMDYuNDkgMjA2LjMyLDIwNi4zNCAyMDQuNTQsMjA2LjIxIDIwMi43NiwyMDYuMTEgMjAwLjk4LDIwNi4wMiAxOTkuMTksMjA1Ljk0IDE5Ny40MSwyMDUuODggMTk1LjYzLDIwNS44NCAxOTMuODUsMjA1LjgxIDE5Mi4wNiwyMDUuNzkgMTkwLjI4LDIwNS43OSAxODguNTAsMjA1LjgwIDE4Ni43MiwyMDUuODIgMTg0LjkzLDIwNS44NSAxODMuMTUsMjA1Ljg5IDE4MS4zNywyMDUuOTMgMTc5LjU5LDIwNS45OSAxNzcuODEsMjA2LjA1IDE3Ni4wMiwyMDYuMTIgMTc0LjI0LDIwNi4yMCAxNzIuNDYsMjA2LjI4IDE3MC42OCwyMDYuMzYgMTY4Ljg5LDIwNi40NSAxNjcuMTEsMjA2LjU0IDE2NS4zMywyMDYuNjMgMTYzLjU1LDIwNi43MiAxNjEuNzYsMjA2LjgxIDE1OS45OCwyMDYuOTAgMTU4LjIwLDIwNi45OSAxNTYuNDIsMjA3LjA4IDE1NC42MywyMDcuMTcgMTUyLjg1LDIwNy4yNSAxNTEuMDcsMjA3LjMyIDE0OS4yOSwyMDcuNDAgMTQ3LjUwLDIwNy40NiAxNDUuNzIsMjA3LjUyIDE0My45NCwyMDcuNTcgMTQyLjE2LDIwNy42MiAxNDAuMzgsMjA3LjY2IDEzOC41OSwyMDcuNjkgMTM2LjgxLDIwNy43MyAxMzUuMDMsMjA3Ljc2IDEzMy4yNSwyMDcuNzkgMTMxLjQ2LDIwNy44MiAxMjkuNjgsMjA3Ljg1IDEyNy45MCwyMDcuODkgMTI2LjEyLDIwNy45MyAxMjQuMzMsMjA3Ljk4IDEyMi41NSwyMDguMDMgMTIwLjc3LDIwOC4xMCAxMTguOTksMjA4LjE3IDExNy4yMCwyMDguMjUgMTE1LjQyLDIwOC4zNSAxMTMuNjQsMjA4LjQ2IDExMS44NiwyMDguNTggMTEwLjA3LDIwOC43MSAxMDguMjksMjA4Ljg3IDEwNi41MSwyMDkuMDMgMTA0LjczLDIwOS4xOSAxMDIuOTUsMjA5LjM0IDEwMS4xNiwyMDkuNDggOTkuMzgsMjA5LjU5IDk3LjYwLDIwOS42NyA5NS44MiwyMDkuNzEgOTQuMDMsMjA5LjY5IDkyLjI1LDIwOS42MiA5MC40NywyMDkuNDkgODguNjksMjA5LjI4IDg2LjkwLDIwOC45OCA4NS4xMiwyMDguNjAgODMuMzQsMjA4LjExIDgxLjU2LDIwNy41MiA3OS43NywyMDYuODEgNzcuOTksMjA1Ljk4IDc2LjIxLDIwNS4wMyA3NC40MywyMDMuOTQgNzIuNjQsMjA0LjUzIDcwLjg2LDIwNS4wOCA2OS4wOCwyMDUuNTkgNjcuMzAsMjA2LjA2IDY1LjUyLDIwNi40OSA2My43MywyMDYuODkgNjEuOTUsMjA3LjI1IDYwLjE3LDIwNy41NyA1OC4zOSwyMDcuODYgNTYuNjAsMjA4LjEyIDU0LjgyLDIwOC4zNSA1My4wNCwyMDguNTUgNTEuMjYsMjA4LjcyIDQ5LjQ3LDIwOC44NyA0Ny42OSwyMDguOTkgNDUuOTEsMjA5LjEwIDQ0LjEzLDIwOS4xOCA0Mi4zNCwyMDkuMjQgNDAuNTYsMjA5LjI4IDM4Ljc4LDIwOS4zMSAzNy4wMCwyMDkuMzIgMzUuMjEsMjA5LjMyIDMzLjQzLDIwOS4zMSAzMS42NSwyMDkuMjkgMjkuODcsMjA5LjI2IDI4LjA5LDIwOS4yMiAyNi4zMCwyMDkuMTcgMjQuNTIsMjA5LjEyIDIyLjc0LDIwOS4wNyAyMC45NiwyMDkuMDEgMTkuMTcsMjA4Ljk2IDE3LjM5LDIwOC45MSAxNS42MSwyMDguODYgMTMuODMsMjA4LjgxIDEyLjA0LDIwOC43NyAxMC4yNiwyMDguNzQgOC40OCwyMDguNzIgNi43MCwyMDguNzAgNC45MSwyMDguNzAgMy4xMywyMDguNzEiLz4mI3hhOzxwb2x5bGluZSBzdHlsZT0ic3Ryb2tlLXdpZHRoOiAxLjA3OyBzdHJva2U6IG5vbmU7IHN0cm9rZS1saW5lY2FwOiBidXR0OyIgcG9pbnRzPSIzLjEzLDE4My42NCA0LjkxLDE4My44MyA2LjcwLDE4NC4wOSA4LjQ4LDE4NC40MSAxMC4yNiwxODQuNzkgMTIuMDQsMTg1LjIyIDEzLjgzLDE4NS43MSAxNS42MSwxODYuMjQgMTcuMzksMTg2LjgyIDE5LjE3LDE4Ny40NCAyMC45NiwxODguMDkgMjIuNzQsMTg4Ljc3IDI0LjUyLDE4OS40NyAyNi4zMCwxOTAuMjAgMjguMDksMTkwLjk1IDI5Ljg3LDE5MS43MSAzMS42NSwxOTIuNDggMzMuNDMsMTkzLjI2IDM1LjIxLDE5NC4wNCAzNy4wMCwxOTQuODEgMzguNzgsMTk1LjU4IDQwLjU2LDE5Ni4zNCA0Mi4zNCwxOTcuMDggNDQuMTMsMTk3Ljc5IDQ1LjkxLDE5OC40OCA0Ny42OSwxOTkuMTIgNDkuNDcsMTk5LjcyIDUxLjI2LDIwMC4yNyA1My4wNCwyMDAuNzcgNTQuODIsMjAxLjE5IDU2LjYwLDIwMS41NSA1OC4zOSwyMDEuODMgNjAuMTcsMjAyLjA2IDYxLjk1LDIwMi4yNCA2My43MywyMDIuNDAgNjUuNTIsMjAyLjU2IDY3LjMwLDIwMi43NCA2OS4wOCwyMDIuOTYgNzAuODYsMjAzLjIyIDcyLjY0LDIwMy41NSA3NC40MywyMDMuOTQgNzYuMjEsMjAzLjQ4IDc3Ljk5LDIwMy4wMyA3OS43NywyMDIuNjAgODEuNTYsMjAyLjE3IDgzLjM0LDIwMS43NiA4NS4xMiwyMDEuMzYgODYuOTAsMjAwLjk2IDg4LjY5LDIwMC41OCA5MC40NywyMDAuMjEgOTIuMjUsMTk5Ljg1IDk0LjAzLDE5OS40OSA5NS44MiwxOTkuMTUgOTcuNjAsMTk4LjgyIDk5LjM4LDE5OC41MCAxMDEuMTYsMTk4LjE5IDEwMi45NSwxOTcuODkgMTA0LjczLDE5Ny41OSAxMDYuNTEsMTk3LjMxIDEwOC4yOSwxOTcuMDQgMTEwLjA3LDE5Ni43NyAxMTEuODYsMTk2LjUyIDExMy42NCwxOTYuMjggMTE1LjQyLDE5Ni4wNCAxMTcuMjAsMTk1LjgwIDExOC45OSwxOTUuNTggMTIwLjc3LDE5NS4zNSAxMjIuNTUsMTk1LjEzIDEyNC4zMywxOTQuOTEgMTI2LjEyLDE5NC43MCAxMjcuOTAsMTk0LjQ4IDEyOS42OCwxOTQuMjUgMTMxLjQ2LDE5NC4wMyAxMzMuMjUsMTkzLjgwIDEzNS4wMywxOTMuNTcgMTM2LjgxLDE5My4zMyAxMzguNTksMTkzLjA4IDE0MC4zOCwxOTIuODMgMTQyLjE2LDE5Mi41NiAxNDMuOTQsMTkyLjI5IDE0NS43MiwxOTIuMDAgMTQ3LjUwLDE5MS43MCAxNDkuMjksMTkxLjM5IDE1MS4wNywxOTEuMDYgMTUyLjg1LDE5MC43NCAxNTQuNjMsMTkwLjQwIDE1Ni40MiwxOTAuMDYgMTU4LjIwLDE4OS43MSAxNTkuOTgsMTg5LjM3IDE2MS43NiwxODkuMDIgMTYzLjU1LDE4OC42OCAxNjUuMzMsMTg4LjM0IDE2Ny4xMSwxODguMDAgMTY4Ljg5LDE4Ny42NyAxNzAuNjgsMTg3LjM1IDE3Mi40NiwxODcuMDQgMTc0LjI0LDE4Ni43NCAxNzYuMDIsMTg2LjQ1IDE3Ny44MSwxODYuMTggMTc5LjU5LDE4NS45MiAxODEuMzcsMTg1LjY4IDE4My4xNSwxODUuNDcgMTg0LjkzLDE4NS4yNyAxODYuNzIsMTg1LjEwIDE4OC41MCwxODQuOTUgMTkwLjI4LDE4NC44MiAxOTIuMDYsMTg0LjczIDE5My44NSwxODQuNjYgMTk1LjYzLDE4NC42MyAxOTcuNDEsMTg0LjYyIDE5OS4xOSwxODQuNjYgMjAwLjk4LDE4NC43MiAyMDIuNzYsMTg0LjgzIDIwNC41NCwxODQuOTcgMjA2LjMyLDE4NS4xNiAyMDguMTEsMTg1LjM5IDIwOS44OSwxODUuNjYgMjExLjY3LDE4NS45OCAyMTMuNDUsMTg2LjM0IDIxNS4yNCwxODYuNzYgMjE3LjAyLDE4Ny4yMiAyMTguODAsMTg3Ljc0IDIyMC41OCwxODguMzIgMjIyLjM2LDE4OC45NyAyMjQuMTUsMTg5LjcwIDIyNS45MywxOTAuNTEgMjI3LjcxLDE5MS40MiAyMjkuNDksMTkyLjQzIDIzMS4yOCwxOTMuNTYgMjMzLjA2LDE5NC44MCAyMzQuODQsMTk2LjE4IDIzNi42MiwxOTcuNjkgMjM4LjQxLDE5OS4zNSAyNDAuMTksMjAxLjE1IDI0MS45NywyMDMuMTAgMjQzLjc1LDIwNS4yMSAyNDUuNTQsMjA3LjQ4IDI0Ny4zMiwyMDkuOTIgMjQ5LjEwLDIxMi41MyAyNTAuODgsMjE1LjMxIDI1Mi42NywyMTguMjcgMjU0LjQ1LDIxOS41NCAyNTYuMjMsMjIwLjgwIDI1OC4wMSwyMjIuMDQgMjU5Ljc5LDIyMy4yNiAyNjEuNTgsMjI0LjQ2IDI2My4zNiwyMjUuNjUgMjY1LjE0LDIyNi44MSAyNjYuOTIsMjI3Ljk2IDI2OC43MSwyMjkuMDkgMjcwLjQ5LDIzMC4yMSAyNzIuMjcsMjMxLjMwIDI3NC4wNSwyMzIuMzggMjc1Ljg0LDIzMy40NCAyNzcuNjIsMjM0LjQ4IDI3OS40MCwyMzUuNTAgMjgxLjE4LDIzNi41MSAyODIuOTcsMjM3LjUwIDI4NC43NSwyMzguNDcgMjg2LjUzLDIzOS40MiAyODguMzEsMjQwLjM1IDI5MC4xMCwyNDAuMzkgMjkxLjg4LDI0MC40MSAyOTMuNjYsMjQwLjQxIDI5NS40NCwyNDAuNDAgMjk3LjIyLDI0MC4zNyAyOTkuMDEsMjQwLjMxIDMwMC43OSwyNDAuMjMgMzAyLjU3LDI0MC4xMSAzMDQuMzUsMjM5Ljk1IDMwNi4xNCwyMzkuNzYgMzA3LjkyLDIzOS41MiAzMDkuNzAsMjM5LjI0IDMxMS40OCwyMzguOTIgMzEzLjI3LDIzOC41NiAzMTUuMDUsMjM4LjE3IDMxNi44MywyMzcuNzMgMzE4LjYxLDIzNy4yMSAzMjAuNDAsMjM2LjU5IDMyMi4xOCwyMzUuODUgMzIzLjk2LDIzNC45OCAzMjUuNzQsMjMzLjk1IDMyNy41MywyMzIuNzggMzI5LjMxLDIzMS40NyAzMzEuMDksMjMwLjAzIDMzMi44NywyMjguNDggMzM0LjY1LDIyNi44MyAzMzYuNDQsMjI1LjA5IDMzOC4yMiwyMjMuMjggMzQwLjAwLDIyMS40MCAzNDEuNzgsMjE5LjQ2IDM0My41NywyMTcuNDggMzQ1LjM1LDIxNS40NyAzNDcuMTMsMjEzLjQzIDM0OC45MSwyMTEuMzggMzUwLjcwLDIwOS4zMiAzNTIuNDgsMjA3LjI2IDM1NC4yNiwyMDUuMjAgMzU2LjA0LDIwMy4xNiAzNTcuODMsMjAxLjE1IDM1OS42MSwxOTkuMTYiLz4mI3hhOzxwb2x5bGluZSBzdHlsZT0ic3Ryb2tlLXdpZHRoOiAxLjA3OyBzdHJva2U6IG5vbmU7IHN0cm9rZS1saW5lY2FwOiBidXR0OyIgcG9pbnRzPSIzNTkuNjEsMjMyLjU5IDM1Ny44MywyMzQuMzMgMzU2LjA0LDIzNS45NyAzNTQuMjYsMjM3LjUxIDM1Mi40OCwyMzguOTYgMzUwLjcwLDI0MC4zMSAzNDguOTEsMjQxLjU3IDM0Ny4xMywyNDIuNzQgMzQ1LjM1LDI0My44MyAzNDMuNTcsMjQ0LjgyIDM0MS43OCwyNDUuNzMgMzQwLjAwLDI0Ni41NSAzMzguMjIsMjQ3LjI5IDMzNi40NCwyNDcuOTUgMzM0LjY1LDI0OC41MyAzMzIuODcsMjQ5LjAzIDMzMS4wOSwyNDkuNDUgMzI5LjMxLDI0OS44MCAzMjcuNTMsMjUwLjA3IDMyNS43NCwyNTAuMjcgMzIzLjk2LDI1MC40MCAzMjIuMTgsMjUwLjQ2IDMyMC40MCwyNTAuNDYgMzE4LjYxLDI1MC4zOCAzMTYuODMsMjUwLjI0IDMxNS4wNSwyNTAuMDQgMzEzLjI3LDI0OS43NyAzMTEuNDgsMjQ5LjQ0IDMwOS43MCwyNDkuMDYgMzA3LjkyLDI0OC42MiAzMDYuMTQsMjQ4LjEyIDMwNC4zNSwyNDcuNTYgMzAyLjU3LDI0Ni45NSAzMDAuNzksMjQ2LjI5IDI5OS4wMSwyNDUuNTggMjk3LjIyLDI0NC44MyAyOTUuNDQsMjQ0LjAyIDI5My42NiwyNDMuMTcgMjkxLjg4LDI0Mi4yNyAyOTAuMTAsMjQxLjMzIDI4OC4zMSwyNDAuMzUgMjg2LjUzLDIzOS42NSAyODQuNzUsMjM4LjkwIDI4Mi45NywyMzguMTEgMjgxLjE4LDIzNy4yNyAyNzkuNDAsMjM2LjQwIDI3Ny42MiwyMzUuNDggMjc1Ljg0LDIzNC41MyAyNzQuMDUsMjMzLjUzIDI3Mi4yNywyMzIuNDggMjcwLjQ5LDIzMS40MCAyNjguNzEsMjMwLjI3IDI2Ni45MiwyMjkuMTEgMjY1LjE0LDIyNy45MCAyNjMuMzYsMjI2LjY1IDI2MS41OCwyMjUuMzYgMjU5Ljc5LDIyNC4wMiAyNTguMDEsMjIyLjY1IDI1Ni4yMywyMjEuMjMgMjU0LjQ1LDIxOS43NyAyNTIuNjcsMjE4LjI3IDI1MC44OCwyMTcuNDMgMjQ5LjEwLDIxNi42MyAyNDcuMzIsMjE1Ljg3IDI0NS41NCwyMTUuMTQgMjQzLjc1LDIxNC40NCAyNDEuOTcsMjEzLjc3IDI0MC4xOSwyMTMuMTQgMjM4LjQxLDIxMi41MyAyMzYuNjIsMjExLjk2IDIzNC44NCwyMTEuNDIgMjMzLjA2LDIxMC45MSAyMzEuMjgsMjEwLjQyIDIyOS40OSwyMDkuOTcgMjI3LjcxLDIwOS41NCAyMjUuOTMsMjA5LjE0IDIyNC4xNSwyMDguNzYgMjIyLjM2LDIwOC40MiAyMjAuNTgsMjA4LjA5IDIxOC44MCwyMDcuNzkgMjE3LjAyLDIwNy41MiAyMTUuMjQsMjA3LjI3IDIxMy40NSwyMDcuMDQgMjExLjY3LDIwNi44NCAyMDkuODksMjA2LjY1IDIwOC4xMSwyMDYuNDkgMjA2LjMyLDIwNi4zNCAyMDQuNTQsMjA2LjIxIDIwMi43NiwyMDYuMTEgMjAwLjk4LDIwNi4wMiAxOTkuMTksMjA1Ljk0IDE5Ny40MSwyMDUuODggMTk1LjYzLDIwNS44NCAxOTMuODUsMjA1LjgxIDE5Mi4wNiwyMDUuNzkgMTkwLjI4LDIwNS43OSAxODguNTAsMjA1LjgwIDE4Ni43MiwyMDUuODIgMTg0LjkzLDIwNS44NSAxODMuMTUsMjA1Ljg5IDE4MS4zNywyMDUuOTMgMTc5LjU5LDIwNS45OSAxNzcuODEsMjA2LjA1IDE3Ni4wMiwyMDYuMTIgMTc0LjI0LDIwNi4yMCAxNzIuNDYsMjA2LjI4IDE3MC42OCwyMDYuMzYgMTY4Ljg5LDIwNi40NSAxNjcuMTEsMjA2LjU0IDE2NS4zMywyMDYuNjMgMTYzLjU1LDIwNi43MiAxNjEuNzYsMjA2LjgxIDE1OS45OCwyMDYuOTAgMTU4LjIwLDIwNi45OSAxNTYuNDIsMjA3LjA4IDE1NC42MywyMDcuMTcgMTUyLjg1LDIwNy4yNSAxNTEuMDcsMjA3LjMyIDE0OS4yOSwyMDcuNDAgMTQ3LjUwLDIwNy40NiAxNDUuNzIsMjA3LjUyIDE0My45NCwyMDcuNTcgMTQyLjE2LDIwNy42MiAxNDAuMzgsMjA3LjY2IDEzOC41OSwyMDcuNjkgMTM2LjgxLDIwNy43MyAxMzUuMDMsMjA3Ljc2IDEzMy4yNSwyMDcuNzkgMTMxLjQ2LDIwNy44MiAxMjkuNjgsMjA3Ljg1IDEyNy45MCwyMDcuODkgMTI2LjEyLDIwNy45MyAxMjQuMzMsMjA3Ljk4IDEyMi41NSwyMDguMDMgMTIwLjc3LDIwOC4xMCAxMTguOTksMjA4LjE3IDExNy4yMCwyMDguMjUgMTE1LjQyLDIwOC4zNSAxMTMuNjQsMjA4LjQ2IDExMS44NiwyMDguNTggMTEwLjA3LDIwOC43MSAxMDguMjksMjA4Ljg3IDEwNi41MSwyMDkuMDMgMTA0LjczLDIwOS4xOSAxMDIuOTUsMjA5LjM0IDEwMS4xNiwyMDkuNDggOTkuMzgsMjA5LjU5IDk3LjYwLDIwOS42NyA5NS44MiwyMDkuNzEgOTQuMDMsMjA5LjY5IDkyLjI1LDIwOS42MiA5MC40NywyMDkuNDkgODguNjksMjA5LjI4IDg2LjkwLDIwOC45OCA4NS4xMiwyMDguNjAgODMuMzQsMjA4LjExIDgxLjU2LDIwNy41MiA3OS43NywyMDYuODEgNzcuOTksMjA1Ljk4IDc2LjIxLDIwNS4wMyA3NC40MywyMDMuOTQgNzIuNjQsMjA0LjUzIDcwLjg2LDIwNS4wOCA2OS4wOCwyMDUuNTkgNjcuMzAsMjA2LjA2IDY1LjUyLDIwNi40OSA2My43MywyMDYuODkgNjEuOTUsMjA3LjI1IDYwLjE3LDIwNy41NyA1OC4zOSwyMDcuODYgNTYuNjAsMjA4LjEyIDU0LjgyLDIwOC4zNSA1My4wNCwyMDguNTUgNTEuMjYsMjA4LjcyIDQ5LjQ3LDIwOC44NyA0Ny42OSwyMDguOTkgNDUuOTEsMjA5LjEwIDQ0LjEzLDIwOS4xOCA0Mi4zNCwyMDkuMjQgNDAuNTYsMjA5LjI4IDM4Ljc4LDIwOS4zMSAzNy4wMCwyMDkuMzIgMzUuMjEsMjA5LjMyIDMzLjQzLDIwOS4zMSAzMS42NSwyMDkuMjkgMjkuODcsMjA5LjI2IDI4LjA5LDIwOS4yMiAyNi4zMCwyMDkuMTcgMjQuNTIsMjA5LjEyIDIyLjc0LDIwOS4wNyAyMC45NiwyMDkuMDEgMTkuMTcsMjA4Ljk2IDE3LjM5LDIwOC45MSAxNS42MSwyMDguODYgMTMuODMsMjA4LjgxIDEyLjA0LDIwOC43NyAxMC4yNiwyMDguNzQgOC40OCwyMDguNzIgNi43MCwyMDguNzAgNC45MSwyMDguNzAgMy4xMywyMDguNzEiLz4mI3hhOzxwb2x5bGluZSBzdHlsZT0ic3Ryb2tlLXdpZHRoOiAxLjA3OyBzdHJva2UtbGluZWNhcDogYnV0dDsiIHBvaW50cz0iMy4xMywxOTUuNTggNC45MSwxOTYuMDYgNi43MCwxOTYuNTIgOC40OCwxOTYuOTYgMTAuMjYsMTk3LjM5IDEyLjA0LDE5Ny44MCAxMy44MywxOTguMTkgMTUuNjEsMTk4LjU3IDE3LjM5LDE5OC45MyAxOS4xNywxOTkuMjggMjAuOTYsMTk5LjYxIDIyLjc0LDE5OS45MyAyNC41MiwyMDAuMjMgMjYuMzAsMjAwLjUyIDI4LjA5LDIwMC44MCAyOS44NywyMDEuMDYgMzEuNjUsMjAxLjMwIDMzLjQzLDIwMS41NCAzNS4yMSwyMDEuNzYgMzcuMDAsMjAxLjk3IDM4Ljc4LDIwMi4xNiA0MC41NiwyMDIuMzUgNDIuMzQsMjAyLjUyIDQ0LjEzLDIwMi42OCA0NS45MSwyMDIuODMgNDcuNjksMjAyLjk3IDQ5LjQ3LDIwMy4xMCA1MS4yNiwyMDMuMjIgNTMuMDQsMjAzLjMzIDU0LjgyLDIwMy40MiA1Ni42MCwyMDMuNTEgNTguMzksMjAzLjU5IDYwLjE3LDIwMy42NiA2MS45NSwyMDMuNzIgNjMuNzMsMjAzLjc4IDY1LjUyLDIwMy44MiA2Ny4zMCwyMDMuODYgNjkuMDgsMjAzLjg5IDcwLjg2LDIwMy45MSA3Mi42NCwyMDMuOTMgNzQuNDMsMjAzLjk0IDc2LjIxLDIwMy45NCA3Ny45OSwyMDMuOTQgNzkuNzcsMjAzLjkzIDgxLjU2LDIwMy45MSA4My4zNCwyMDMuODkgODUuMTIsMjAzLjg2IDg2LjkwLDIwMy44MiA4OC42OSwyMDMuNzggOTAuNDcsMjAzLjczIDkyLjI1LDIwMy42OCA5NC4wMywyMDMuNjIgOTUuODIsMjAzLjU1IDk3LjYwLDIwMy40OCA5OS4zOCwyMDMuNDAgMTAxLjE2LDIwMy4zMSAxMDIuOTUsMjAzLjIyIDEwNC43MywyMDMuMTIgMTA2LjUxLDIwMy4wMSAxMDguMjksMjAyLjkwIDExMC4wNywyMDIuNzkgMTExLjg2LDIwMi42NiAxMTMuNjQsMjAyLjUzIDExNS40MiwyMDIuNDAgMTE3LjIwLDIwMi4yNiAxMTguOTksMjAyLjExIDEyMC43NywyMDEuOTUgMTIyLjU1LDIwMS43OSAxMjQuMzMsMjAxLjYzIDEyNi4xMiwyMDEuNDYgMTI3LjkwLDIwMS4yOCAxMjkuNjgsMjAxLjA5IDEzMS40NiwyMDAuOTAgMTMzLjI1LDIwMC43MSAxMzUuMDMsMjAwLjUwIDEzNi44MSwyMDAuMzAgMTM4LjU5LDIwMC4wOCAxNDAuMzgsMTk5Ljg2IDE0Mi4xNiwxOTkuNjMgMTQzLjk0LDE5OS40MCAxNDUuNzIsMTk5LjE2IDE0Ny41MCwxOTguOTIgMTQ5LjI5LDE5OC42NyAxNTEuMDcsMTk4LjQyIDE1Mi44NSwxOTguMTYgMTU0LjYzLDE5Ny45MSAxNTYuNDIsMTk3LjY2IDE1OC4yMCwxOTcuNDAgMTU5Ljk4LDE5Ny4xNiAxNjEuNzYsMTk2LjkxIDE2My41NSwxOTYuNjggMTY1LjMzLDE5Ni40NSAxNjcuMTEsMTk2LjIzIDE2OC44OSwxOTYuMDIgMTcwLjY4LDE5NS44MiAxNzIuNDYsMTk1LjYzIDE3NC4yNCwxOTUuNDYgMTc2LjAyLDE5NS4zMSAxNzcuODEsMTk1LjE3IDE3OS41OSwxOTUuMDUgMTgxLjM3LDE5NC45NSAxODMuMTUsMTk0Ljg3IDE4NC45MywxOTQuODEgMTg2LjcyLDE5NC43OCAxODguNTAsMTk0Ljc3IDE5MC4yOCwxOTQuNzkgMTkyLjA2LDE5NC44NCAxOTMuODUsMTk0LjkxIDE5NS42MywxOTUuMDIgMTk3LjQxLDE5NS4xNSAxOTkuMTksMTk1LjMzIDIwMC45OCwxOTUuNTMgMjAyLjc2LDE5NS43NyAyMDQuNTQsMTk2LjA1IDIwNi4zMiwxOTYuMzcgMjA4LjExLDE5Ni43MyAyMDkuODksMTk3LjEzIDIxMS42NywxOTcuNTcgMjEzLjQ1LDE5OC4wNSAyMTUuMjQsMTk4LjU4IDIxNy4wMiwxOTkuMTYgMjE4LjgwLDE5OS43OSAyMjAuNTgsMjAwLjQ2IDIyMi4zNiwyMDEuMTggMjI0LjE1LDIwMS45MyAyMjUuOTMsMjAyLjczIDIyNy43MSwyMDMuNTcgMjI5LjQ5LDIwNC40NCAyMzEuMjgsMjA1LjM1IDIzMy4wNiwyMDYuMjkgMjM0Ljg0LDIwNy4yNyAyMzYuNjIsMjA4LjI3IDIzOC40MSwyMDkuMjkgMjQwLjE5LDIxMC4zNSAyNDEuOTcsMjExLjQyIDI0My43NSwyMTIuNTIgMjQ1LjU0LDIxMy42NCAyNDcuMzIsMjE0Ljc4IDI0OS4xMCwyMTUuOTMgMjUwLjg4LDIxNy4wOSAyNTIuNjcsMjE4LjI3IDI1NC40NSwyMTkuNDUgMjU2LjIzLDIyMC42NSAyNTguMDEsMjIxLjg0IDI1OS43OSwyMjMuMDQgMjYxLjU4LDIyNC4yNCAyNjMuMzYsMjI1LjQ0IDI2NS4xNCwyMjYuNjMgMjY2LjkyLDIyNy44MSAyNjguNzEsMjI4Ljk4IDI3MC40OSwyMzAuMTMgMjcyLjI3LDIzMS4yNyAyNzQuMDUsMjMyLjM5IDI3NS44NCwyMzMuNDkgMjc3LjYyLDIzNC41NyAyNzkuNDAsMjM1LjYyIDI4MS4xOCwyMzYuNjMgMjgyLjk3LDIzNy42MiAyODQuNzUsMjM4LjU3IDI4Ni41MywyMzkuNDggMjg4LjMxLDI0MC4zNSAyOTAuMTAsMjQxLjE4IDI5MS44OCwyNDEuOTcgMjkzLjY2LDI0Mi43MSAyOTUuNDQsMjQzLjM5IDI5Ny4yMiwyNDQuMDMgMjk5LjAxLDI0NC42MCAzMDAuNzksMjQ1LjEyIDMwMi41NywyNDUuNTggMzA0LjM1LDI0NS45OCAzMDYuMTQsMjQ2LjMxIDMwNy45MiwyNDYuNTggMzA5LjcwLDI0Ni43NyAzMTEuNDgsMjQ2Ljg5IDMxMy4yNywyNDYuOTQgMzE1LjA1LDI0Ni45MSAzMTYuODMsMjQ2Ljc5IDMxOC42MSwyNDYuNjAgMzIwLjQwLDI0Ni4zMiAzMjIuMTgsMjQ1Ljk1IDMyMy45NiwyNDUuNDkgMzI1Ljc0LDI0NC45NCAzMjcuNTMsMjQ0LjI5IDMyOS4zMSwyNDMuNTUgMzMxLjA5LDI0Mi43MCAzMzIuODcsMjQxLjc1IDMzNC42NSwyNDAuNzAgMzM2LjQ0LDIzOS41NCAzMzguMjIsMjM4LjI3IDM0MC4wMCwyMzYuODggMzQxLjc4LDIzNS4zOCAzNDMuNTcsMjMzLjc2IDM0NS4zNSwyMzIuMDMgMzQ3LjEzLDIzMC4xNyAzNDguOTEsMjI4LjE4IDM1MC43MCwyMjYuMDcgMzUyLjQ4LDIyMy44MiAzNTQuMjYsMjIxLjQ0IDM1Ni4wNCwyMTguOTMgMzU3LjgzLDIxNi4yOCAzNTkuNjEsMjEzLjQ5Ii8+JiN4YTs8cG9seWxpbmUgc3R5bGU9InN0cm9rZS13aWR0aDogMS4wNzsgc3Ryb2tlLWRhc2hhcnJheTogNS42OSw1LjY5OyBzdHJva2UtbGluZWNhcDogYnV0dDsiIHBvaW50cz0iMy4xMywxOTIuMDAgNC45MSwxOTIuNjAgNi43MCwxOTMuMTggOC40OCwxOTMuNzUgMTAuMjYsMTk0LjMwIDEyLjA0LDE5NC44MyAxMy44MywxOTUuMzQgMTUuNjEsMTk1Ljg0IDE3LjM5LDE5Ni4zMiAxOS4xNywxOTYuNzggMjAuOTYsMTk3LjIzIDIyLjc0LDE5Ny42NiAyNC41MiwxOTguMDggMjYuMzAsMTk4LjQ3IDI4LjA5LDE5OC44NiAyOS44NywxOTkuMjIgMzEuNjUsMTk5LjU4IDMzLjQzLDE5OS45MSAzNS4yMSwyMDAuMjQgMzcuMDAsMjAwLjU0IDM4Ljc4LDIwMC44NCA0MC41NiwyMDEuMTIgNDIuMzQsMjAxLjM4IDQ0LjEzLDIwMS42MyA0NS45MSwyMDEuODcgNDcuNjksMjAyLjA5IDQ5LjQ3LDIwMi4zMCA1MS4yNiwyMDIuNTAgNTMuMDQsMjAyLjY4IDU0LjgyLDIwMi44NSA1Ni42MCwyMDMuMDEgNTguMzksMjAzLjE2IDYwLjE3LDIwMy4yOSA2MS45NSwyMDMuNDEgNjMuNzMsMjAzLjUyIDY1LjUyLDIwMy42MiA2Ny4zMCwyMDMuNzAgNjkuMDgsMjAzLjc4IDcwLjg2LDIwMy44NCA3Mi42NCwyMDMuOTAgNzQuNDMsMjAzLjk0IDc2LjIxLDIwMy45NyA3Ny45OSwyMDMuOTkgNzkuNzcsMjA0LjAwIDgxLjU2LDIwNC4wMCA4My4zNCwyMDQuMDAgODUuMTIsMjAzLjk4IDg2LjkwLDIwMy45NSA4OC42OSwyMDMuOTEgOTAuNDcsMjAzLjg2IDkyLjI1LDIwMy44MSA5NC4wMywyMDMuNzQgOTUuODIsMjAzLjY3IDk3LjYwLDIwMy41OCA5OS4zOCwyMDMuNDkgMTAxLjE2LDIwMy4zOSAxMDIuOTUsMjAzLjI4IDEwNC43MywyMDMuMTcgMTA2LjUxLDIwMy4wNCAxMDguMjksMjAyLjkxIDExMC4wNywyMDIuNzcgMTExLjg2LDIwMi42MiAxMTMuNjQsMjAyLjQ3IDExNS40MiwyMDIuMzAgMTE3LjIwLDIwMi4xMyAxMTguOTksMjAxLjk2IDEyMC43NywyMDEuNzcgMTIyLjU1LDIwMS41OCAxMjQuMzMsMjAxLjM5IDEyNi4xMiwyMDEuMTggMTI3LjkwLDIwMC45NyAxMjkuNjgsMjAwLjc2IDEzMS40NiwyMDAuNTQgMTMzLjI1LDIwMC4zMSAxMzUuMDMsMjAwLjA4IDEzNi44MSwxOTkuODQgMTM4LjU5LDE5OS41OSAxNDAuMzgsMTk5LjM0IDE0Mi4xNiwxOTkuMDkgMTQzLjk0LDE5OC44MyAxNDUuNzIsMTk4LjU3IDE0Ny41MCwxOTguMzAgMTQ5LjI5LDE5OC4wMiAxNTEuMDcsMTk3Ljc1IDE1Mi44NSwxOTcuNDcgMTU0LjYzLDE5Ny4xOSAxNTYuNDIsMTk2LjkxIDE1OC4yMCwxOTYuNjMgMTU5Ljk4LDE5Ni4zNCAxNjEuNzYsMTk2LjA2IDE2My41NSwxOTUuNzggMTY1LjMzLDE5NS41MCAxNjcuMTEsMTk1LjIzIDE2OC44OSwxOTQuOTUgMTcwLjY4LDE5NC42OCAxNzIuNDYsMTk0LjQyIDE3NC4yNCwxOTQuMTYgMTc2LjAyLDE5My45MSAxNzcuODEsMTkzLjY2IDE3OS41OSwxOTMuNDIgMTgxLjM3LDE5My4xOSAxODMuMTUsMTkyLjk3IDE4NC45MywxOTIuNzYgMTg2LjcyLDE5Mi41NiAxODguNTAsMTkyLjM3IDE5MC4yOCwxOTIuMTkgMTkyLjA2LDE5Mi4wMyAxOTMuODUsMTkxLjg4IDE5NS42MywxOTEuNzYgMTk3LjQxLDE5MS42NSAxOTkuMTksMTkxLjU2IDIwMC45OCwxOTEuNDkgMjAyLjc2LDE5MS40NCAyMDQuNTQsMTkxLjQyIDIwNi4zMiwxOTEuNDIgMjA4LjExLDE5MS40NCAyMDkuODksMTkxLjQ5IDIxMS42NywxOTEuNTggMjEzLjQ1LDE5MS42OSAyMTUuMjQsMTkxLjgzIDIxNy4wMiwxOTIuMDAgMjE4LjgwLDE5Mi4yMSAyMjAuNTgsMTkyLjQ3IDIyMi4zNiwxOTIuODAgMjI0LjE1LDE5My4yMSAyMjUuOTMsMTkzLjczIDIyNy43MSwxOTQuMzggMjI5LjQ5LDE5NS4xNyAyMzEuMjgsMTk2LjEyIDIzMy4wNiwxOTcuMjQgMjM0Ljg0LDE5OC41NyAyMzYuNjIsMjAwLjEwIDIzOC40MSwyMDEuODEgMjQwLjE5LDIwMy42NyAyNDEuOTcsMjA1LjY1IDI0My43NSwyMDcuNzIgMjQ1LjU0LDIwOS44NSAyNDcuMzIsMjEyLjAwIDI0OS4xMCwyMTQuMTQgMjUwLjg4LDIxNi4yNCAyNTIuNjcsMjE4LjI3IDI1NC40NSwyMjAuMjAgMjU2LjIzLDIyMi4wMyAyNTguMDEsMjIzLjc1IDI1OS43OSwyMjUuMzkgMjYxLjU4LDIyNi45MyAyNjMuMzYsMjI4LjM3IDI2NS4xNCwyMjkuNzMgMjY2LjkyLDIzMS4wMCAyNjguNzEsMjMyLjE5IDI3MC40OSwyMzMuMjkgMjcyLjI3LDIzNC4zMiAyNzQuMDUsMjM1LjI2IDI3NS44NCwyMzYuMTQgMjc3LjYyLDIzNi45NCAyNzkuNDAsMjM3LjY3IDI4MS4xOCwyMzguMzMgMjgyLjk3LDIzOC45MyAyODQuNzUsMjM5LjQ2IDI4Ni41MywyMzkuOTQgMjg4LjMxLDI0MC4zNSAyOTAuMTAsMjQwLjcxIDI5MS44OCwyNDEuMDAgMjkzLjY2LDI0MS4yMSAyOTUuNDQsMjQxLjMyIDI5Ny4yMiwyNDEuMzIgMjk5LjAxLDI0MS4xOSAzMDAuNzksMjQwLjkzIDMwMi41NywyNDAuNTEgMzA0LjM1LDIzOS45MiAzMDYuMTQsMjM5LjE2IDMwNy45MiwyMzguMjEgMzA5LjcwLDIzNy4wOCAzMTEuNDgsMjM1Ljc5IDMxMy4yNywyMzQuMzUgMzE1LjA1LDIzMi43OSAzMTYuODMsMjMxLjExIDMxOC42MSwyMjkuMzUgMzIwLjQwLDIyNy41MCAzMjIuMTgsMjI1LjU5IDMyMy45NiwyMjMuNjQgMzI1Ljc0LDIyMS42NiAzMjcuNTMsMjE5LjY2IDMyOS4zMSwyMTcuNjYgMzMxLjA5LDIxNS42NiAzMzIuODcsMjEzLjY3IDMzNC42NSwyMTEuNzEgMzM2LjQ0LDIwOS43OSAzMzguMjIsMjA3LjkyIDM0MC4wMCwyMDYuMTEgMzQxLjc4LDIwNC4zNyAzNDMuNTcsMjAyLjcxIDM0NS4zNSwyMDEuMTQgMzQ3LjEzLDE5OS42NyAzNDguOTEsMTk4LjMyIDM1MC43MCwxOTcuMDkgMzUyLjQ4LDE5NS45OSAzNTQuMjYsMTk1LjA1IDM1Ni4wNCwxOTQuMjYgMzU3LjgzLDE5My42NCAzNTkuNjEsMTkzLjE5Ii8+JiN4YTs8cG9seWxpbmUgc3R5bGU9InN0cm9rZS13aWR0aDogMS4wNzsgc3Ryb2tlOiAjRkZBNTAwOyBzdHJva2UtbGluZWNhcDogYnV0dDsiIHBvaW50cz0iMy4xMywyODUuMDEgNC45MSwyODUuMDEgNi43MCwyODUuMDEgOC40OCwyODUuMDEgMTAuMjYsMjg1LjAxIDEyLjA0LDI4NS4wMSAxMy44MywyODUuMDEgMTUuNjEsMjg1LjAxIDE3LjM5LDI4NS4wMSAxOS4xNywyODUuMDEgMjAuOTYsMjg1LjAxIDIyLjc0LDI4NS4wMSAyNC41MiwyODUuMDEgMjYuMzAsMjg1LjAxIDI4LjA5LDI4NS4wMSAyOS44NywyODUuMDEgMzEuNjUsMjg1LjAxIDMzLjQzLDI4NS4wMSAzNS4yMSwyODUuMDEgMzcuMDAsMjg1LjAxIDM4Ljc4LDI4NS4wMSA0MC41NiwyODUuMDEgNDIuMzQsMjg1LjAxIDQ0LjEzLDI4NS4wMSA0NS45MSwyODUuMDEgNDcuNjksMjg1LjAxIDQ5LjQ3LDI4NS4wMSA1MS4yNiwyODUuMDEgNTMuMDQsMjg1LjAxIDU0LjgyLDI4NS4wMSA1Ni42MCwyODUuMDEgNTguMzksMjg1LjAxIDYwLjE3LDI4NS4wMSA2MS45NSwyODUuMDEgNjMuNzMsMjg1LjAxIDY1LjUyLDI4NS4wMSA2Ny4zMCwyODUuMDEgNjkuMDgsMjg1LjAxIDcwLjg2LDI4NS4wMSA3Mi42NCwyODUuMDEgNzQuNDMsMjg1LjAxIDc2LjIxLDI4NS4wMSA3Ny45OSwyODUuMDEgNzkuNzcsMjg1LjAxIDgxLjU2LDI4NS4wMSA4My4zNCwyODUuMDEgODUuMTIsMjg1LjAxIDg2LjkwLDI4NS4wMSA4OC42OSwyODUuMDEgOTAuNDcsMjg1LjAxIDkyLjI1LDI4NS4wMSA5NC4wMywyODUuMDEgOTUuODIsMjg1LjAxIDk3LjYwLDI4NS4wMSA5OS4zOCwyODUuMDEgMTAxLjE2LDI4NS4wMSAxMDIuOTUsMjg1LjAxIDEwNC43MywyODUuMDEgMTA2LjUxLDI4NS4wMSAxMDguMjksMjg1LjAxIDExMC4wNywyODUuMDEgMTExLjg2LDI4NS4wMSAxMTMuNjQsMjg1LjAxIDExNS40MiwyODUuMDEgMTE3LjIwLDI4NS4wMSAxMTguOTksMjg1LjAxIDEyMC43NywyODUuMDEgMTIyLjU1LDI4NS4wMSAxMjQuMzMsMjg1LjAxIDEyNi4xMiwyODUuMDEgMTI3LjkwLDI4NS4wMSAxMjkuNjgsMjg1LjAxIDEzMS40NiwyODUuMDEgMTMzLjI1LDI4NS4wMSAxMzUuMDMsMjg1LjAxIDEzNi44MSwyODUuMDEgMTM4LjU5LDI4NS4wMSAxNDAuMzgsMjg1LjAxIDE0Mi4xNiwyODUuMDEgMTQzLjk0LDI4NS4wMSAxNDUuNzIsMjg1LjAxIDE0Ny41MCwyODUuMDEgMTQ5LjI5LDI4NS4wMSAxNTEuMDcsMjg1LjAxIDE1Mi44NSwyODUuMDEgMTU0LjYzLDI4NS4wMSAxNTYuNDIsMjg1LjAxIDE1OC4yMCwyODUuMDEgMTU5Ljk4LDI4NS4wMSAxNjEuNzYsMjg1LjAxIDE2My41NSwyODUuMDEgMTY1LjMzLDI4NS4wMSAxNjcuMTEsMjg1LjAxIDE2OC44OSwyODUuMDEgMTcwLjY4LDI4NS4wMSAxNzIuNDYsMjg1LjAxIDE3NC4yNCwyODUuMDEgMTc2LjAyLDI4NS4wMSAxNzcuODEsMjg1LjAxIDE3OS41OSwyODUuMDEgMTgxLjM3LDI4NS4wMSAxODMuMTUsMjg1LjAxIDE4NC45MywyODUuMDEgMTg2LjcyLDI4NS4wMSAxODguNTAsMjg1LjAxIDE5MC4yOCwyODUuMDEgMTkyLjA2LDI4NS4wMSAxOTMuODUsMjg1LjAxIDE5NS42MywyODUuMDEgMTk3LjQxLDI4NS4wMSAxOTkuMTksMjg1LjAxIDIwMC45OCwyODUuMDEgMjAyLjc2LDI4NS4wMSAyMDQuNTQsMjg1LjAxIDIwNi4zMiwyODUuMDEgMjA4LjExLDI4NS4wMSAyMDkuODksMjg1LjAxIDIxMS42NywyODUuMDEgMjEzLjQ1LDI4NS4wMSAyMTUuMjQsMjg1LjAxIDIxNy4wMiwyODUuMDEgMjE4LjgwLDI4NS4wMSAyMjAuNTgsMjg1LjAxIDIyMi4zNiwyODUuMDEgMjI0LjE1LDI4NS4wMSAyMjUuOTMsMjg1LjAxIDIyNy43MSwyODUuMDEgMjI5LjQ5LDI4NS4wMSAyMzEuMjgsMjg1LjAxIDIzMy4wNiwyODUuMDEgMjM0Ljg0LDI4NS4wMSAyMzYuNjIsMjg1LjAxIDIzOC40MSwyODUuMDEgMjQwLjE5LDI4NS4wMSAyNDEuOTcsMjg1LjAxIDI0My43NSwyODUuMDEgMjQ1LjU0LDI4NS4wMSAyNDcuMzIsMjg1LjAxIDI0OS4xMCwyODUuMDEgMjUwLjg4LDI4NS4wMSAyNTIuNjcsMjg1LjAxIDI1NC40NSwyODUuMDEgMjU2LjIzLDI4NS4wMSAyNTguMDEsMjg1LjAxIDI1OS43OSwyODUuMDEgMjYxLjU4LDI4NS4wMSAyNjMuMzYsMjg1LjAxIDI2NS4xNCwyODUuMDEgMjY2LjkyLDI4NS4wMSAyNjguNzEsMjg1LjAxIDI3MC40OSwyODUuMDEgMjcyLjI3LDI4NS4wMSAyNzQuMDUsMjg1LjAxIDI3NS44NCwyODUuMDEgMjc3LjYyLDI4NS4wMSAyNzkuNDAsMjg1LjAxIDI4MS4xOCwyODUuMDEgMjgyLjk3LDI4NS4wMSAyODQuNzUsMjg1LjAxIDI4Ni41MywyODUuMDEgMjg4LjMxLDI4NS4wMSAyOTAuMTAsMjgyLjA4IDI5MS44OCwyNzkuNDUgMjkzLjY2LDI3Ny4yMiAyOTUuNDQsMjc1LjM3IDI5Ny4yMiwyNzMuODYgMjk5LjAxLDI3Mi42OSAzMDAuNzksMjcxLjgyIDMwMi41NywyNzEuMjMgMzA0LjM1LDI3MC45MCAzMDYuMTQsMjcwLjgwIDMwNy45MiwyNzAuOTEgMzA5LjcwLDI3MS4yMSAzMTEuNDgsMjcxLjY1IDMxMy4yNywyNzIuMjEgMzE1LjA1LDI3Mi44NSAzMTYuODMsMjczLjU0IDMxOC42MSwyNzQuMjUgMzIwLjQwLDI3NC45NCAzMjIuMTgsMjc1LjYwIDMyMy45NiwyNzYuMTcgMzI1Ljc0LDI3Ni42NSAzMjcuNTMsMjc3LjAzIDMyOS4zMSwyNzcuMzIgMzMxLjA5LDI3Ny41NCAzMzIuODcsMjc3LjcwIDMzNC42NSwyNzcuODAgMzM2LjQ0LDI3Ny44NyAzMzguMjIsMjc3LjkxIDM0MC4wMCwyNzcuOTQgMzQxLjc4LDI3Ny45NyAzNDMuNTcsMjc4LjAwIDM0NS4zNSwyNzguMDQgMzQ3LjEzLDI3OC4xMCAzNDguOTEsMjc4LjE3IDM1MC43MCwyNzguMjcgMzUyLjQ4LDI3OC4zOSAzNTQuMjYsMjc4LjUzIDM1Ni4wNCwyNzguNzEgMzU3LjgzLDI3OC45MiAzNTkuNjEsMjc5LjE2Ii8+JiN4YTs8cG9seWdvbiBzdHlsZT0ic3Ryb2tlLXdpZHRoOiAwLjAwOyBzdHJva2U6IG5vbmU7IHN0cm9rZS1saW5lY2FwOiBidXR0OyBmaWxsOiAjRkZGNEUwOyIgcG9pbnRzPSIzLjEzLDI4NS4wMSA0LjkxLDI4NS4wMSA2LjcwLDI4NS4wMSA4LjQ4LDI4NS4wMSAxMC4yNiwyODUuMDEgMTIuMDQsMjg1LjAxIDEzLjgzLDI4NS4wMSAxNS42MSwyODUuMDEgMTcuMzksMjg1LjAxIDE5LjE3LDI4NS4wMSAyMC45NiwyODUuMDEgMjIuNzQsMjg1LjAxIDI0LjUyLDI4NS4wMSAyNi4zMCwyODUuMDEgMjguMDksMjg1LjAxIDI5Ljg3LDI4NS4wMSAzMS42NSwyODUuMDEgMzMuNDMsMjg1LjAxIDM1LjIxLDI4NS4wMSAzNy4wMCwyODUuMDEgMzguNzgsMjg1LjAxIDQwLjU2LDI4NS4wMSA0Mi4zNCwyODUuMDEgNDQuMTMsMjg1LjAxIDQ1LjkxLDI4NS4wMSA0Ny42OSwyODUuMDEgNDkuNDcsMjg1LjAxIDUxLjI2LDI4NS4wMSA1My4wNCwyODUuMDEgNTQuODIsMjg1LjAxIDU2LjYwLDI4NS4wMSA1OC4zOSwyODUuMDEgNjAuMTcsMjg1LjAxIDYxLjk1LDI4NS4wMSA2My43MywyODUuMDEgNjUuNTIsMjg1LjAxIDY3LjMwLDI4NS4wMSA2OS4wOCwyODUuMDEgNzAuODYsMjg1LjAxIDcyLjY0LDI4NS4wMSA3NC40MywyODUuMDEgNzYuMjEsMjg1LjAxIDc3Ljk5LDI4NS4wMSA3OS43NywyODUuMDEgODEuNTYsMjg1LjAxIDgzLjM0LDI4NS4wMSA4NS4xMiwyODUuMDEgODYuOTAsMjg1LjAxIDg4LjY5LDI4NS4wMSA5MC40NywyODUuMDEgOTIuMjUsMjg1LjAxIDk0LjAzLDI4NS4wMSA5NS44MiwyODUuMDEgOTcuNjAsMjg1LjAxIDk5LjM4LDI4NS4wMSAxMDEuMTYsMjg1LjAxIDEwMi45NSwyODUuMDEgMTA0LjczLDI4NS4wMSAxMDYuNTEsMjg1LjAxIDEwOC4yOSwyODUuMDEgMTEwLjA3LDI4NS4wMSAxMTEuODYsMjg1LjAxIDExMy42NCwyODUuMDEgMTE1LjQyLDI4NS4wMSAxMTcuMjAsMjg1LjAxIDExOC45OSwyODUuMDEgMTIwLjc3LDI4NS4wMSAxMjIuNTUsMjg1LjAxIDEyNC4zMywyODUuMDEgMTI2LjEyLDI4NS4wMSAxMjcuOTAsMjg1LjAxIDEyOS42OCwyODUuMDEgMTMxLjQ2LDI4NS4wMSAxMzMuMjUsMjg1LjAxIDEzNS4wMywyODUuMDEgMTM2LjgxLDI4NS4wMSAxMzguNTksMjg1LjAxIDE0MC4zOCwyODUuMDEgMTQyLjE2LDI4NS4wMSAxNDMuOTQsMjg1LjAxIDE0NS43MiwyODUuMDEgMTQ3LjUwLDI4NS4wMSAxNDkuMjksMjg1LjAxIDE1MS4wNywyODUuMDEgMTUyLjg1LDI4NS4wMSAxNTQuNjMsMjg1LjAxIDE1Ni40MiwyODUuMDEgMTU4LjIwLDI4NS4wMSAxNTkuOTgsMjg1LjAxIDE2MS43NiwyODUuMDEgMTYzLjU1LDI4NS4wMSAxNjUuMzMsMjg1LjAxIDE2Ny4xMSwyODUuMDEgMTY4Ljg5LDI4NS4wMSAxNzAuNjgsMjg1LjAxIDE3Mi40NiwyODUuMDEgMTc0LjI0LDI4NS4wMSAxNzYuMDIsMjg1LjAxIDE3Ny44MSwyODUuMDEgMTc5LjU5LDI4NS4wMSAxODEuMzcsMjg1LjAxIDE4My4xNSwyODUuMDEgMTg0LjkzLDI4NS4wMSAxODYuNzIsMjg1LjAxIDE4OC41MCwyODUuMDEgMTkwLjI4LDI4NS4wMSAxOTIuMDYsMjg1LjAxIDE5My44NSwyODUuMDEgMTk1LjYzLDI4NS4wMSAxOTcuNDEsMjg1LjAxIDE5OS4xOSwyODUuMDEgMjAwLjk4LDI4NS4wMSAyMDIuNzYsMjg1LjAxIDIwNC41NCwyODUuMDEgMjA2LjMyLDI4NS4wMSAyMDguMTEsMjg1LjAxIDIwOS44OSwyODUuMDEgMjExLjY3LDI4NS4wMSAyMTMuNDUsMjg1LjAxIDIxNS4yNCwyODUuMDEgMjE3LjAyLDI4NS4wMSAyMTguODAsMjg1LjAxIDIyMC41OCwyODUuMDEgMjIyLjM2LDI4NS4wMSAyMjQuMTUsMjg1LjAxIDIyNS45MywyODUuMDEgMjI3LjcxLDI4NS4wMSAyMjkuNDksMjg1LjAxIDIzMS4yOCwyODUuMDEgMjMzLjA2LDI4NS4wMSAyMzQuODQsMjg1LjAxIDIzNi42MiwyODUuMDEgMjM4LjQxLDI4NS4wMSAyNDAuMTksMjg1LjAxIDI0MS45NywyODUuMDEgMjQzLjc1LDI4NS4wMSAyNDUuNTQsMjg1LjAxIDI0Ny4zMiwyODUuMDEgMjQ5LjEwLDI4NS4wMSAyNTAuODgsMjg1LjAxIDI1Mi42NywyODUuMDEgMjU0LjQ1LDI4NS4wMSAyNTYuMjMsMjg1LjAxIDI1OC4wMSwyODUuMDEgMjU5Ljc5LDI4NS4wMSAyNjEuNTgsMjg1LjAxIDI2My4zNiwyODUuMDEgMjY1LjE0LDI4NS4wMSAyNjYuOTIsMjg1LjAxIDI2OC43MSwyODUuMDEgMjcwLjQ5LDI4NS4wMSAyNzIuMjcsMjg1LjAxIDI3NC4wNSwyODUuMDEgMjc1Ljg0LDI4NS4wMSAyNzcuNjIsMjg1LjAxIDI3OS40MCwyODUuMDEgMjgxLjE4LDI4NS4wMSAyODIuOTcsMjg1LjAxIDI4NC43NSwyODUuMDEgMjg2LjUzLDI4NS4wMSAyODguMzEsMjg1LjAxIDI5MC4xMCwyODIuMDggMjkxLjg4LDI3OS40NSAyOTMuNjYsMjc3LjIyIDI5NS40NCwyNzUuMzcgMjk3LjIyLDI3My44NiAyOTkuMDEsMjcyLjY5IDMwMC43OSwyNzEuODIgMzAyLjU3LDI3MS4yMyAzMDQuMzUsMjcwLjkwIDMwNi4xNCwyNzAuODAgMzA3LjkyLDI3MC45MSAzMDkuNzAsMjcxLjIxIDMxMS40OCwyNzEuNjUgMzEzLjI3LDI3Mi4yMSAzMTUuMDUsMjcyLjg1IDMxNi44MywyNzMuNTQgMzE4LjYxLDI3NC4yNSAzMjAuNDAsMjc0Ljk0IDMyMi4xOCwyNzUuNjAgMzIzLjk2LDI3Ni4xNyAzMjUuNzQsMjc2LjY1IDMyNy41MywyNzcuMDMgMzI5LjMxLDI3Ny4zMiAzMzEuMDksMjc3LjU0IDMzMi44NywyNzcuNzAgMzM0LjY1LDI3Ny44MCAzMzYuNDQsMjc3Ljg3IDMzOC4yMiwyNzcuOTEgMzQwLjAwLDI3Ny45NCAzNDEuNzgsMjc3Ljk3IDM0My41NywyNzguMDAgMzQ1LjM1LDI3OC4wNCAzNDcuMTMsMjc4LjEwIDM0OC45MSwyNzguMTcgMzUwLjcwLDI3OC4yNyAzNTIuNDgsMjc4LjM5IDM1NC4yNiwyNzguNTMgMzU2LjA0LDI3OC43MSAzNTcuODMsMjc4LjkyIDM1OS42MSwyNzkuMTYgMzU5LjYxLDI4NS4xMyAzNTcuODMsMjg1LjEzIDM1Ni4wNCwyODUuMTMgMzU0LjI2LDI4NS4xMyAzNTIuNDgsMjg1LjEzIDM1MC43MCwyODUuMTMgMzQ4LjkxLDI4NS4xMyAzNDcuMTMsMjg1LjEzIDM0NS4zNSwyODUuMTMgMzQzLjU3LDI4NS4xMyAzNDEuNzgsMjg1LjEzIDM0MC4wMCwyODUuMTMgMzM4LjIyLDI4NS4xMyAzMzYuNDQsMjg1LjEzIDMzNC42NSwyODUuMTMgMzMyLjg3LDI4NS4xMyAzMzEuMDksMjg1LjEzIDMyOS4zMSwyODUuMTMgMzI3LjUzLDI4NS4xMyAzMjUuNzQsMjg1LjEzIDMyMy45NiwyODUuMTMgMzIyLjE4LDI4NS4xMyAzMjAuNDAsMjg1LjEzIDMxOC42MSwyODUuMTMgMzE2LjgzLDI4NS4xMyAzMTUuMDUsMjg1LjEzIDMxMy4yNywyODUuMTMgMzExLjQ4LDI4NS4xMyAzMDkuNzAsMjg1LjEzIDMwNy45MiwyODUuMTMgMzA2LjE0LDI4NS4xMyAzMDQuMzUsMjg1LjEzIDMwMi41NywyODUuMTMgMzAwLjc5LDI4NS4xMyAyOTkuMDEsMjg1LjEzIDI5Ny4yMiwyODUuMTMgMjk1LjQ0LDI4NS4xMyAyOTMuNjYsMjg1LjEzIDI5MS44OCwyODUuMTMgMjkwLjEwLDI4NS4xMyAyODguMzEsMjg1LjEzIDI4Ni41MywyODUuMTMgMjg0Ljc1LDI4NS4xMyAyODIuOTcsMjg1LjEzIDI4MS4xOCwyODUuMTMgMjc5LjQwLDI4NS4xMyAyNzcuNjIsMjg1LjEzIDI3NS44NCwyODUuMTMgMjc0LjA1LDI4NS4xMyAyNzIuMjcsMjg1LjEzIDI3MC40OSwyODUuMTMgMjY4LjcxLDI4NS4xMyAyNjYuOTIsMjg1LjEzIDI2NS4xNCwyODUuMTMgMjYzLjM2LDI4NS4xMyAyNjEuNTgsMjg1LjEzIDI1OS43OSwyODUuMTMgMjU4LjAxLDI4NS4xMyAyNTYuMjMsMjg1LjEzIDI1NC40NSwyODUuMTMgMjUyLjY3LDI4NS4xMyAyNTAuODgsMjg1LjEzIDI0OS4xMCwyODUuMTMgMjQ3LjMyLDI4NS4xMyAyNDUuNTQsMjg1LjEzIDI0My43NSwyODUuMTMgMjQxLjk3LDI4NS4xMyAyNDAuMTksMjg1LjEzIDIzOC40MSwyODUuMTMgMjM2LjYyLDI4NS4xMyAyMzQuODQsMjg1LjEzIDIzMy4wNiwyODUuMTMgMjMxLjI4LDI4NS4xMyAyMjkuNDksMjg1LjEzIDIyNy43MSwyODUuMTMgMjI1LjkzLDI4NS4xMyAyMjQuMTUsMjg1LjEzIDIyMi4zNiwyODUuMTMgMjIwLjU4LDI4NS4xMyAyMTguODAsMjg1LjEzIDIxNy4wMiwyODUuMTMgMjE1LjI0LDI4NS4xMyAyMTMuNDUsMjg1LjEzIDIxMS42NywyODUuMTMgMjA5Ljg5LDI4NS4xMyAyMDguMTEsMjg1LjEzIDIwNi4zMiwyODUuMTMgMjA0LjU0LDI4NS4xMyAyMDIuNzYsMjg1LjEzIDIwMC45OCwyODUuMTMgMTk5LjE5LDI4NS4xMyAxOTcuNDEsMjg1LjEzIDE5NS42MywyODUuMTMgMTkzLjg1LDI4NS4xMyAxOTIuMDYsMjg1LjEzIDE5MC4yOCwyODUuMTMgMTg4LjUwLDI4NS4xMyAxODYuNzIsMjg1LjEzIDE4NC45MywyODUuMTMgMTgzLjE1LDI4NS4xMyAxODEuMzcsMjg1LjEzIDE3OS41OSwyODUuMTMgMTc3LjgxLDI4NS4xMyAxNzYuMDIsMjg1LjEzIDE3NC4yNCwyODUuMTMgMTcyLjQ2LDI4NS4xMyAxNzAuNjgsMjg1LjEzIDE2OC44OSwyODUuMTMgMTY3LjExLDI4NS4xMyAxNjUuMzMsMjg1LjEzIDE2My41NSwyODUuMTMgMTYxLjc2LDI4NS4xMyAxNTkuOTgsMjg1LjEzIDE1OC4yMCwyODUuMTMgMTU2LjQyLDI4NS4xMyAxNTQuNjMsMjg1LjEzIDE1Mi44NSwyODUuMTMgMTUxLjA3LDI4NS4xMyAxNDkuMjksMjg1LjEzIDE0Ny41MCwyODUuMTMgMTQ1LjcyLDI4NS4xMyAxNDMuOTQsMjg1LjEzIDE0Mi4xNiwyODUuMTMgMTQwLjM4LDI4NS4xMyAxMzguNTksMjg1LjEzIDEzNi44MSwyODUuMTMgMTM1LjAzLDI4NS4xMyAxMzMuMjUsMjg1LjEzIDEzMS40NiwyODUuMTMgMTI5LjY4LDI4NS4xMyAxMjcuOTAsMjg1LjEzIDEyNi4xMiwyODUuMTMgMTI0LjMzLDI4NS4xMyAxMjIuNTUsMjg1LjEzIDEyMC43NywyODUuMTMgMTE4Ljk5LDI4NS4xMyAxMTcuMjAsMjg1LjEzIDExNS40MiwyODUuMTMgMTEzLjY0LDI4NS4xMyAxMTEuODYsMjg1LjEzIDExMC4wNywyODUuMTMgMTA4LjI5LDI4NS4xMyAxMDYuNTEsMjg1LjEzIDEwNC43MywyODUuMTMgMTAyLjk1LDI4NS4xMyAxMDEuMTYsMjg1LjEzIDk5LjM4LDI4NS4xMyA5Ny42MCwyODUuMTMgOTUuODIsMjg1LjEzIDk0LjAzLDI4NS4xMyA5Mi4yNSwyODUuMTMgOTAuNDcsMjg1LjEzIDg4LjY5LDI4NS4xMyA4Ni45MCwyODUuMTMgODUuMTIsMjg1LjEzIDgzLjM0LDI4NS4xMyA4MS41NiwyODUuMTMgNzkuNzcsMjg1LjEzIDc3Ljk5LDI4NS4xMyA3Ni4yMSwyODUuMTMgNzQuNDMsMjg1LjEzIDcyLjY0LDI4NS4xMyA3MC44NiwyODUuMTMgNjkuMDgsMjg1LjEzIDY3LjMwLDI4NS4xMyA2NS41MiwyODUuMTMgNjMuNzMsMjg1LjEzIDYxLjk1LDI4NS4xMyA2MC4xNywyODUuMTMgNTguMzksMjg1LjEzIDU2LjYwLDI4NS4xMyA1NC44MiwyODUuMTMgNTMuMDQsMjg1LjEzIDUxLjI2LDI4NS4xMyA0OS40NywyODUuMTMgNDcuNjksMjg1LjEzIDQ1LjkxLDI4NS4xMyA0NC4xMywyODUuMTMgNDIuMzQsMjg1LjEzIDQwLjU2LDI4NS4xMyAzOC43OCwyODUuMTMgMzcuMDAsMjg1LjEzIDM1LjIxLDI4NS4xMyAzMy40MywyODUuMTMgMzEuNjUsMjg1LjEzIDI5Ljg3LDI4NS4xMyAyOC4wOSwyODUuMTMgMjYuMzAsMjg1LjEzIDI0LjUyLDI4NS4xMyAyMi43NCwyODUuMTMgMjAuOTYsMjg1LjEzIDE5LjE3LDI4NS4xMyAxNy4zOSwyODUuMTMgMTUuNjEsMjg1LjEzIDEzLjgzLDI4NS4xMyAxMi4wNCwyODUuMTMgMTAuMjYsMjg1LjEzIDguNDgsMjg1LjEzIDYuNzAsMjg1LjEzIDQuOTEsMjg1LjEzIDMuMTMsMjg1LjEzIi8+JiN4YTs8cG9seWxpbmUgc3R5bGU9InN0cm9rZS13aWR0aDogMS4wNzsgc3Ryb2tlOiBub25lOyBzdHJva2UtbGluZWNhcDogYnV0dDsiIHBvaW50cz0iMy4xMywyODUuMDEgNC45MSwyODUuMDEgNi43MCwyODUuMDEgOC40OCwyODUuMDEgMTAuMjYsMjg1LjAxIDEyLjA0LDI4NS4wMSAxMy44MywyODUuMDEgMTUuNjEsMjg1LjAxIDE3LjM5LDI4NS4wMSAxOS4xNywyODUuMDEgMjAuOTYsMjg1LjAxIDIyLjc0LDI4NS4wMSAyNC41MiwyODUuMDEgMjYuMzAsMjg1LjAxIDI4LjA5LDI4NS4wMSAyOS44NywyODUuMDEgMzEuNjUsMjg1LjAxIDMzLjQzLDI4NS4wMSAzNS4yMSwyODUuMDEgMzcuMDAsMjg1LjAxIDM4Ljc4LDI4NS4wMSA0MC41NiwyODUuMDEgNDIuMzQsMjg1LjAxIDQ0LjEzLDI4NS4wMSA0NS45MSwyODUuMDEgNDcuNjksMjg1LjAxIDQ5LjQ3LDI4NS4wMSA1MS4yNiwyODUuMDEgNTMuMDQsMjg1LjAxIDU0LjgyLDI4NS4wMSA1Ni42MCwyODUuMDEgNTguMzksMjg1LjAxIDYwLjE3LDI4NS4wMSA2MS45NSwyODUuMDEgNjMuNzMsMjg1LjAxIDY1LjUyLDI4NS4wMSA2Ny4zMCwyODUuMDEgNjkuMDgsMjg1LjAxIDcwLjg2LDI4NS4wMSA3Mi42NCwyODUuMDEgNzQuNDMsMjg1LjAxIDc2LjIxLDI4NS4wMSA3Ny45OSwyODUuMDEgNzkuNzcsMjg1LjAxIDgxLjU2LDI4NS4wMSA4My4zNCwyODUuMDEgODUuMTIsMjg1LjAxIDg2LjkwLDI4NS4wMSA4OC42OSwyODUuMDEgOTAuNDcsMjg1LjAxIDkyLjI1LDI4NS4wMSA5NC4wMywyODUuMDEgOTUuODIsMjg1LjAxIDk3LjYwLDI4NS4wMSA5OS4zOCwyODUuMDEgMTAxLjE2LDI4NS4wMSAxMDIuOTUsMjg1LjAxIDEwNC43MywyODUuMDEgMTA2LjUxLDI4NS4wMSAxMDguMjksMjg1LjAxIDExMC4wNywyODUuMDEgMTExLjg2LDI4NS4wMSAxMTMuNjQsMjg1LjAxIDExNS40MiwyODUuMDEgMTE3LjIwLDI4NS4wMSAxMTguOTksMjg1LjAxIDEyMC43NywyODUuMDEgMTIyLjU1LDI4NS4wMSAxMjQuMzMsMjg1LjAxIDEyNi4xMiwyODUuMDEgMTI3LjkwLDI4NS4wMSAxMjkuNjgsMjg1LjAxIDEzMS40NiwyODUuMDEgMTMzLjI1LDI4NS4wMSAxMzUuMDMsMjg1LjAxIDEzNi44MSwyODUuMDEgMTM4LjU5LDI4NS4wMSAxNDAuMzgsMjg1LjAxIDE0Mi4xNiwyODUuMDEgMTQzLjk0LDI4NS4wMSAxNDUuNzIsMjg1LjAxIDE0Ny41MCwyODUuMDEgMTQ5LjI5LDI4NS4wMSAxNTEuMDcsMjg1LjAxIDE1Mi44NSwyODUuMDEgMTU0LjYzLDI4NS4wMSAxNTYuNDIsMjg1LjAxIDE1OC4yMCwyODUuMDEgMTU5Ljk4LDI4NS4wMSAxNjEuNzYsMjg1LjAxIDE2My41NSwyODUuMDEgMTY1LjMzLDI4NS4wMSAxNjcuMTEsMjg1LjAxIDE2OC44OSwyODUuMDEgMTcwLjY4LDI4NS4wMSAxNzIuNDYsMjg1LjAxIDE3NC4yNCwyODUuMDEgMTc2LjAyLDI4NS4wMSAxNzcuODEsMjg1LjAxIDE3OS41OSwyODUuMDEgMTgxLjM3LDI4NS4wMSAxODMuMTUsMjg1LjAxIDE4NC45MywyODUuMDEgMTg2LjcyLDI4NS4wMSAxODguNTAsMjg1LjAxIDE5MC4yOCwyODUuMDEgMTkyLjA2LDI4NS4wMSAxOTMuODUsMjg1LjAxIDE5NS42MywyODUuMDEgMTk3LjQxLDI4NS4wMSAxOTkuMTksMjg1LjAxIDIwMC45OCwyODUuMDEgMjAyLjc2LDI4NS4wMSAyMDQuNTQsMjg1LjAxIDIwNi4zMiwyODUuMDEgMjA4LjExLDI4NS4wMSAyMDkuODksMjg1LjAxIDIxMS42NywyODUuMDEgMjEzLjQ1LDI4NS4wMSAyMTUuMjQsMjg1LjAxIDIxNy4wMiwyODUuMDEgMjE4LjgwLDI4NS4wMSAyMjAuNTgsMjg1LjAxIDIyMi4zNiwyODUuMDEgMjI0LjE1LDI4NS4wMSAyMjUuOTMsMjg1LjAxIDIyNy43MSwyODUuMDEgMjI5LjQ5LDI4NS4wMSAyMzEuMjgsMjg1LjAxIDIzMy4wNiwyODUuMDEgMjM0Ljg0LDI4NS4wMSAyMzYuNjIsMjg1LjAxIDIzOC40MSwyODUuMDEgMjQwLjE5LDI4NS4wMSAyNDEuOTcsMjg1LjAxIDI0My43NSwyODUuMDEgMjQ1LjU0LDI4NS4wMSAyNDcuMzIsMjg1LjAxIDI0OS4xMCwyODUuMDEgMjUwLjg4LDI4NS4wMSAyNTIuNjcsMjg1LjAxIDI1NC40NSwyODUuMDEgMjU2LjIzLDI4NS4wMSAyNTguMDEsMjg1LjAxIDI1OS43OSwyODUuMDEgMjYxLjU4LDI4NS4wMSAyNjMuMzYsMjg1LjAxIDI2NS4xNCwyODUuMDEgMjY2LjkyLDI4NS4wMSAyNjguNzEsMjg1LjAxIDI3MC40OSwyODUuMDEgMjcyLjI3LDI4NS4wMSAyNzQuMDUsMjg1LjAxIDI3NS44NCwyODUuMDEgMjc3LjYyLDI4NS4wMSAyNzkuNDAsMjg1LjAxIDI4MS4xOCwyODUuMDEgMjgyLjk3LDI4NS4wMSAyODQuNzUsMjg1LjAxIDI4Ni41MywyODUuMDEgMjg4LjMxLDI4NS4wMSAyOTAuMTAsMjgyLjA4IDI5MS44OCwyNzkuNDUgMjkzLjY2LDI3Ny4yMiAyOTUuNDQsMjc1LjM3IDI5Ny4yMiwyNzMuODYgMjk5LjAxLDI3Mi42OSAzMDAuNzksMjcxLjgyIDMwMi41NywyNzEuMjMgMzA0LjM1LDI3MC45MCAzMDYuMTQsMjcwLjgwIDMwNy45MiwyNzAuOTEgMzA5LjcwLDI3MS4yMSAzMTEuNDgsMjcxLjY1IDMxMy4yNywyNzIuMjEgMzE1LjA1LDI3Mi44NSAzMTYuODMsMjczLjU0IDMxOC42MSwyNzQuMjUgMzIwLjQwLDI3NC45NCAzMjIuMTgsMjc1LjYwIDMyMy45NiwyNzYuMTcgMzI1Ljc0LDI3Ni42NSAzMjcuNTMsMjc3LjAzIDMyOS4zMSwyNzcuMzIgMzMxLjA5LDI3Ny41NCAzMzIuODcsMjc3LjcwIDMzNC42NSwyNzcuODAgMzM2LjQ0LDI3Ny44NyAzMzguMjIsMjc3LjkxIDM0MC4wMCwyNzcuOTQgMzQxLjc4LDI3Ny45NyAzNDMuNTcsMjc4LjAwIDM0NS4zNSwyNzguMDQgMzQ3LjEzLDI3OC4xMCAzNDguOTEsMjc4LjE3IDM1MC43MCwyNzguMjcgMzUyLjQ4LDI3OC4zOSAzNTQuMjYsMjc4LjUzIDM1Ni4wNCwyNzguNzEgMzU3LjgzLDI3OC45MiAzNTkuNjEsMjc5LjE2Ii8+JiN4YTs8cG9seWxpbmUgc3R5bGU9InN0cm9rZS13aWR0aDogMS4wNzsgc3Ryb2tlOiBub25lOyBzdHJva2UtbGluZWNhcDogYnV0dDsiIHBvaW50cz0iMzU5LjYxLDI4NS4xMyAzNTcuODMsMjg1LjEzIDM1Ni4wNCwyODUuMTMgMzU0LjI2LDI4NS4xMyAzNTIuNDgsMjg1LjEzIDM1MC43MCwyODUuMTMgMzQ4LjkxLDI4NS4xMyAzNDcuMTMsMjg1LjEzIDM0NS4zNSwyODUuMTMgMzQzLjU3LDI4NS4xMyAzNDEuNzgsMjg1LjEzIDM0MC4wMCwyODUuMTMgMzM4LjIyLDI4NS4xMyAzMzYuNDQsMjg1LjEzIDMzNC42NSwyODUuMTMgMzMyLjg3LDI4NS4xMyAzMzEuMDksMjg1LjEzIDMyOS4zMSwyODUuMTMgMzI3LjUzLDI4NS4xMyAzMjUuNzQsMjg1LjEzIDMyMy45NiwyODUuMTMgMzIyLjE4LDI4NS4xMyAzMjAuNDAsMjg1LjEzIDMxOC42MSwyODUuMTMgMzE2LjgzLDI4NS4xMyAzMTUuMDUsMjg1LjEzIDMxMy4yNywyODUuMTMgMzExLjQ4LDI4NS4xMyAzMDkuNzAsMjg1LjEzIDMwNy45MiwyODUuMTMgMzA2LjE0LDI4NS4xMyAzMDQuMzUsMjg1LjEzIDMwMi41NywyODUuMTMgMzAwLjc5LDI4NS4xMyAyOTkuMDEsMjg1LjEzIDI5Ny4yMiwyODUuMTMgMjk1LjQ0LDI4NS4xMyAyOTMuNjYsMjg1LjEzIDI5MS44OCwyODUuMTMgMjkwLjEwLDI4NS4xMyAyODguMzEsMjg1LjEzIDI4Ni41MywyODUuMTMgMjg0Ljc1LDI4NS4xMyAyODIuOTcsMjg1LjEzIDI4MS4xOCwyODUuMTMgMjc5LjQwLDI4NS4xMyAyNzcuNjIsMjg1LjEzIDI3NS44NCwyODUuMTMgMjc0LjA1LDI4NS4xMyAyNzIuMjcsMjg1LjEzIDI3MC40OSwyODUuMTMgMjY4LjcxLDI4NS4xMyAyNjYuOTIsMjg1LjEzIDI2NS4xNCwyODUuMTMgMjYzLjM2LDI4NS4xMyAyNjEuNTgsMjg1LjEzIDI1OS43OSwyODUuMTMgMjU4LjAxLDI4NS4xMyAyNTYuMjMsMjg1LjEzIDI1NC40NSwyODUuMTMgMjUyLjY3LDI4NS4xMyAyNTAuODgsMjg1LjEzIDI0OS4xMCwyODUuMTMgMjQ3LjMyLDI4NS4xMyAyNDUuNTQsMjg1LjEzIDI0My43NSwyODUuMTMgMjQxLjk3LDI4NS4xMyAyNDAuMTksMjg1LjEzIDIzOC40MSwyODUuMTMgMjM2LjYyLDI4NS4xMyAyMzQuODQsMjg1LjEzIDIzMy4wNiwyODUuMTMgMjMxLjI4LDI4NS4xMyAyMjkuNDksMjg1LjEzIDIyNy43MSwyODUuMTMgMjI1LjkzLDI4NS4xMyAyMjQuMTUsMjg1LjEzIDIyMi4zNiwyODUuMTMgMjIwLjU4LDI4NS4xMyAyMTguODAsMjg1LjEzIDIxNy4wMiwyODUuMTMgMjE1LjI0LDI4NS4xMyAyMTMuNDUsMjg1LjEzIDIxMS42NywyODUuMTMgMjA5Ljg5LDI4NS4xMyAyMDguMTEsMjg1LjEzIDIwNi4zMiwyODUuMTMgMjA0LjU0LDI4NS4xMyAyMDIuNzYsMjg1LjEzIDIwMC45OCwyODUuMTMgMTk5LjE5LDI4NS4xMyAxOTcuNDEsMjg1LjEzIDE5NS42MywyODUuMTMgMTkzLjg1LDI4NS4xMyAxOTIuMDYsMjg1LjEzIDE5MC4yOCwyODUuMTMgMTg4LjUwLDI4NS4xMyAxODYuNzIsMjg1LjEzIDE4NC45MywyODUuMTMgMTgzLjE1LDI4NS4xMyAxODEuMzcsMjg1LjEzIDE3OS41OSwyODUuMTMgMTc3LjgxLDI4NS4xMyAxNzYuMDIsMjg1LjEzIDE3NC4yNCwyODUuMTMgMTcyLjQ2LDI4NS4xMyAxNzAuNjgsMjg1LjEzIDE2OC44OSwyODUuMTMgMTY3LjExLDI4NS4xMyAxNjUuMzMsMjg1LjEzIDE2My41NSwyODUuMTMgMTYxLjc2LDI4NS4xMyAxNTkuOTgsMjg1LjEzIDE1OC4yMCwyODUuMTMgMTU2LjQyLDI4NS4xMyAxNTQuNjMsMjg1LjEzIDE1Mi44NSwyODUuMTMgMTUxLjA3LDI4NS4xMyAxNDkuMjksMjg1LjEzIDE0Ny41MCwyODUuMTMgMTQ1LjcyLDI4NS4xMyAxNDMuOTQsMjg1LjEzIDE0Mi4xNiwyODUuMTMgMTQwLjM4LDI4NS4xMyAxMzguNTksMjg1LjEzIDEzNi44MSwyODUuMTMgMTM1LjAzLDI4NS4xMyAxMzMuMjUsMjg1LjEzIDEzMS40NiwyODUuMTMgMTI5LjY4LDI4NS4xMyAxMjcuOTAsMjg1LjEzIDEyNi4xMiwyODUuMTMgMTI0LjMzLDI4NS4xMyAxMjIuNTUsMjg1LjEzIDEyMC43NywyODUuMTMgMTE4Ljk5LDI4NS4xMyAxMTcuMjAsMjg1LjEzIDExNS40MiwyODUuMTMgMTEzLjY0LDI4NS4xMyAxMTEuODYsMjg1LjEzIDExMC4wNywyODUuMTMgMTA4LjI5LDI4NS4xMyAxMDYuNTEsMjg1LjEzIDEwNC43MywyODUuMTMgMTAyLjk1LDI4NS4xMyAxMDEuMTYsMjg1LjEzIDk5LjM4LDI4NS4xMyA5Ny42MCwyODUuMTMgOTUuODIsMjg1LjEzIDk0LjAzLDI4NS4xMyA5Mi4yNSwyODUuMTMgOTAuNDcsMjg1LjEzIDg4LjY5LDI4NS4xMyA4Ni45MCwyODUuMTMgODUuMTIsMjg1LjEzIDgzLjM0LDI4NS4xMyA4MS41NiwyODUuMTMgNzkuNzcsMjg1LjEzIDc3Ljk5LDI4NS4xMyA3Ni4yMSwyODUuMTMgNzQuNDMsMjg1LjEzIDcyLjY0LDI4NS4xMyA3MC44NiwyODUuMTMgNjkuMDgsMjg1LjEzIDY3LjMwLDI4NS4xMyA2NS41MiwyODUuMTMgNjMuNzMsMjg1LjEzIDYxLjk1LDI4NS4xMyA2MC4xNywyODUuMTMgNTguMzksMjg1LjEzIDU2LjYwLDI4NS4xMyA1NC44MiwyODUuMTMgNTMuMDQsMjg1LjEzIDUxLjI2LDI4NS4xMyA0OS40NywyODUuMTMgNDcuNjksMjg1LjEzIDQ1LjkxLDI4NS4xMyA0NC4xMywyODUuMTMgNDIuMzQsMjg1LjEzIDQwLjU2LDI4NS4xMyAzOC43OCwyODUuMTMgMzcuMDAsMjg1LjEzIDM1LjIxLDI4NS4xMyAzMy40MywyODUuMTMgMzEuNjUsMjg1LjEzIDI5Ljg3LDI4NS4xMyAyOC4wOSwyODUuMTMgMjYuMzAsMjg1LjEzIDI0LjUyLDI4NS4xMyAyMi43NCwyODUuMTMgMjAuOTYsMjg1LjEzIDE5LjE3LDI4NS4xMyAxNy4zOSwyODUuMTMgMTUuNjEsMjg1LjEzIDEzLjgzLDI4NS4xMyAxMi4wNCwyODUuMTMgMTAuMjYsMjg1LjEzIDguNDgsMjg1LjEzIDYuNzAsMjg1LjEzIDQuOTEsMjg1LjEzIDMuMTMsMjg1LjEzIi8+JiN4YTs8L2c+JiN4YTs8ZyBjbGlwLXBhdGg9InVybCgjY3BNQzR3TUh3ek5qQXVNREI4TUM0d01IdzBNekl1TURBPSkiPiYjeGE7PC9nPiYjeGE7PGRlZnM+JiN4YTsgIDxjbGlwUGF0aCBpZD0iY3BNQzR3TUh3ek5qQXVNREI4TWpnNExqQXdmRFF6TWk0d01BPT0iPiYjeGE7ICAgIDxyZWN0IGhlaWdodD0iMTQ0LjAwIiB3aWR0aD0iMzYwLjAwIiB5PSIyODguMDAiIHg9IjAuMDAiLz4mI3hhOyAgPC9jbGlwUGF0aD4mI3hhOzwvZGVmcz4mI3hhOzxnIGNsaXAtcGF0aD0idXJsKCNjcE1DNHdNSHd6TmpBdU1EQjhNamc0TGpBd2ZEUXpNaTR3TUE9PSkiPiYjeGE7PHJlY3Qgc3R5bGU9InN0cm9rZS13aWR0aDogMS4wNzsgc3Ryb2tlOiAjRkZGRkZGOyBmaWxsOiAjRkZGRkZGOyIgaGVpZ2h0PSIxNDQuMDAiIHdpZHRoPSIzNjAuMDAiIHk9IjI4OC4wMCIgeD0iMC4wMCIvPiYjeGE7PC9nPiYjeGE7PGcgY2xpcC1wYXRoPSJ1cmwoI2NwTUM0d01Id3pOakF1TURCOE1DNHdNSHcwTXpJdU1EQT0pIj4mI3hhOzwvZz4mI3hhOzxkZWZzPiYjeGE7ICA8Y2xpcFBhdGggaWQ9ImNwTWk0M05Id3pOakF1TURCOE16QTVMall3ZkRReU9TNHlOZz09Ij4mI3hhOyAgICA8cmVjdCBoZWlnaHQ9IjExOS42NiIgd2lkdGg9IjM1Ny4yNiIgeT0iMzA5LjYwIiB4PSIyLjc0Ii8+JiN4YTsgIDwvY2xpcFBhdGg+JiN4YTs8L2RlZnM+JiN4YTs8ZyBjbGlwLXBhdGg9InVybCgjY3BNaTQzTkh3ek5qQXVNREI4TXpBNUxqWXdmRFF5T1M0eU5nPT0pIj4mI3hhOzxyZWN0IHN0eWxlPSJzdHJva2Utd2lkdGg6IDEuMDc7IGZpbGw6ICNGRkZGRkY7IiBoZWlnaHQ9IjExOS42NiIgd2lkdGg9IjM1Ny4yNiIgeT0iMzA5LjYwIiB4PSIyLjc0Ii8+JiN4YTs8cG9seWdvbiBzdHlsZT0ic3Ryb2tlLXdpZHRoOiAwLjAwOyBzdHJva2U6IG5vbmU7IHN0cm9rZS1saW5lY2FwOiBidXR0OyBmaWxsOiAjRDFFOEZGOyIgcG9pbnRzPSIzLjEzLDMyNy42NCA0LjkxLDMyNy44MyA2LjcwLDMyOC4wOSA4LjQ4LDMyOC40MSAxMC4yNiwzMjguNzkgMTIuMDQsMzI5LjIyIDEzLjgzLDMyOS43MSAxNS42MSwzMzAuMjQgMTcuMzksMzMwLjgyIDE5LjE3LDMzMS40NCAyMC45NiwzMzIuMDkgMjIuNzQsMzMyLjc3IDI0LjUyLDMzMy40NyAyNi4zMCwzMzQuMjAgMjguMDksMzM0Ljk1IDI5Ljg3LDMzNS43MSAzMS42NSwzMzYuNDggMzMuNDMsMzM3LjI2IDM1LjIxLDMzOC4wNCAzNy4wMCwzMzguODEgMzguNzgsMzM5LjU4IDQwLjU2LDM0MC4zNCA0Mi4zNCwzNDEuMDggNDQuMTMsMzQxLjc5IDQ1LjkxLDM0Mi40OCA0Ny42OSwzNDMuMTIgNDkuNDcsMzQzLjcyIDUxLjI2LDM0NC4yNyA1My4wNCwzNDQuNzcgNTQuODIsMzQ1LjE5IDU2LjYwLDM0NS41NSA1OC4zOSwzNDUuODMgNjAuMTcsMzQ2LjA2IDYxLjk1LDM0Ni4yNCA2My43MywzNDYuNDAgNjUuNTIsMzQ2LjU2IDY3LjMwLDM0Ni43NCA2OS4wOCwzNDYuOTYgNzAuODYsMzQ3LjIyIDcyLjY0LDM0Ny41NSA3NC40MywzNDcuOTQgNzYuMjEsMzQ3LjQyIDc3Ljk5LDM0Ni45MiA3OS43NywzNDYuNDQgODEuNTYsMzQ1Ljk4IDgzLjM0LDM0NS41NCA4NS4xMiwzNDUuMTEgODYuOTAsMzQ0LjcwIDg4LjY5LDM0NC4zMCA5MC40NywzNDMuOTMgOTIuMjUsMzQzLjU2IDk0LjAzLDM0My4yMiA5NS44MiwzNDIuODkgOTcuNjAsMzQyLjU3IDk5LjM4LDM0Mi4yNyAxMDEuMTYsMzQxLjk5IDEwMi45NSwzNDEuNzIgMTA0LjczLDM0MS40NiAxMDYuNTEsMzQxLjIyIDEwOC4yOSwzNDAuOTkgMTEwLjA3LDM0MC43NyAxMTEuODYsMzQwLjU3IDExMy42NCwzNDAuMzggMTE1LjQyLDM0MC4yMCAxMTcuMjAsMzQwLjAzIDExOC45OSwzMzkuODcgMTIwLjc3LDMzOS43MSAxMjIuNTUsMzM5LjU1IDEyNC4zMywzMzkuNDAgMTI2LjEyLDMzOS4yNSAxMjcuOTAsMzM5LjEwIDEyOS42OCwzMzguOTQgMTMxLjQ2LDMzOC43OCAxMzMuMjUsMzM4LjYyIDEzNS4wMywzMzguNDUgMTM2LjgxLDMzOC4yNyAxMzguNTksMzM4LjA4IDE0MC4zOCwzMzcuODggMTQyLjE2LDMzNy42NyAxNDMuOTQsMzM3LjQ0IDE0NS43MiwzMzcuMTkgMTQ3LjUwLDMzNi45MyAxNDkuMjksMzM2LjY1IDE1MS4wNywzMzYuMzYgMTUyLjg1LDMzNi4wNiAxNTQuNjMsMzM1Ljc0IDE1Ni40MiwzMzUuNDIgMTU4LjIwLDMzNS4wOSAxNTkuOTgsMzM0Ljc2IDE2MS43NiwzMzQuNDIgMTYzLjU1LDMzNC4wOCAxNjUuMzMsMzMzLjc0IDE2Ny4xMSwzMzMuNDAgMTY4Ljg5LDMzMy4wNyAxNzAuNjgsMzMyLjc1IDE3Mi40NiwzMzIuNDMgMTc0LjI0LDMzMi4xMiAxNzYuMDIsMzMxLjgyIDE3Ny44MSwzMzEuNTQgMTc5LjU5LDMzMS4yNyAxODEuMzcsMzMxLjAyIDE4My4xNSwzMzAuNzkgMTg0LjkzLDMzMC41OCAxODYuNzIsMzMwLjM5IDE4OC41MCwzMzAuMjMgMTkwLjI4LDMzMC4wOSAxOTIuMDYsMzI5Ljk4IDE5My44NSwzMjkuOTAgMTk1LjYzLDMyOS44NSAxOTcuNDEsMzI5Ljg0IDE5OS4xOSwzMjkuODYgMjAwLjk4LDMyOS45MiAyMDIuNzYsMzMwLjAxIDIwNC41NCwzMzAuMTUgMjA2LjMyLDMzMC4zMyAyMDguMTEsMzMwLjU2IDIwOS44OSwzMzAuODMgMjExLjY3LDMzMS4xNSAyMTMuNDUsMzMxLjUyIDIxNS4yNCwzMzEuOTQgMjE3LjAyLDMzMi40MiAyMTguODAsMzMyLjk1IDIyMC41OCwzMzMuNTQgMjIyLjM2LDMzNC4yMSAyMjQuMTUsMzM0Ljk1IDIyNS45MywzMzUuNzcgMjI3LjcxLDMzNi42OCAyMjkuNDksMzM3LjY5IDIzMS4yOCwzMzguODEgMjMzLjA2LDM0MC4wMyAyMzQuODQsMzQxLjM3IDIzNi42MiwzNDIuODQgMjM4LjQxLDM0NC40MyAyNDAuMTksMzQ2LjE2IDI0MS45NywzNDguMDIgMjQzLjc1LDM1MC4wMiAyNDUuNTQsMzUyLjE2IDI0Ny4zMiwzNTQuNDYgMjQ5LjEwLDM1Ni45MCAyNTAuODgsMzU5LjUxIDI1Mi42NywzNjIuMjcgMjU0LjQ1LDM2My41NCAyNTYuMjMsMzY0LjgwIDI1OC4wMSwzNjYuMDQgMjU5Ljc5LDM2Ny4yNiAyNjEuNTgsMzY4LjQ2IDI2My4zNiwzNjkuNjUgMjY1LjE0LDM3MC44MSAyNjYuOTIsMzcxLjk2IDI2OC43MSwzNzMuMDkgMjcwLjQ5LDM3NC4yMSAyNzIuMjcsMzc1LjMwIDI3NC4wNSwzNzYuMzggMjc1Ljg0LDM3Ny40NCAyNzcuNjIsMzc4LjQ4IDI3OS40MCwzNzkuNTAgMjgxLjE4LDM4MC41MSAyODIuOTcsMzgxLjUwIDI4NC43NSwzODIuNDcgMjg2LjUzLDM4My40MiAyODguMzEsMzg0LjM1IDI5MC4xMCwzODQuMTggMjkxLjg4LDM4NC4wMCAyOTMuNjYsMzgzLjgyIDI5NS40NCwzODMuNjQgMjk3LjIyLDM4My40NiAyOTkuMDEsMzgzLjI4IDMwMC43OSwzODMuMTAgMzAyLjU3LDM4Mi45MiAzMDQuMzUsMzgyLjc0IDMwNi4xNCwzODIuNTYgMzA3LjkyLDM4MS4wMiAzMDkuNzAsMzc5LjU0IDMxMS40OCwzNzguMTEgMzEzLjI3LDM3Ni43MyAzMTUuMDUsMzc1LjQwIDMxNi44MywzNzQuMTIgMzE4LjYxLDM3Mi44OSAzMjAuNDAsMzcxLjY5IDMyMi4xOCwzNzAuNTQgMzIzLjk2LDM2OS40MyAzMjUuNzQsMzY4LjM1IDMyNy41MywzNjcuMzEgMzI5LjMxLDM2Ni4zMCAzMzEuMDksMzY1LjMxIDMzMi44NywzNjQuMzYgMzM0LjY1LDM2My40MiAzMzYuNDQsMzYyLjUxIDMzOC4yMiwzNjEuNjIgMzQwLjAwLDM2MC43NCAzNDEuNzgsMzU5Ljg4IDM0My41NywzNTkuMDMgMzQ1LjM1LDM1OC4xOSAzNDcuMTMsMzU3LjM1IDM0OC45MSwzNTYuNTMgMzUwLjcwLDM1NS43MCAzNTIuNDgsMzU0Ljg3IDM1NC4yNiwzNTQuMDQgMzU2LjA0LDM1My4yMSAzNTcuODMsMzUyLjM3IDM1OS42MSwzNTEuNTIgMzU5LjYxLDM2Ny4wNCAzNTcuODMsMzY3LjU2IDM1Ni4wNCwzNjguMDkgMzU0LjI2LDM2OC42MiAzNTIuNDgsMzY5LjE1IDM1MC43MCwzNjkuNjkgMzQ4LjkxLDM3MC4yMyAzNDcuMTMsMzcwLjc4IDM0NS4zNSwzNzEuMzIgMzQzLjU3LDM3MS44NyAzNDEuNzgsMzcyLjQyIDM0MC4wMCwzNzIuOTYgMzM4LjIyLDM3My41MSAzMzYuNDQsMzc0LjA1IDMzNC42NSwzNzQuNjAgMzMyLjg3LDM3NS4xNCAzMzEuMDksMzc1LjY4IDMyOS4zMSwzNzYuMjEgMzI3LjUzLDM3Ni43NCAzMjUuNzQsMzc3LjI3IDMyMy45NiwzNzcuNzkgMzIyLjE4LDM3OC4zMCAzMjAuNDAsMzc4LjgxIDMxOC42MSwzNzkuMzEgMzE2LjgzLDM3OS44MCAzMTUuMDUsMzgwLjI5IDMxMy4yNywzODAuNzYgMzExLjQ4LDM4MS4yMyAzMDkuNzAsMzgxLjY5IDMwNy45MiwzODIuMTMgMzA2LjE0LDM4Mi41NiAzMDQuMzUsMzgzLjUwIDMwMi41NywzODQuMjYgMzAwLjc5LDM4NC44NiAyOTkuMDEsMzg1LjI5IDI5Ny4yMiwzODUuNTUgMjk1LjQ0LDM4NS42NCAyOTMuNjYsMzg1LjU3IDI5MS44OCwzODUuMzMgMjkwLjEwLDM4NC45MyAyODguMzEsMzg0LjM1IDI4Ni41MywzODMuOTkgMjg0Ljc1LDM4My41NCAyODIuOTcsMzgzLjAyIDI4MS4xOCwzODIuNDIgMjc5LjQwLDM4MS43NCAyNzcuNjIsMzgwLjk5IDI3NS44NCwzODAuMTYgMjc0LjA1LDM3OS4yNCAyNzIuMjcsMzc4LjI2IDI3MC40OSwzNzcuMTkgMjY4LjcxLDM3Ni4wNSAyNjYuOTIsMzc0LjgzIDI2NS4xNCwzNzMuNTMgMjYzLjM2LDM3Mi4xNSAyNjEuNTgsMzcwLjcwIDI1OS43OSwzNjkuMTcgMjU4LjAxLDM2Ny41NiAyNTYuMjMsMzY1Ljg3IDI1NC40NSwzNjQuMTEgMjUyLjY3LDM2Mi4yNyAyNTAuODgsMzYxLjMxIDI0OS4xMCwzNjAuNDAgMjQ3LjMyLDM1OS41MyAyNDUuNTQsMzU4LjcwIDI0My43NSwzNTcuOTEgMjQxLjk3LDM1Ny4xNiAyNDAuMTksMzU2LjQ1IDIzOC40MSwzNTUuNzcgMjM2LjYyLDM1NS4xNCAyMzQuODQsMzU0LjUzIDIzMy4wNiwzNTMuOTcgMjMxLjI4LDM1My40MyAyMjkuNDksMzUyLjk0IDIyNy43MSwzNTIuNDcgMjI1LjkzLDM1Mi4wNCAyMjQuMTUsMzUxLjYzIDIyMi4zNiwzNTEuMjYgMjIwLjU4LDM1MC45MiAyMTguODAsMzUwLjYxIDIxNy4wMiwzNTAuMzMgMjE1LjI0LDM1MC4wNyAyMTMuNDUsMzQ5Ljg0IDIxMS42NywzNDkuNjQgMjA5Ljg5LDM0OS40NiAyMDguMTEsMzQ5LjMxIDIwNi4zMiwzNDkuMTggMjA0LjU0LDM0OS4wNyAyMDIuNzYsMzQ4Ljk4IDIwMC45OCwzNDguOTEgMTk5LjE5LDM0OC44NiAxOTcuNDEsMzQ4LjgzIDE5NS42MywzNDguODIgMTkzLjg1LDM0OC44MiAxOTIuMDYsMzQ4Ljg0IDE5MC4yOCwzNDguODcgMTg4LjUwLDM0OC45MiAxODYuNzIsMzQ4Ljk4IDE4NC45MywzNDkuMDUgMTgzLjE1LDM0OS4xMyAxODEuMzcsMzQ5LjIyIDE3OS41OSwzNDkuMzEgMTc3LjgxLDM0OS40MiAxNzYuMDIsMzQ5LjUzIDE3NC4yNCwzNDkuNjUgMTcyLjQ2LDM0OS43NyAxNzAuNjgsMzQ5LjkwIDE2OC44OSwzNTAuMDMgMTY3LjExLDM1MC4xNiAxNjUuMzMsMzUwLjI5IDE2My41NSwzNTAuNDIgMTYxLjc2LDM1MC41NSAxNTkuOTgsMzUwLjY4IDE1OC4yMCwzNTAuODEgMTU2LjQyLDM1MC45MyAxNTQuNjMsMzUxLjA0IDE1Mi44NSwzNTEuMTYgMTUxLjA3LDM1MS4yNiAxNDkuMjksMzUxLjM2IDE0Ny41MCwzNTEuNDQgMTQ1LjcyLDM1MS41MiAxNDMuOTQsMzUxLjU5IDE0Mi4xNiwzNTEuNjUgMTQwLjM4LDM1MS43MCAxMzguNTksMzUxLjc0IDEzNi44MSwzNTEuNzggMTM1LjAzLDM1MS44MSAxMzMuMjUsMzUxLjg1IDEzMS40NiwzNTEuODggMTI5LjY4LDM1MS45MSAxMjcuOTAsMzUxLjk0IDEyNi4xMiwzNTEuOTggMTI0LjMzLDM1Mi4wMyAxMjIuNTUsMzUyLjA3IDEyMC43NywzNTIuMTMgMTE4Ljk5LDM1Mi4yMCAxMTcuMjAsMzUyLjI3IDExNS40MiwzNTIuMzYgMTEzLjY0LDM1Mi40NiAxMTEuODYsMzUyLjU4IDExMC4wNywzNTIuNzEgMTA4LjI5LDM1Mi44NiAxMDYuNTEsMzUzLjAyIDEwNC43MywzNTMuMTggMTAyLjk1LDM1My4zMyAxMDEuMTYsMzUzLjQ3IDk5LjM4LDM1My41OCA5Ny42MCwzNTMuNjYgOTUuODIsMzUzLjcwIDk0LjAzLDM1My42OSA5Mi4yNSwzNTMuNjIgOTAuNDcsMzUzLjQ4IDg4LjY5LDM1My4yNyA4Ni45MCwzNTIuOTggODUuMTIsMzUyLjU5IDgzLjM0LDM1Mi4xMSA4MS41NiwzNTEuNTIgNzkuNzcsMzUwLjgxIDc3Ljk5LDM0OS45OCA3Ni4yMSwzNDkuMDMgNzQuNDMsMzQ3Ljk0IDcyLjY0LDM0OC41MyA3MC44NiwzNDkuMDggNjkuMDgsMzQ5LjU5IDY3LjMwLDM1MC4wNiA2NS41MiwzNTAuNDkgNjMuNzMsMzUwLjg5IDYxLjk1LDM1MS4yNSA2MC4xNywzNTEuNTcgNTguMzksMzUxLjg2IDU2LjYwLDM1Mi4xMiA1NC44MiwzNTIuMzUgNTMuMDQsMzUyLjU1IDUxLjI2LDM1Mi43MiA0OS40NywzNTIuODcgNDcuNjksMzUyLjk5IDQ1LjkxLDM1My4xMCA0NC4xMywzNTMuMTggNDIuMzQsMzUzLjI0IDQwLjU2LDM1My4yOCAzOC43OCwzNTMuMzEgMzcuMDAsMzUzLjMyIDM1LjIxLDM1My4zMiAzMy40MywzNTMuMzEgMzEuNjUsMzUzLjI5IDI5Ljg3LDM1My4yNiAyOC4wOSwzNTMuMjIgMjYuMzAsMzUzLjE3IDI0LjUyLDM1My4xMiAyMi43NCwzNTMuMDcgMjAuOTYsMzUzLjAxIDE5LjE3LDM1Mi45NiAxNy4zOSwzNTIuOTEgMTUuNjEsMzUyLjg2IDEzLjgzLDM1Mi44MSAxMi4wNCwzNTIuNzcgMTAuMjYsMzUyLjc0IDguNDgsMzUyLjcyIDYuNzAsMzUyLjcwIDQuOTEsMzUyLjcwIDMuMTMsMzUyLjcxIi8+JiN4YTs8cG9seWxpbmUgc3R5bGU9InN0cm9rZS13aWR0aDogMS4wNzsgc3Ryb2tlOiBub25lOyBzdHJva2UtbGluZWNhcDogYnV0dDsiIHBvaW50cz0iMy4xMywzMjcuNjQgNC45MSwzMjcuODMgNi43MCwzMjguMDkgOC40OCwzMjguNDEgMTAuMjYsMzI4Ljc5IDEyLjA0LDMyOS4yMiAxMy44MywzMjkuNzEgMTUuNjEsMzMwLjI0IDE3LjM5LDMzMC44MiAxOS4xNywzMzEuNDQgMjAuOTYsMzMyLjA5IDIyLjc0LDMzMi43NyAyNC41MiwzMzMuNDcgMjYuMzAsMzM0LjIwIDI4LjA5LDMzNC45NSAyOS44NywzMzUuNzEgMzEuNjUsMzM2LjQ4IDMzLjQzLDMzNy4yNiAzNS4yMSwzMzguMDQgMzcuMDAsMzM4LjgxIDM4Ljc4LDMzOS41OCA0MC41NiwzNDAuMzQgNDIuMzQsMzQxLjA4IDQ0LjEzLDM0MS43OSA0NS45MSwzNDIuNDggNDcuNjksMzQzLjEyIDQ5LjQ3LDM0My43MiA1MS4yNiwzNDQuMjcgNTMuMDQsMzQ0Ljc3IDU0LjgyLDM0NS4xOSA1Ni42MCwzNDUuNTUgNTguMzksMzQ1LjgzIDYwLjE3LDM0Ni4wNiA2MS45NSwzNDYuMjQgNjMuNzMsMzQ2LjQwIDY1LjUyLDM0Ni41NiA2Ny4zMCwzNDYuNzQgNjkuMDgsMzQ2Ljk2IDcwLjg2LDM0Ny4yMiA3Mi42NCwzNDcuNTUgNzQuNDMsMzQ3Ljk0IDc2LjIxLDM0Ny40MiA3Ny45OSwzNDYuOTIgNzkuNzcsMzQ2LjQ0IDgxLjU2LDM0NS45OCA4My4zNCwzNDUuNTQgODUuMTIsMzQ1LjExIDg2LjkwLDM0NC43MCA4OC42OSwzNDQuMzAgOTAuNDcsMzQzLjkzIDkyLjI1LDM0My41NiA5NC4wMywzNDMuMjIgOTUuODIsMzQyLjg5IDk3LjYwLDM0Mi41NyA5OS4zOCwzNDIuMjcgMTAxLjE2LDM0MS45OSAxMDIuOTUsMzQxLjcyIDEwNC43MywzNDEuNDYgMTA2LjUxLDM0MS4yMiAxMDguMjksMzQwLjk5IDExMC4wNywzNDAuNzcgMTExLjg2LDM0MC41NyAxMTMuNjQsMzQwLjM4IDExNS40MiwzNDAuMjAgMTE3LjIwLDM0MC4wMyAxMTguOTksMzM5Ljg3IDEyMC43NywzMzkuNzEgMTIyLjU1LDMzOS41NSAxMjQuMzMsMzM5LjQwIDEyNi4xMiwzMzkuMjUgMTI3LjkwLDMzOS4xMCAxMjkuNjgsMzM4Ljk0IDEzMS40NiwzMzguNzggMTMzLjI1LDMzOC42MiAxMzUuMDMsMzM4LjQ1IDEzNi44MSwzMzguMjcgMTM4LjU5LDMzOC4wOCAxNDAuMzgsMzM3Ljg4IDE0Mi4xNiwzMzcuNjcgMTQzLjk0LDMzNy40NCAxNDUuNzIsMzM3LjE5IDE0Ny41MCwzMzYuOTMgMTQ5LjI5LDMzNi42NSAxNTEuMDcsMzM2LjM2IDE1Mi44NSwzMzYuMDYgMTU0LjYzLDMzNS43NCAxNTYuNDIsMzM1LjQyIDE1OC4yMCwzMzUuMDkgMTU5Ljk4LDMzNC43NiAxNjEuNzYsMzM0LjQyIDE2My41NSwzMzQuMDggMTY1LjMzLDMzMy43NCAxNjcuMTEsMzMzLjQwIDE2OC44OSwzMzMuMDcgMTcwLjY4LDMzMi43NSAxNzIuNDYsMzMyLjQzIDE3NC4yNCwzMzIuMTIgMTc2LjAyLDMzMS44MiAxNzcuODEsMzMxLjU0IDE3OS41OSwzMzEuMjcgMTgxLjM3LDMzMS4wMiAxODMuMTUsMzMwLjc5IDE4NC45MywzMzAuNTggMTg2LjcyLDMzMC4zOSAxODguNTAsMzMwLjIzIDE5MC4yOCwzMzAuMDkgMTkyLjA2LDMyOS45OCAxOTMuODUsMzI5LjkwIDE5NS42MywzMjkuODUgMTk3LjQxLDMyOS44NCAxOTkuMTksMzI5Ljg2IDIwMC45OCwzMjkuOTIgMjAyLjc2LDMzMC4wMSAyMDQuNTQsMzMwLjE1IDIwNi4zMiwzMzAuMzMgMjA4LjExLDMzMC41NiAyMDkuODksMzMwLjgzIDIxMS42NywzMzEuMTUgMjEzLjQ1LDMzMS41MiAyMTUuMjQsMzMxLjk0IDIxNy4wMiwzMzIuNDIgMjE4LjgwLDMzMi45NSAyMjAuNTgsMzMzLjU0IDIyMi4zNiwzMzQuMjEgMjI0LjE1LDMzNC45NSAyMjUuOTMsMzM1Ljc3IDIyNy43MSwzMzYuNjggMjI5LjQ5LDMzNy42OSAyMzEuMjgsMzM4LjgxIDIzMy4wNiwzNDAuMDMgMjM0Ljg0LDM0MS4zNyAyMzYuNjIsMzQyLjg0IDIzOC40MSwzNDQuNDMgMjQwLjE5LDM0Ni4xNiAyNDEuOTcsMzQ4LjAyIDI0My43NSwzNTAuMDIgMjQ1LjU0LDM1Mi4xNiAyNDcuMzIsMzU0LjQ2IDI0OS4xMCwzNTYuOTAgMjUwLjg4LDM1OS41MSAyNTIuNjcsMzYyLjI3IDI1NC40NSwzNjMuNTQgMjU2LjIzLDM2NC44MCAyNTguMDEsMzY2LjA0IDI1OS43OSwzNjcuMjYgMjYxLjU4LDM2OC40NiAyNjMuMzYsMzY5LjY1IDI2NS4xNCwzNzAuODEgMjY2LjkyLDM3MS45NiAyNjguNzEsMzczLjA5IDI3MC40OSwzNzQuMjEgMjcyLjI3LDM3NS4zMCAyNzQuMDUsMzc2LjM4IDI3NS44NCwzNzcuNDQgMjc3LjYyLDM3OC40OCAyNzkuNDAsMzc5LjUwIDI4MS4xOCwzODAuNTEgMjgyLjk3LDM4MS41MCAyODQuNzUsMzgyLjQ3IDI4Ni41MywzODMuNDIgMjg4LjMxLDM4NC4zNSAyOTAuMTAsMzg0LjE4IDI5MS44OCwzODQuMDAgMjkzLjY2LDM4My44MiAyOTUuNDQsMzgzLjY0IDI5Ny4yMiwzODMuNDYgMjk5LjAxLDM4My4yOCAzMDAuNzksMzgzLjEwIDMwMi41NywzODIuOTIgMzA0LjM1LDM4Mi43NCAzMDYuMTQsMzgyLjU2IDMwNy45MiwzODEuMDIgMzA5LjcwLDM3OS41NCAzMTEuNDgsMzc4LjExIDMxMy4yNywzNzYuNzMgMzE1LjA1LDM3NS40MCAzMTYuODMsMzc0LjEyIDMxOC42MSwzNzIuODkgMzIwLjQwLDM3MS42OSAzMjIuMTgsMzcwLjU0IDMyMy45NiwzNjkuNDMgMzI1Ljc0LDM2OC4zNSAzMjcuNTMsMzY3LjMxIDMyOS4zMSwzNjYuMzAgMzMxLjA5LDM2NS4zMSAzMzIuODcsMzY0LjM2IDMzNC42NSwzNjMuNDIgMzM2LjQ0LDM2Mi41MSAzMzguMjIsMzYxLjYyIDM0MC4wMCwzNjAuNzQgMzQxLjc4LDM1OS44OCAzNDMuNTcsMzU5LjAzIDM0NS4zNSwzNTguMTkgMzQ3LjEzLDM1Ny4zNSAzNDguOTEsMzU2LjUzIDM1MC43MCwzNTUuNzAgMzUyLjQ4LDM1NC44NyAzNTQuMjYsMzU0LjA0IDM1Ni4wNCwzNTMuMjEgMzU3LjgzLDM1Mi4zNyAzNTkuNjEsMzUxLjUyIi8+JiN4YTs8cG9seWxpbmUgc3R5bGU9InN0cm9rZS13aWR0aDogMS4wNzsgc3Ryb2tlOiBub25lOyBzdHJva2UtbGluZWNhcDogYnV0dDsiIHBvaW50cz0iMzU5LjYxLDM2Ny4wNCAzNTcuODMsMzY3LjU2IDM1Ni4wNCwzNjguMDkgMzU0LjI2LDM2OC42MiAzNTIuNDgsMzY5LjE1IDM1MC43MCwzNjkuNjkgMzQ4LjkxLDM3MC4yMyAzNDcuMTMsMzcwLjc4IDM0NS4zNSwzNzEuMzIgMzQzLjU3LDM3MS44NyAzNDEuNzgsMzcyLjQyIDM0MC4wMCwzNzIuOTYgMzM4LjIyLDM3My41MSAzMzYuNDQsMzc0LjA1IDMzNC42NSwzNzQuNjAgMzMyLjg3LDM3NS4xNCAzMzEuMDksMzc1LjY4IDMyOS4zMSwzNzYuMjEgMzI3LjUzLDM3Ni43NCAzMjUuNzQsMzc3LjI3IDMyMy45NiwzNzcuNzkgMzIyLjE4LDM3OC4zMCAzMjAuNDAsMzc4LjgxIDMxOC42MSwzNzkuMzEgMzE2LjgzLDM3OS44MCAzMTUuMDUsMzgwLjI5IDMxMy4yNywzODAuNzYgMzExLjQ4LDM4MS4yMyAzMDkuNzAsMzgxLjY5IDMwNy45MiwzODIuMTMgMzA2LjE0LDM4Mi41NiAzMDQuMzUsMzgzLjUwIDMwMi41NywzODQuMjYgMzAwLjc5LDM4NC44NiAyOTkuMDEsMzg1LjI5IDI5Ny4yMiwzODUuNTUgMjk1LjQ0LDM4NS42NCAyOTMuNjYsMzg1LjU3IDI5MS44OCwzODUuMzMgMjkwLjEwLDM4NC45MyAyODguMzEsMzg0LjM1IDI4Ni41MywzODMuOTkgMjg0Ljc1LDM4My41NCAyODIuOTcsMzgzLjAyIDI4MS4xOCwzODIuNDIgMjc5LjQwLDM4MS43NCAyNzcuNjIsMzgwLjk5IDI3NS44NCwzODAuMTYgMjc0LjA1LDM3OS4yNCAyNzIuMjcsMzc4LjI2IDI3MC40OSwzNzcuMTkgMjY4LjcxLDM3Ni4wNSAyNjYuOTIsMzc0LjgzIDI2NS4xNCwzNzMuNTMgMjYzLjM2LDM3Mi4xNSAyNjEuNTgsMzcwLjcwIDI1OS43OSwzNjkuMTcgMjU4LjAxLDM2Ny41NiAyNTYuMjMsMzY1Ljg3IDI1NC40NSwzNjQuMTEgMjUyLjY3LDM2Mi4yNyAyNTAuODgsMzYxLjMxIDI0OS4xMCwzNjAuNDAgMjQ3LjMyLDM1OS41MyAyNDUuNTQsMzU4LjcwIDI0My43NSwzNTcuOTEgMjQxLjk3LDM1Ny4xNiAyNDAuMTksMzU2LjQ1IDIzOC40MSwzNTUuNzcgMjM2LjYyLDM1NS4xNCAyMzQuODQsMzU0LjUzIDIzMy4wNiwzNTMuOTcgMjMxLjI4LDM1My40MyAyMjkuNDksMzUyLjk0IDIyNy43MSwzNTIuNDcgMjI1LjkzLDM1Mi4wNCAyMjQuMTUsMzUxLjYzIDIyMi4zNiwzNTEuMjYgMjIwLjU4LDM1MC45MiAyMTguODAsMzUwLjYxIDIxNy4wMiwzNTAuMzMgMjE1LjI0LDM1MC4wNyAyMTMuNDUsMzQ5Ljg0IDIxMS42NywzNDkuNjQgMjA5Ljg5LDM0OS40NiAyMDguMTEsMzQ5LjMxIDIwNi4zMiwzNDkuMTggMjA0LjU0LDM0OS4wNyAyMDIuNzYsMzQ4Ljk4IDIwMC45OCwzNDguOTEgMTk5LjE5LDM0OC44NiAxOTcuNDEsMzQ4LjgzIDE5NS42MywzNDguODIgMTkzLjg1LDM0OC44MiAxOTIuMDYsMzQ4Ljg0IDE5MC4yOCwzNDguODcgMTg4LjUwLDM0OC45MiAxODYuNzIsMzQ4Ljk4IDE4NC45MywzNDkuMDUgMTgzLjE1LDM0OS4xMyAxODEuMzcsMzQ5LjIyIDE3OS41OSwzNDkuMzEgMTc3LjgxLDM0OS40MiAxNzYuMDIsMzQ5LjUzIDE3NC4yNCwzNDkuNjUgMTcyLjQ2LDM0OS43NyAxNzAuNjgsMzQ5LjkwIDE2OC44OSwzNTAuMDMgMTY3LjExLDM1MC4xNiAxNjUuMzMsMzUwLjI5IDE2My41NSwzNTAuNDIgMTYxLjc2LDM1MC41NSAxNTkuOTgsMzUwLjY4IDE1OC4yMCwzNTAuODEgMTU2LjQyLDM1MC45MyAxNTQuNjMsMzUxLjA0IDE1Mi44NSwzNTEuMTYgMTUxLjA3LDM1MS4yNiAxNDkuMjksMzUxLjM2IDE0Ny41MCwzNTEuNDQgMTQ1LjcyLDM1MS41MiAxNDMuOTQsMzUxLjU5IDE0Mi4xNiwzNTEuNjUgMTQwLjM4LDM1MS43MCAxMzguNTksMzUxLjc0IDEzNi44MSwzNTEuNzggMTM1LjAzLDM1MS44MSAxMzMuMjUsMzUxLjg1IDEzMS40NiwzNTEuODggMTI5LjY4LDM1MS45MSAxMjcuOTAsMzUxLjk0IDEyNi4xMiwzNTEuOTggMTI0LjMzLDM1Mi4wMyAxMjIuNTUsMzUyLjA3IDEyMC43NywzNTIuMTMgMTE4Ljk5LDM1Mi4yMCAxMTcuMjAsMzUyLjI3IDExNS40MiwzNTIuMzYgMTEzLjY0LDM1Mi40NiAxMTEuODYsMzUyLjU4IDExMC4wNywzNTIuNzEgMTA4LjI5LDM1Mi44NiAxMDYuNTEsMzUzLjAyIDEwNC43MywzNTMuMTggMTAyLjk1LDM1My4zMyAxMDEuMTYsMzUzLjQ3IDk5LjM4LDM1My41OCA5Ny42MCwzNTMuNjYgOTUuODIsMzUzLjcwIDk0LjAzLDM1My42OSA5Mi4yNSwzNTMuNjIgOTAuNDcsMzUzLjQ4IDg4LjY5LDM1My4yNyA4Ni45MCwzNTIuOTggODUuMTIsMzUyLjU5IDgzLjM0LDM1Mi4xMSA4MS41NiwzNTEuNTIgNzkuNzcsMzUwLjgxIDc3Ljk5LDM0OS45OCA3Ni4yMSwzNDkuMDMgNzQuNDMsMzQ3Ljk0IDcyLjY0LDM0OC41MyA3MC44NiwzNDkuMDggNjkuMDgsMzQ5LjU5IDY3LjMwLDM1MC4wNiA2NS41MiwzNTAuNDkgNjMuNzMsMzUwLjg5IDYxLjk1LDM1MS4yNSA2MC4xNywzNTEuNTcgNTguMzksMzUxLjg2IDU2LjYwLDM1Mi4xMiA1NC44MiwzNTIuMzUgNTMuMDQsMzUyLjU1IDUxLjI2LDM1Mi43MiA0OS40NywzNTIuODcgNDcuNjksMzUyLjk5IDQ1LjkxLDM1My4xMCA0NC4xMywzNTMuMTggNDIuMzQsMzUzLjI0IDQwLjU2LDM1My4yOCAzOC43OCwzNTMuMzEgMzcuMDAsMzUzLjMyIDM1LjIxLDM1My4zMiAzMy40MywzNTMuMzEgMzEuNjUsMzUzLjI5IDI5Ljg3LDM1My4yNiAyOC4wOSwzNTMuMjIgMjYuMzAsMzUzLjE3IDI0LjUyLDM1My4xMiAyMi43NCwzNTMuMDcgMjAuOTYsMzUzLjAxIDE5LjE3LDM1Mi45NiAxNy4zOSwzNTIuOTEgMTUuNjEsMzUyLjg2IDEzLjgzLDM1Mi44MSAxMi4wNCwzNTIuNzcgMTAuMjYsMzUyLjc0IDguNDgsMzUyLjcyIDYuNzAsMzUyLjcwIDQuOTEsMzUyLjcwIDMuMTMsMzUyLjcxIi8+JiN4YTs8cG9seWxpbmUgc3R5bGU9InN0cm9rZS13aWR0aDogMS4wNzsgc3Ryb2tlLWxpbmVjYXA6IGJ1dHQ7IiBwb2ludHM9IjMuMTMsMzM5LjU4IDQuOTEsMzQwLjA2IDYuNzAsMzQwLjUzIDguNDgsMzQwLjk4IDEwLjI2LDM0MS40MSAxMi4wNCwzNDEuODIgMTMuODMsMzQyLjIyIDE1LjYxLDM0Mi42MCAxNy4zOSwzNDIuOTYgMTkuMTcsMzQzLjMxIDIwLjk2LDM0My42NSAyMi43NCwzNDMuOTcgMjQuNTIsMzQ0LjI3IDI2LjMwLDM0NC41NiAyOC4wOSwzNDQuODQgMjkuODcsMzQ1LjEwIDMxLjY1LDM0NS4zNSAzMy40MywzNDUuNTggMzUuMjEsMzQ1LjgwIDM3LjAwLDM0Ni4wMSAzOC43OCwzNDYuMjEgNDAuNTYsMzQ2LjM5IDQyLjM0LDM0Ni41NyA0NC4xMywzNDYuNzMgNDUuOTEsMzQ2Ljg3IDQ3LjY5LDM0Ny4wMSA0OS40NywzNDcuMTQgNTEuMjYsMzQ3LjI2IDUzLjA0LDM0Ny4zNiA1NC44MiwzNDcuNDYgNTYuNjAsMzQ3LjU1IDU4LjM5LDM0Ny42MiA2MC4xNywzNDcuNjkgNjEuOTUsMzQ3Ljc1IDYzLjczLDM0Ny44MCA2NS41MiwzNDcuODQgNjcuMzAsMzQ3Ljg4IDY5LjA4LDM0Ny45MCA3MC44NiwzNDcuOTIgNzIuNjQsMzQ3LjkzIDc0LjQzLDM0Ny45NCA3Ni4yMSwzNDcuOTQgNzcuOTksMzQ3LjkzIDc5Ljc3LDM0Ny45MSA4MS41NiwzNDcuODkgODMuMzQsMzQ3Ljg2IDg1LjEyLDM0Ny44MyA4Ni45MCwzNDcuNzkgODguNjksMzQ3Ljc0IDkwLjQ3LDM0Ny42OSA5Mi4yNSwzNDcuNjMgOTQuMDMsMzQ3LjU2IDk1LjgyLDM0Ny40OSA5Ny42MCwzNDcuNDEgOTkuMzgsMzQ3LjMzIDEwMS4xNiwzNDcuMjQgMTAyLjk1LDM0Ny4xNCAxMDQuNzMsMzQ3LjA0IDEwNi41MSwzNDYuOTMgMTA4LjI5LDM0Ni44MiAxMTAuMDcsMzQ2LjcwIDExMS44NiwzNDYuNTcgMTEzLjY0LDM0Ni40NCAxMTUuNDIsMzQ2LjMwIDExNy4yMCwzNDYuMTYgMTE4Ljk5LDM0Ni4wMSAxMjAuNzcsMzQ1Ljg2IDEyMi41NSwzNDUuNzAgMTI0LjMzLDM0NS41NCAxMjYuMTIsMzQ1LjM3IDEyNy45MCwzNDUuMTkgMTI5LjY4LDM0NS4wMSAxMzEuNDYsMzQ0LjgzIDEzMy4yNSwzNDQuNjQgMTM1LjAzLDM0NC40NCAxMzYuODEsMzQ0LjI0IDEzOC41OSwzNDQuMDQgMTQwLjM4LDM0My44MiAxNDIuMTYsMzQzLjYxIDE0My45NCwzNDMuMzkgMTQ1LjcyLDM0My4xNiAxNDcuNTAsMzQyLjkzIDE0OS4yOSwzNDIuNzAgMTUxLjA3LDM0Mi40NiAxNTIuODUsMzQyLjIzIDE1NC42MywzNDEuOTkgMTU2LjQyLDM0MS43NSAxNTguMjAsMzQxLjUyIDE1OS45OCwzNDEuMjkgMTYxLjc2LDM0MS4wNiAxNjMuNTUsMzQwLjg0IDE2NS4zMywzNDAuNjMgMTY3LjExLDM0MC40MyAxNjguODksMzQwLjI0IDE3MC42OCwzNDAuMDYgMTcyLjQ2LDMzOS44OSAxNzQuMjQsMzM5LjczIDE3Ni4wMiwzMzkuNTkgMTc3LjgxLDMzOS40NiAxNzkuNTksMzM5LjM1IDE4MS4zNywzMzkuMjYgMTgzLjE1LDMzOS4xOSAxODQuOTMsMzM5LjE0IDE4Ni43MiwzMzkuMTEgMTg4LjUwLDMzOS4xMSAxOTAuMjgsMzM5LjEzIDE5Mi4wNiwzMzkuMTcgMTkzLjg1LDMzOS4yNCAxOTUuNjMsMzM5LjM0IDE5Ny40MSwzMzkuNDcgMTk5LjE5LDMzOS42MyAyMDAuOTgsMzM5LjgyIDIwMi43NiwzNDAuMDQgMjA0LjU0LDM0MC4zMCAyMDYuMzIsMzQwLjU5IDIwOC4xMSwzNDAuOTIgMjA5Ljg5LDM0MS4yOSAyMTEuNjcsMzQxLjcwIDIxMy40NSwzNDIuMTQgMjE1LjI0LDM0Mi42MyAyMTcuMDIsMzQzLjE2IDIxOC44MCwzNDMuNzQgMjIwLjU4LDM0NC4zNSAyMjIuMzYsMzQ1LjAxIDIyNC4xNSwzNDUuNzIgMjI1LjkzLDM0Ni40NiAyMjcuNzEsMzQ3LjI1IDIyOS40OSwzNDguMDcgMjMxLjI4LDM0OC45NCAyMzMuMDYsMzQ5Ljg0IDIzNC44NCwzNTAuNzkgMjM2LjYyLDM1MS43NyAyMzguNDEsMzUyLjc5IDI0MC4xOSwzNTMuODUgMjQxLjk3LDM1NC45NSAyNDMuNzUsMzU2LjA4IDI0NS41NCwzNTcuMjUgMjQ3LjMyLDM1OC40NSAyNDkuMTAsMzU5LjY5IDI1MC44OCwzNjAuOTYgMjUyLjY3LDM2Mi4yNyAyNTQuNDUsMzYzLjYwIDI1Ni4yMywzNjQuOTcgMjU4LjAxLDM2Ni4zNSAyNTkuNzksMzY3LjczIDI2MS41OCwzNjkuMTIgMjYzLjM2LDM3MC41MCAyNjUuMTQsMzcxLjg3IDI2Ni45MiwzNzMuMjEgMjY4LjcxLDM3NC41MSAyNzAuNDksMzc1Ljc4IDI3Mi4yNywzNzYuOTkgMjc0LjA1LDM3OC4xNSAyNzUuODQsMzc5LjI0IDI3Ny42MiwzODAuMjYgMjc5LjQwLDM4MS4yMCAyODEuMTgsMzgyLjA0IDI4Mi45NywzODIuNzkgMjg0Ljc1LDM4My40MyAyODYuNTMsMzgzLjk1IDI4OC4zMSwzODQuMzUgMjkwLjEwLDM4NC42MyAyOTEuODgsMzg0Ljc3IDI5My42NiwzODQuODEgMjk1LjQ0LDM4NC43NCAyOTcuMjIsMzg0LjU3IDI5OS4wMSwzODQuMzEgMzAwLjc5LDM4My45NyAzMDIuNTcsMzgzLjU2IDMwNC4zNSwzODMuMDkgMzA2LjE0LDM4Mi41NiAzMDcuOTIsMzgxLjk5IDMwOS43MCwzODEuMzggMzExLjQ4LDM4MC43MiAzMTMuMjcsMzgwLjAzIDMxNS4wNSwzNzkuMzAgMzE2LjgzLDM3OC41NCAzMTguNjEsMzc3Ljc1IDMyMC40MCwzNzYuOTMgMzIyLjE4LDM3Ni4wOSAzMjMuOTYsMzc1LjIzIDMyNS43NCwzNzQuMzUgMzI3LjUzLDM3My40NSAzMjkuMzEsMzcyLjU0IDMzMS4wOSwzNzEuNjIgMzMyLjg3LDM3MC42OSAzMzQuNjUsMzY5Ljc1IDMzNi40NCwzNjguODEgMzM4LjIyLDM2Ny44NyAzNDAuMDAsMzY2LjkzIDM0MS43OCwzNjUuOTkgMzQzLjU3LDM2NS4wNyAzNDUuMzUsMzY0LjE1IDM0Ny4xMywzNjMuMjUgMzQ4LjkxLDM2Mi4zNiAzNTAuNzAsMzYxLjQ5IDM1Mi40OCwzNjAuNjQgMzU0LjI2LDM1OS44MSAzNTYuMDQsMzU5LjAxIDM1Ny44MywzNTguMjMgMzU5LjYxLDM1Ny40OSIvPiYjeGE7PHBvbHlsaW5lIHN0eWxlPSJzdHJva2Utd2lkdGg6IDEuMDc7IHN0cm9rZS1kYXNoYXJyYXk6IDUuNjksNS42OTsgc3Ryb2tlLWxpbmVjYXA6IGJ1dHQ7IiBwb2ludHM9IjMuMTMsMzM2LjAwIDQuOTEsMzM2LjYyIDYuNzAsMzM3LjIyIDguNDgsMzM3LjgwIDEwLjI2LDMzOC4zNiAxMi4wNCwzMzguOTAgMTMuODMsMzM5LjQzIDE1LjYxLDMzOS45MyAxNy4zOSwzNDAuNDIgMTkuMTcsMzQwLjg5IDIwLjk2LDM0MS4zNSAyMi43NCwzNDEuNzggMjQuNTIsMzQyLjIwIDI2LjMwLDM0Mi42MSAyOC4wOSwzNDIuOTkgMjkuODcsMzQzLjM2IDMxLjY1LDM0My43MiAzMy40MywzNDQuMDUgMzUuMjEsMzQ0LjM4IDM3LjAwLDM0NC42OCAzOC43OCwzNDQuOTcgNDAuNTYsMzQ1LjI1IDQyLjM0LDM0NS41MSA0NC4xMywzNDUuNzYgNDUuOTEsMzQ1Ljk5IDQ3LjY5LDM0Ni4yMSA0OS40NywzNDYuNDEgNTEuMjYsMzQ2LjYxIDUzLjA0LDM0Ni43OCA1NC44MiwzNDYuOTUgNTYuNjAsMzQ3LjEwIDU4LjM5LDM0Ny4yNCA2MC4xNywzNDcuMzYgNjEuOTUsMzQ3LjQ3IDYzLjczLDM0Ny41OCA2NS41MiwzNDcuNjYgNjcuMzAsMzQ3Ljc0IDY5LjA4LDM0Ny44MSA3MC44NiwzNDcuODYgNzIuNjQsMzQ3LjkxIDc0LjQzLDM0Ny45NCA3Ni4yMSwzNDcuOTYgNzcuOTksMzQ3Ljk3IDc5Ljc3LDM0Ny45NyA4MS41NiwzNDcuOTYgODMuMzQsMzQ3Ljk1IDg1LjEyLDM0Ny45MiA4Ni45MCwzNDcuODggODguNjksMzQ3LjgzIDkwLjQ3LDM0Ny43OCA5Mi4yNSwzNDcuNzEgOTQuMDMsMzQ3LjY0IDk1LjgyLDM0Ny41NiA5Ny42MCwzNDcuNDcgOTkuMzgsMzQ3LjM3IDEwMS4xNiwzNDcuMjYgMTAyLjk1LDM0Ny4xNSAxMDQuNzMsMzQ3LjAyIDEwNi41MSwzNDYuODkgMTA4LjI5LDM0Ni43NiAxMTAuMDcsMzQ2LjYxIDExMS44NiwzNDYuNDYgMTEzLjY0LDM0Ni4zMSAxMTUuNDIsMzQ2LjE0IDExNy4yMCwzNDUuOTcgMTE4Ljk5LDM0NS44MCAxMjAuNzcsMzQ1LjYyIDEyMi41NSwzNDUuNDMgMTI0LjMzLDM0NS4yNCAxMjYuMTIsMzQ1LjA0IDEyNy45MCwzNDQuODMgMTI5LjY4LDM0NC42MyAxMzEuNDYsMzQ0LjQxIDEzMy4yNSwzNDQuMjAgMTM1LjAzLDM0My45OCAxMzYuODEsMzQzLjc1IDEzOC41OSwzNDMuNTIgMTQwLjM4LDM0My4yOSAxNDIuMTYsMzQzLjA1IDE0My45NCwzNDIuODEgMTQ1LjcyLDM0Mi41NyAxNDcuNTAsMzQyLjMyIDE0OS4yOSwzNDIuMDcgMTUxLjA3LDM0MS44MiAxNTIuODUsMzQxLjU3IDE1NC42MywzNDEuMzEgMTU2LjQyLDM0MS4wNiAxNTguMjAsMzQwLjgxIDE1OS45OCwzNDAuNTYgMTYxLjc2LDM0MC4zMCAxNjMuNTUsMzQwLjA2IDE2NS4zMywzMzkuODEgMTY3LjExLDMzOS41NyAxNjguODksMzM5LjMzIDE3MC42OCwzMzkuMDkgMTcyLjQ2LDMzOC44NiAxNzQuMjQsMzM4LjYzIDE3Ni4wMiwzMzguNDEgMTc3LjgxLDMzOC4yMCAxNzkuNTksMzM3Ljk5IDE4MS4zNywzMzcuNzkgMTgzLjE1LDMzNy42MCAxODQuOTMsMzM3LjQyIDE4Ni43MiwzMzcuMjQgMTg4LjUwLDMzNy4wOSAxOTAuMjgsMzM2Ljk0IDE5Mi4wNiwzMzYuODIgMTkzLjg1LDMzNi43MSAxOTUuNjMsMzM2LjYyIDE5Ny40MSwzMzYuNTYgMTk5LjE5LDMzNi41MSAyMDAuOTgsMzM2LjUwIDIwMi43NiwzMzYuNTEgMjA0LjU0LDMzNi41NSAyMDYuMzIsMzM2LjYyIDIwOC4xMSwzMzYuNzIgMjA5Ljg5LDMzNi44NiAyMTEuNjcsMzM3LjAzIDIxMy40NSwzMzcuMjUgMjE1LjI0LDMzNy41MCAyMTcuMDIsMzM3Ljc5IDIxOC44MCwzMzguMTMgMjIwLjU4LDMzOC41MiAyMjIuMzYsMzM4Ljk4IDIyNC4xNSwzMzkuNTEgMjI1LjkzLDM0MC4xMyAyMjcuNzEsMzQwLjg1IDIyOS40OSwzNDEuNjkgMjMxLjI4LDM0Mi42NCAyMzMuMDYsMzQzLjcyIDIzNC44NCwzNDQuOTUgMjM2LjYyLDM0Ni4zMyAyMzguNDEsMzQ3Ljg1IDI0MC4xOSwzNDkuNDcgMjQxLjk3LDM1MS4xOSAyNDMuNzUsMzUyLjk4IDI0NS41NCwzNTQuODIgMjQ3LjMyLDM1Ni42OSAyNDkuMTAsMzU4LjU3IDI1MC44OCwzNjAuNDMgMjUyLjY3LDM2Mi4yNyAyNTQuNDUsMzY0LjA1IDI1Ni4yMywzNjUuNzcgMjU4LjAxLDM2Ny40NCAyNTkuNzksMzY5LjA0IDI2MS41OCwzNzAuNTggMjYzLjM2LDM3Mi4wNiAyNjUuMTQsMzczLjQ2IDI2Ni45MiwzNzQuODAgMjY4LjcxLDM3Ni4wNiAyNzAuNDksMzc3LjI0IDI3Mi4yNywzNzguMzUgMjc0LjA1LDM3OS4zNyAyNzUuODQsMzgwLjMxIDI3Ny42MiwzODEuMTcgMjc5LjQwLDM4MS45NCAyODEuMTgsMzgyLjYxIDI4Mi45NywzODMuMTkgMjg0Ljc1LDM4My42OCAyODYuNTMsMzg0LjA3IDI4OC4zMSwzODQuMzUgMjkwLjEwLDM4NC41NCAyOTEuODgsMzg0LjYzIDI5My42NiwzODQuNjMgMjk1LjQ0LDM4NC41NCAyOTcuMjIsMzg0LjM3IDI5OS4wMSwzODQuMTMgMzAwLjc5LDM4My44MyAzMDIuNTcsMzgzLjQ2IDMwNC4zNSwzODMuMDQgMzA2LjE0LDM4Mi41NiAzMDcuOTIsMzgyLjA1IDMwOS43MCwzODEuNDkgMzExLjQ4LDM4MC44OSAzMTMuMjcsMzgwLjI0IDMxNS4wNSwzNzkuNTUgMzE2LjgzLDM3OC44MSAzMTguNjEsMzc4LjAzIDMyMC40MCwzNzcuMjAgMzIyLjE4LDM3Ni4zMiAzMjMuOTYsMzc1LjQwIDMyNS43NCwzNzQuNDMgMzI3LjUzLDM3My40MSAzMjkuMzEsMzcyLjM1IDMzMS4wOSwzNzEuMjQgMzMyLjg3LDM3MC4wOSAzMzQuNjUsMzY4Ljg5IDMzNi40NCwzNjcuNjUgMzM4LjIyLDM2Ni4zNyAzNDAuMDAsMzY1LjA0IDM0MS43OCwzNjMuNjggMzQzLjU3LDM2Mi4yNyAzNDUuMzUsMzYwLjgzIDM0Ny4xMywzNTkuMzQgMzQ4LjkxLDM1Ny44MiAzNTAuNzAsMzU2LjI2IDM1Mi40OCwzNTQuNjcgMzU0LjI2LDM1My4wNCAzNTYuMDQsMzUxLjM3IDM1Ny44MywzNDkuNjcgMzU5LjYxLDM0Ny45NCIvPiYjeGE7PHBvbHlsaW5lIHN0eWxlPSJzdHJva2Utd2lkdGg6IDEuMDc7IHN0cm9rZTogI0ZGQTUwMDsgc3Ryb2tlLWxpbmVjYXA6IGJ1dHQ7IiBwb2ludHM9IjMuMTMsNDI5LjAxIDQuOTEsNDI5LjAxIDYuNzAsNDI5LjAxIDguNDgsNDI5LjAxIDEwLjI2LDQyOS4wMSAxMi4wNCw0MjkuMDEgMTMuODMsNDI5LjAxIDE1LjYxLDQyOS4wMSAxNy4zOSw0MjkuMDEgMTkuMTcsNDI5LjAxIDIwLjk2LDQyOS4wMSAyMi43NCw0MjkuMDEgMjQuNTIsNDI5LjAxIDI2LjMwLDQyOS4wMSAyOC4wOSw0MjkuMDEgMjkuODcsNDI5LjAxIDMxLjY1LDQyOS4wMSAzMy40Myw0MjkuMDEgMzUuMjEsNDI5LjAxIDM3LjAwLDQyOS4wMSAzOC43OCw0MjkuMDEgNDAuNTYsNDI5LjAxIDQyLjM0LDQyOS4wMSA0NC4xMyw0MjkuMDEgNDUuOTEsNDI5LjAxIDQ3LjY5LDQyOS4wMSA0OS40Nyw0MjkuMDEgNTEuMjYsNDI5LjAxIDUzLjA0LDQyOS4wMSA1NC44Miw0MjkuMDEgNTYuNjAsNDI5LjAxIDU4LjM5LDQyOS4wMSA2MC4xNyw0MjkuMDEgNjEuOTUsNDI5LjAxIDYzLjczLDQyOS4wMSA2NS41Miw0MjkuMDEgNjcuMzAsNDI5LjAxIDY5LjA4LDQyOS4wMSA3MC44Niw0MjkuMDEgNzIuNjQsNDI5LjAxIDc0LjQzLDQyOS4wMSA3Ni4yMSw0MjkuMDEgNzcuOTksNDI5LjAxIDc5Ljc3LDQyOS4wMSA4MS41Niw0MjkuMDEgODMuMzQsNDI5LjAxIDg1LjEyLDQyOS4wMSA4Ni45MCw0MjkuMDEgODguNjksNDI5LjAxIDkwLjQ3LDQyOS4wMSA5Mi4yNSw0MjkuMDEgOTQuMDMsNDI5LjAxIDk1LjgyLDQyOS4wMSA5Ny42MCw0MjkuMDEgOTkuMzgsNDI5LjAxIDEwMS4xNiw0MjkuMDEgMTAyLjk1LDQyOS4wMSAxMDQuNzMsNDI5LjAxIDEwNi41MSw0MjkuMDEgMTA4LjI5LDQyOS4wMSAxMTAuMDcsNDI5LjAxIDExMS44Niw0MjUuNDggMTEzLjY0LDQyMi41MCAxMTUuNDIsNDIwLjE3IDExNy4yMCw0MTguNTIgMTE4Ljk5LDQxNy41MiAxMjAuNzcsNDE3LjE5IDEyMi41NSw0MTcuNTIgMTI0LjMzLDQxOC41MiAxMjYuMTIsNDIwLjE3IDEyNy45MCw0MjIuNTAgMTI5LjY4LDQyNS40OCAxMzEuNDYsNDI5LjAxIDEzMy4yNSw0MjkuMDEgMTM1LjAzLDQyOS4wMSAxMzYuODEsNDI5LjAxIDEzOC41OSw0MjkuMDEgMTQwLjM4LDQyOS4wMSAxNDIuMTYsNDI5LjAxIDE0My45NCw0MjkuMDEgMTQ1LjcyLDQyOS4wMSAxNDcuNTAsNDI5LjAxIDE0OS4yOSw0MjkuMDEgMTUxLjA3LDQyOS4wMSAxNTIuODUsNDI5LjAxIDE1NC42Myw0MjkuMDEgMTU2LjQyLDQyOS4wMSAxNTguMjAsNDI5LjAxIDE1OS45OCw0MjkuMDEgMTYxLjc2LDQyOS4wMSAxNjMuNTUsNDI5LjAxIDE2NS4zMyw0MjkuMDEgMTY3LjExLDQyOS4wMSAxNjguODksNDI5LjAxIDE3MC42OCw0MjkuMDEgMTcyLjQ2LDQyOS4wMSAxNzQuMjQsNDI5LjAxIDE3Ni4wMiw0MjkuMDEgMTc3LjgxLDQyOS4wMSAxNzkuNTksNDI5LjAxIDE4MS4zNyw0MjkuMDEgMTgzLjE1LDQyOS4wMSAxODQuOTMsNDI5LjAxIDE4Ni43Miw0MjkuMDEgMTg4LjUwLDQyOS4wMSAxOTAuMjgsNDI5LjAxIDE5Mi4wNiw0MjkuMDEgMTkzLjg1LDQyOS4wMSAxOTUuNjMsNDI5LjAxIDE5Ny40MSw0MjkuMDEgMTk5LjE5LDQyOS4wMSAyMDAuOTgsNDI5LjAxIDIwMi43Niw0MjkuMDEgMjA0LjU0LDQyOS4wMSAyMDYuMzIsNDI5LjAxIDIwOC4xMSw0MjkuMDEgMjA5Ljg5LDQyOS4wMSAyMTEuNjcsNDI5LjAxIDIxMy40NSw0MjkuMDEgMjE1LjI0LDQyOS4wMSAyMTcuMDIsNDI5LjAxIDIxOC44MCw0MjkuMDEgMjIwLjU4LDQyOS4wMSAyMjIuMzYsNDI5LjAxIDIyNC4xNSw0MjkuMDEgMjI1LjkzLDQyOS4wMSAyMjcuNzEsNDI5LjAxIDIyOS40OSw0MjkuMDEgMjMxLjI4LDQyOS4wMSAyMzMuMDYsNDI5LjAxIDIzNC44NCw0MjkuMDEgMjM2LjYyLDQyOS4wMSAyMzguNDEsNDI5LjAxIDI0MC4xOSw0MjkuMDEgMjQxLjk3LDQyOS4wMSAyNDMuNzUsNDI5LjAxIDI0NS41NCw0MjkuMDEgMjQ3LjMyLDQyOS4wMSAyNDkuMTAsNDI5LjAxIDI1MC44OCw0MjkuMDEgMjUyLjY3LDQyOS4wMSAyNTQuNDUsNDI5LjAxIDI1Ni4yMyw0MjkuMDEgMjU4LjAxLDQyOS4wMSAyNTkuNzksNDI5LjAxIDI2MS41OCw0MjkuMDEgMjYzLjM2LDQyOS4wMSAyNjUuMTQsNDI5LjAxIDI2Ni45Miw0MjkuMDEgMjY4LjcxLDQyOS4wMSAyNzAuNDksNDI5LjAxIDI3Mi4yNyw0MjkuMDEgMjc0LjA1LDQyOS4wMSAyNzUuODQsNDI5LjAxIDI3Ny42Miw0MjkuMDEgMjc5LjQwLDQyOS4wMSAyODEuMTgsNDI5LjAxIDI4Mi45Nyw0MjkuMDEgMjg0Ljc1LDQyOS4wMSAyODYuNTMsNDI5LjAxIDI4OC4zMSw0MjkuMDEgMjkwLjEwLDQyOS4wMSAyOTEuODgsNDI5LjAxIDI5My42Niw0MjkuMDEgMjk1LjQ0LDQyOS4wMSAyOTcuMjIsNDI5LjAxIDI5OS4wMSw0MjkuMDEgMzAwLjc5LDQyOS4wMSAzMDIuNTcsNDI5LjAxIDMwNC4zNSw0MjkuMDEgMzA2LjE0LDQyOS4wMSAzMDcuOTIsNDI5LjAxIDMwOS43MCw0MjkuMDEgMzExLjQ4LDQyOS4wMSAzMTMuMjcsNDI5LjAxIDMxNS4wNSw0MjkuMDEgMzE2LjgzLDQyOS4wMSAzMTguNjEsNDI5LjAxIDMyMC40MCw0MjkuMDEgMzIyLjE4LDQyOS4wMSAzMjMuOTYsNDI5LjAxIDMyNS43NCw0MjkuMDEgMzI3LjUzLDQyOS4wMSAzMjkuMzEsNDI5LjAxIDMzMS4wOSw0MjkuMDEgMzMyLjg3LDQyOS4wMSAzMzQuNjUsNDI5LjAxIDMzNi40NCw0MjkuMDEgMzM4LjIyLDQyOS4wMSAzNDAuMDAsNDI5LjAxIDM0MS43OCw0MjkuMDEgMzQzLjU3LDQyOS4wMSAzNDUuMzUsNDI5LjAxIDM0Ny4xMyw0MjkuMDEgMzQ4LjkxLDQyOS4wMSAzNTAuNzAsNDI5LjAxIDM1Mi40OCw0MjkuMDEgMzU0LjI2LDQyOS4wMSAzNTYuMDQsNDI5LjAxIDM1Ny44Myw0MjkuMDEgMzU5LjYxLDQyOS4wMSIvPiYjeGE7PHBvbHlnb24gc3R5bGU9InN0cm9rZS13aWR0aDogMC4wMDsgc3Ryb2tlOiBub25lOyBzdHJva2UtbGluZWNhcDogYnV0dDsgZmlsbDogI0ZGRjRFMDsiIHBvaW50cz0iMy4xMyw0MjkuMDEgNC45MSw0MjkuMDEgNi43MCw0MjkuMDEgOC40OCw0MjkuMDEgMTAuMjYsNDI5LjAxIDEyLjA0LDQyOS4wMSAxMy44Myw0MjkuMDEgMTUuNjEsNDI5LjAxIDE3LjM5LDQyOS4wMSAxOS4xNyw0MjkuMDEgMjAuOTYsNDI5LjAxIDIyLjc0LDQyOS4wMSAyNC41Miw0MjkuMDEgMjYuMzAsNDI5LjAxIDI4LjA5LDQyOS4wMSAyOS44Nyw0MjkuMDEgMzEuNjUsNDI5LjAxIDMzLjQzLDQyOS4wMSAzNS4yMSw0MjkuMDEgMzcuMDAsNDI5LjAxIDM4Ljc4LDQyOS4wMSA0MC41Niw0MjkuMDEgNDIuMzQsNDI5LjAxIDQ0LjEzLDQyOS4wMSA0NS45MSw0MjkuMDEgNDcuNjksNDI5LjAxIDQ5LjQ3LDQyOS4wMSA1MS4yNiw0MjkuMDEgNTMuMDQsNDI5LjAxIDU0LjgyLDQyOS4wMSA1Ni42MCw0MjkuMDEgNTguMzksNDI5LjAxIDYwLjE3LDQyOS4wMSA2MS45NSw0MjkuMDEgNjMuNzMsNDI5LjAxIDY1LjUyLDQyOS4wMSA2Ny4zMCw0MjkuMDEgNjkuMDgsNDI5LjAxIDcwLjg2LDQyOS4wMSA3Mi42NCw0MjkuMDEgNzQuNDMsNDI5LjAxIDc2LjIxLDQyOS4wMSA3Ny45OSw0MjkuMDEgNzkuNzcsNDI5LjAxIDgxLjU2LDQyOS4wMSA4My4zNCw0MjkuMDEgODUuMTIsNDI5LjAxIDg2LjkwLDQyOS4wMSA4OC42OSw0MjkuMDEgOTAuNDcsNDI5LjAxIDkyLjI1LDQyOS4wMSA5NC4wMyw0MjkuMDEgOTUuODIsNDI5LjAxIDk3LjYwLDQyOS4wMSA5OS4zOCw0MjkuMDEgMTAxLjE2LDQyOS4wMSAxMDIuOTUsNDI5LjAxIDEwNC43Myw0MjkuMDEgMTA2LjUxLDQyOS4wMSAxMDguMjksNDI5LjAxIDExMC4wNyw0MjkuMDEgMTExLjg2LDQyNS40OCAxMTMuNjQsNDIyLjUwIDExNS40Miw0MjAuMTcgMTE3LjIwLDQxOC41MiAxMTguOTksNDE3LjUyIDEyMC43Nyw0MTcuMTkgMTIyLjU1LDQxNy41MiAxMjQuMzMsNDE4LjUyIDEyNi4xMiw0MjAuMTcgMTI3LjkwLDQyMi41MCAxMjkuNjgsNDI1LjQ4IDEzMS40Niw0MjkuMDEgMTMzLjI1LDQyOS4wMSAxMzUuMDMsNDI5LjAxIDEzNi44MSw0MjkuMDEgMTM4LjU5LDQyOS4wMSAxNDAuMzgsNDI5LjAxIDE0Mi4xNiw0MjkuMDEgMTQzLjk0LDQyOS4wMSAxNDUuNzIsNDI5LjAxIDE0Ny41MCw0MjkuMDEgMTQ5LjI5LDQyOS4wMSAxNTEuMDcsNDI5LjAxIDE1Mi44NSw0MjkuMDEgMTU0LjYzLDQyOS4wMSAxNTYuNDIsNDI5LjAxIDE1OC4yMCw0MjkuMDEgMTU5Ljk4LDQyOS4wMSAxNjEuNzYsNDI5LjAxIDE2My41NSw0MjkuMDEgMTY1LjMzLDQyOS4wMSAxNjcuMTEsNDI5LjAxIDE2OC44OSw0MjkuMDEgMTcwLjY4LDQyOS4wMSAxNzIuNDYsNDI5LjAxIDE3NC4yNCw0MjkuMDEgMTc2LjAyLDQyOS4wMSAxNzcuODEsNDI5LjAxIDE3OS41OSw0MjkuMDEgMTgxLjM3LDQyOS4wMSAxODMuMTUsNDI5LjAxIDE4NC45Myw0MjkuMDEgMTg2LjcyLDQyOS4wMSAxODguNTAsNDI5LjAxIDE5MC4yOCw0MjkuMDEgMTkyLjA2LDQyOS4wMSAxOTMuODUsNDI5LjAxIDE5NS42Myw0MjkuMDEgMTk3LjQxLDQyOS4wMSAxOTkuMTksNDI5LjAxIDIwMC45OCw0MjkuMDEgMjAyLjc2LDQyOS4wMSAyMDQuNTQsNDI5LjAxIDIwNi4zMiw0MjkuMDEgMjA4LjExLDQyOS4wMSAyMDkuODksNDI5LjAxIDIxMS42Nyw0MjkuMDEgMjEzLjQ1LDQyOS4wMSAyMTUuMjQsNDI5LjAxIDIxNy4wMiw0MjkuMDEgMjE4LjgwLDQyOS4wMSAyMjAuNTgsNDI5LjAxIDIyMi4zNiw0MjkuMDEgMjI0LjE1LDQyOS4wMSAyMjUuOTMsNDI5LjAxIDIyNy43MSw0MjkuMDEgMjI5LjQ5LDQyOS4wMSAyMzEuMjgsNDI5LjAxIDIzMy4wNiw0MjkuMDEgMjM0Ljg0LDQyOS4wMSAyMzYuNjIsNDI5LjAxIDIzOC40MSw0MjkuMDEgMjQwLjE5LDQyOS4wMSAyNDEuOTcsNDI5LjAxIDI0My43NSw0MjkuMDEgMjQ1LjU0LDQyOS4wMSAyNDcuMzIsNDI5LjAxIDI0OS4xMCw0MjkuMDEgMjUwLjg4LDQyOS4wMSAyNTIuNjcsNDI5LjAxIDI1NC40NSw0MjkuMDEgMjU2LjIzLDQyOS4wMSAyNTguMDEsNDI5LjAxIDI1OS43OSw0MjkuMDEgMjYxLjU4LDQyOS4wMSAyNjMuMzYsNDI5LjAxIDI2NS4xNCw0MjkuMDEgMjY2LjkyLDQyOS4wMSAyNjguNzEsNDI5LjAxIDI3MC40OSw0MjkuMDEgMjcyLjI3LDQyOS4wMSAyNzQuMDUsNDI5LjAxIDI3NS44NCw0MjkuMDEgMjc3LjYyLDQyOS4wMSAyNzkuNDAsNDI5LjAxIDI4MS4xOCw0MjkuMDEgMjgyLjk3LDQyOS4wMSAyODQuNzUsNDI5LjAxIDI4Ni41Myw0MjkuMDEgMjg4LjMxLDQyOS4wMSAyOTAuMTAsNDI5LjAxIDI5MS44OCw0MjkuMDEgMjkzLjY2LDQyOS4wMSAyOTUuNDQsNDI5LjAxIDI5Ny4yMiw0MjkuMDEgMjk5LjAxLDQyOS4wMSAzMDAuNzksNDI5LjAxIDMwMi41Nyw0MjkuMDEgMzA0LjM1LDQyOS4wMSAzMDYuMTQsNDI5LjAxIDMwNy45Miw0MjkuMDEgMzA5LjcwLDQyOS4wMSAzMTEuNDgsNDI5LjAxIDMxMy4yNyw0MjkuMDEgMzE1LjA1LDQyOS4wMSAzMTYuODMsNDI5LjAxIDMxOC42MSw0MjkuMDEgMzIwLjQwLDQyOS4wMSAzMjIuMTgsNDI5LjAxIDMyMy45Niw0MjkuMDEgMzI1Ljc0LDQyOS4wMSAzMjcuNTMsNDI5LjAxIDMyOS4zMSw0MjkuMDEgMzMxLjA5LDQyOS4wMSAzMzIuODcsNDI5LjAxIDMzNC42NSw0MjkuMDEgMzM2LjQ0LDQyOS4wMSAzMzguMjIsNDI5LjAxIDM0MC4wMCw0MjkuMDEgMzQxLjc4LDQyOS4wMSAzNDMuNTcsNDI5LjAxIDM0NS4zNSw0MjkuMDEgMzQ3LjEzLDQyOS4wMSAzNDguOTEsNDI5LjAxIDM1MC43MCw0MjkuMDEgMzUyLjQ4LDQyOS4wMSAzNTQuMjYsNDI5LjAxIDM1Ni4wNCw0MjkuMDEgMzU3LjgzLDQyOS4wMSAzNTkuNjEsNDI5LjAxIDM1OS42MSw0MjkuMTMgMzU3LjgzLDQyOS4xMyAzNTYuMDQsNDI5LjEzIDM1NC4yNiw0MjkuMTMgMzUyLjQ4LDQyOS4xMyAzNTAuNzAsNDI5LjEzIDM0OC45MSw0MjkuMTMgMzQ3LjEzLDQyOS4xMyAzNDUuMzUsNDI5LjEzIDM0My41Nyw0MjkuMTMgMzQxLjc4LDQyOS4xMyAzNDAuMDAsNDI5LjEzIDMzOC4yMiw0MjkuMTMgMzM2LjQ0LDQyOS4xMyAzMzQuNjUsNDI5LjEzIDMzMi44Nyw0MjkuMTMgMzMxLjA5LDQyOS4xMyAzMjkuMzEsNDI5LjEzIDMyNy41Myw0MjkuMTMgMzI1Ljc0LDQyOS4xMyAzMjMuOTYsNDI5LjEzIDMyMi4xOCw0MjkuMTMgMzIwLjQwLDQyOS4xMyAzMTguNjEsNDI5LjEzIDMxNi44Myw0MjkuMTMgMzE1LjA1LDQyOS4xMyAzMTMuMjcsNDI5LjEzIDMxMS40OCw0MjkuMTMgMzA5LjcwLDQyOS4xMyAzMDcuOTIsNDI5LjEzIDMwNi4xNCw0MjkuMTMgMzA0LjM1LDQyOS4xMyAzMDIuNTcsNDI5LjEzIDMwMC43OSw0MjkuMTMgMjk5LjAxLDQyOS4xMyAyOTcuMjIsNDI5LjEzIDI5NS40NCw0MjkuMTMgMjkzLjY2LDQyOS4xMyAyOTEuODgsNDI5LjEzIDI5MC4xMCw0MjkuMTMgMjg4LjMxLDQyOS4xMyAyODYuNTMsNDI5LjEzIDI4NC43NSw0MjkuMTMgMjgyLjk3LDQyOS4xMyAyODEuMTgsNDI5LjEzIDI3OS40MCw0MjkuMTMgMjc3LjYyLDQyOS4xMyAyNzUuODQsNDI5LjEzIDI3NC4wNSw0MjkuMTMgMjcyLjI3LDQyOS4xMyAyNzAuNDksNDI5LjEzIDI2OC43MSw0MjkuMTMgMjY2LjkyLDQyOS4xMyAyNjUuMTQsNDI5LjEzIDI2My4zNiw0MjkuMTMgMjYxLjU4LDQyOS4xMyAyNTkuNzksNDI5LjEzIDI1OC4wMSw0MjkuMTMgMjU2LjIzLDQyOS4xMyAyNTQuNDUsNDI5LjEzIDI1Mi42Nyw0MjkuMTMgMjUwLjg4LDQyOS4xMyAyNDkuMTAsNDI5LjEzIDI0Ny4zMiw0MjkuMTMgMjQ1LjU0LDQyOS4xMyAyNDMuNzUsNDI5LjEzIDI0MS45Nyw0MjkuMTMgMjQwLjE5LDQyOS4xMyAyMzguNDEsNDI5LjEzIDIzNi42Miw0MjkuMTMgMjM0Ljg0LDQyOS4xMyAyMzMuMDYsNDI5LjEzIDIzMS4yOCw0MjkuMTMgMjI5LjQ5LDQyOS4xMyAyMjcuNzEsNDI5LjEzIDIyNS45Myw0MjkuMTMgMjI0LjE1LDQyOS4xMyAyMjIuMzYsNDI5LjEzIDIyMC41OCw0MjkuMTMgMjE4LjgwLDQyOS4xMyAyMTcuMDIsNDI5LjEzIDIxNS4yNCw0MjkuMTMgMjEzLjQ1LDQyOS4xMyAyMTEuNjcsNDI5LjEzIDIwOS44OSw0MjkuMTMgMjA4LjExLDQyOS4xMyAyMDYuMzIsNDI5LjEzIDIwNC41NCw0MjkuMTMgMjAyLjc2LDQyOS4xMyAyMDAuOTgsNDI5LjEzIDE5OS4xOSw0MjkuMTMgMTk3LjQxLDQyOS4xMyAxOTUuNjMsNDI5LjEzIDE5My44NSw0MjkuMTMgMTkyLjA2LDQyOS4xMyAxOTAuMjgsNDI5LjEzIDE4OC41MCw0MjkuMTMgMTg2LjcyLDQyOS4xMyAxODQuOTMsNDI5LjEzIDE4My4xNSw0MjkuMTMgMTgxLjM3LDQyOS4xMyAxNzkuNTksNDI5LjEzIDE3Ny44MSw0MjkuMTMgMTc2LjAyLDQyOS4xMyAxNzQuMjQsNDI5LjEzIDE3Mi40Niw0MjkuMTMgMTcwLjY4LDQyOS4xMyAxNjguODksNDI5LjEzIDE2Ny4xMSw0MjkuMTMgMTY1LjMzLDQyOS4xMyAxNjMuNTUsNDI5LjEzIDE2MS43Niw0MjkuMTMgMTU5Ljk4LDQyOS4xMyAxNTguMjAsNDI5LjEzIDE1Ni40Miw0MjkuMTMgMTU0LjYzLDQyOS4xMyAxNTIuODUsNDI5LjEzIDE1MS4wNyw0MjkuMTMgMTQ5LjI5LDQyOS4xMyAxNDcuNTAsNDI5LjEzIDE0NS43Miw0MjkuMTMgMTQzLjk0LDQyOS4xMyAxNDIuMTYsNDI5LjEzIDE0MC4zOCw0MjkuMTMgMTM4LjU5LDQyOS4xMyAxMzYuODEsNDI5LjEzIDEzNS4wMyw0MjkuMTMgMTMzLjI1LDQyOS4xMyAxMzEuNDYsNDI5LjEzIDEyOS42OCw0MjkuMTMgMTI3LjkwLDQyOS4xMyAxMjYuMTIsNDI5LjEzIDEyNC4zMyw0MjkuMTMgMTIyLjU1LDQyOS4xMyAxMjAuNzcsNDI5LjEzIDExOC45OSw0MjkuMTMgMTE3LjIwLDQyOS4xMyAxMTUuNDIsNDI5LjEzIDExMy42NCw0MjkuMTMgMTExLjg2LDQyOS4xMyAxMTAuMDcsNDI5LjEzIDEwOC4yOSw0MjkuMTMgMTA2LjUxLDQyOS4xMyAxMDQuNzMsNDI5LjEzIDEwMi45NSw0MjkuMTMgMTAxLjE2LDQyOS4xMyA5OS4zOCw0MjkuMTMgOTcuNjAsNDI5LjEzIDk1LjgyLDQyOS4xMyA5NC4wMyw0MjkuMTMgOTIuMjUsNDI5LjEzIDkwLjQ3LDQyOS4xMyA4OC42OSw0MjkuMTMgODYuOTAsNDI5LjEzIDg1LjEyLDQyOS4xMyA4My4zNCw0MjkuMTMgODEuNTYsNDI5LjEzIDc5Ljc3LDQyOS4xMyA3Ny45OSw0MjkuMTMgNzYuMjEsNDI5LjEzIDc0LjQzLDQyOS4xMyA3Mi42NCw0MjkuMTMgNzAuODYsNDI5LjEzIDY5LjA4LDQyOS4xMyA2Ny4zMCw0MjkuMTMgNjUuNTIsNDI5LjEzIDYzLjczLDQyOS4xMyA2MS45NSw0MjkuMTMgNjAuMTcsNDI5LjEzIDU4LjM5LDQyOS4xMyA1Ni42MCw0MjkuMTMgNTQuODIsNDI5LjEzIDUzLjA0LDQyOS4xMyA1MS4yNiw0MjkuMTMgNDkuNDcsNDI5LjEzIDQ3LjY5LDQyOS4xMyA0NS45MSw0MjkuMTMgNDQuMTMsNDI5LjEzIDQyLjM0LDQyOS4xMyA0MC41Niw0MjkuMTMgMzguNzgsNDI5LjEzIDM3LjAwLDQyOS4xMyAzNS4yMSw0MjkuMTMgMzMuNDMsNDI5LjEzIDMxLjY1LDQyOS4xMyAyOS44Nyw0MjkuMTMgMjguMDksNDI5LjEzIDI2LjMwLDQyOS4xMyAyNC41Miw0MjkuMTMgMjIuNzQsNDI5LjEzIDIwLjk2LDQyOS4xMyAxOS4xNyw0MjkuMTMgMTcuMzksNDI5LjEzIDE1LjYxLDQyOS4xMyAxMy44Myw0MjkuMTMgMTIuMDQsNDI5LjEzIDEwLjI2LDQyOS4xMyA4LjQ4LDQyOS4xMyA2LjcwLDQyOS4xMyA0LjkxLDQyOS4xMyAzLjEzLDQyOS4xMyIvPiYjeGE7PHBvbHlsaW5lIHN0eWxlPSJzdHJva2Utd2lkdGg6IDEuMDc7IHN0cm9rZTogbm9uZTsgc3Ryb2tlLWxpbmVjYXA6IGJ1dHQ7IiBwb2ludHM9IjMuMTMsNDI5LjAxIDQuOTEsNDI5LjAxIDYuNzAsNDI5LjAxIDguNDgsNDI5LjAxIDEwLjI2LDQyOS4wMSAxMi4wNCw0MjkuMDEgMTMuODMsNDI5LjAxIDE1LjYxLDQyOS4wMSAxNy4zOSw0MjkuMDEgMTkuMTcsNDI5LjAxIDIwLjk2LDQyOS4wMSAyMi43NCw0MjkuMDEgMjQuNTIsNDI5LjAxIDI2LjMwLDQyOS4wMSAyOC4wOSw0MjkuMDEgMjkuODcsNDI5LjAxIDMxLjY1LDQyOS4wMSAzMy40Myw0MjkuMDEgMzUuMjEsNDI5LjAxIDM3LjAwLDQyOS4wMSAzOC43OCw0MjkuMDEgNDAuNTYsNDI5LjAxIDQyLjM0LDQyOS4wMSA0NC4xMyw0MjkuMDEgNDUuOTEsNDI5LjAxIDQ3LjY5LDQyOS4wMSA0OS40Nyw0MjkuMDEgNTEuMjYsNDI5LjAxIDUzLjA0LDQyOS4wMSA1NC44Miw0MjkuMDEgNTYuNjAsNDI5LjAxIDU4LjM5LDQyOS4wMSA2MC4xNyw0MjkuMDEgNjEuOTUsNDI5LjAxIDYzLjczLDQyOS4wMSA2NS41Miw0MjkuMDEgNjcuMzAsNDI5LjAxIDY5LjA4LDQyOS4wMSA3MC44Niw0MjkuMDEgNzIuNjQsNDI5LjAxIDc0LjQzLDQyOS4wMSA3Ni4yMSw0MjkuMDEgNzcuOTksNDI5LjAxIDc5Ljc3LDQyOS4wMSA4MS41Niw0MjkuMDEgODMuMzQsNDI5LjAxIDg1LjEyLDQyOS4wMSA4Ni45MCw0MjkuMDEgODguNjksNDI5LjAxIDkwLjQ3LDQyOS4wMSA5Mi4yNSw0MjkuMDEgOTQuMDMsNDI5LjAxIDk1LjgyLDQyOS4wMSA5Ny42MCw0MjkuMDEgOTkuMzgsNDI5LjAxIDEwMS4xNiw0MjkuMDEgMTAyLjk1LDQyOS4wMSAxMDQuNzMsNDI5LjAxIDEwNi41MSw0MjkuMDEgMTA4LjI5LDQyOS4wMSAxMTAuMDcsNDI5LjAxIDExMS44Niw0MjUuNDggMTEzLjY0LDQyMi41MCAxMTUuNDIsNDIwLjE3IDExNy4yMCw0MTguNTIgMTE4Ljk5LDQxNy41MiAxMjAuNzcsNDE3LjE5IDEyMi41NSw0MTcuNTIgMTI0LjMzLDQxOC41MiAxMjYuMTIsNDIwLjE3IDEyNy45MCw0MjIuNTAgMTI5LjY4LDQyNS40OCAxMzEuNDYsNDI5LjAxIDEzMy4yNSw0MjkuMDEgMTM1LjAzLDQyOS4wMSAxMzYuODEsNDI5LjAxIDEzOC41OSw0MjkuMDEgMTQwLjM4LDQyOS4wMSAxNDIuMTYsNDI5LjAxIDE0My45NCw0MjkuMDEgMTQ1LjcyLDQyOS4wMSAxNDcuNTAsNDI5LjAxIDE0OS4yOSw0MjkuMDEgMTUxLjA3LDQyOS4wMSAxNTIuODUsNDI5LjAxIDE1NC42Myw0MjkuMDEgMTU2LjQyLDQyOS4wMSAxNTguMjAsNDI5LjAxIDE1OS45OCw0MjkuMDEgMTYxLjc2LDQyOS4wMSAxNjMuNTUsNDI5LjAxIDE2NS4zMyw0MjkuMDEgMTY3LjExLDQyOS4wMSAxNjguODksNDI5LjAxIDE3MC42OCw0MjkuMDEgMTcyLjQ2LDQyOS4wMSAxNzQuMjQsNDI5LjAxIDE3Ni4wMiw0MjkuMDEgMTc3LjgxLDQyOS4wMSAxNzkuNTksNDI5LjAxIDE4MS4zNyw0MjkuMDEgMTgzLjE1LDQyOS4wMSAxODQuOTMsNDI5LjAxIDE4Ni43Miw0MjkuMDEgMTg4LjUwLDQyOS4wMSAxOTAuMjgsNDI5LjAxIDE5Mi4wNiw0MjkuMDEgMTkzLjg1LDQyOS4wMSAxOTUuNjMsNDI5LjAxIDE5Ny40MSw0MjkuMDEgMTk5LjE5LDQyOS4wMSAyMDAuOTgsNDI5LjAxIDIwMi43Niw0MjkuMDEgMjA0LjU0LDQyOS4wMSAyMDYuMzIsNDI5LjAxIDIwOC4xMSw0MjkuMDEgMjA5Ljg5LDQyOS4wMSAyMTEuNjcsNDI5LjAxIDIxMy40NSw0MjkuMDEgMjE1LjI0LDQyOS4wMSAyMTcuMDIsNDI5LjAxIDIxOC44MCw0MjkuMDEgMjIwLjU4LDQyOS4wMSAyMjIuMzYsNDI5LjAxIDIyNC4xNSw0MjkuMDEgMjI1LjkzLDQyOS4wMSAyMjcuNzEsNDI5LjAxIDIyOS40OSw0MjkuMDEgMjMxLjI4LDQyOS4wMSAyMzMuMDYsNDI5LjAxIDIzNC44NCw0MjkuMDEgMjM2LjYyLDQyOS4wMSAyMzguNDEsNDI5LjAxIDI0MC4xOSw0MjkuMDEgMjQxLjk3LDQyOS4wMSAyNDMuNzUsNDI5LjAxIDI0NS41NCw0MjkuMDEgMjQ3LjMyLDQyOS4wMSAyNDkuMTAsNDI5LjAxIDI1MC44OCw0MjkuMDEgMjUyLjY3LDQyOS4wMSAyNTQuNDUsNDI5LjAxIDI1Ni4yMyw0MjkuMDEgMjU4LjAxLDQyOS4wMSAyNTkuNzksNDI5LjAxIDI2MS41OCw0MjkuMDEgMjYzLjM2LDQyOS4wMSAyNjUuMTQsNDI5LjAxIDI2Ni45Miw0MjkuMDEgMjY4LjcxLDQyOS4wMSAyNzAuNDksNDI5LjAxIDI3Mi4yNyw0MjkuMDEgMjc0LjA1LDQyOS4wMSAyNzUuODQsNDI5LjAxIDI3Ny42Miw0MjkuMDEgMjc5LjQwLDQyOS4wMSAyODEuMTgsNDI5LjAxIDI4Mi45Nyw0MjkuMDEgMjg0Ljc1LDQyOS4wMSAyODYuNTMsNDI5LjAxIDI4OC4zMSw0MjkuMDEgMjkwLjEwLDQyOS4wMSAyOTEuODgsNDI5LjAxIDI5My42Niw0MjkuMDEgMjk1LjQ0LDQyOS4wMSAyOTcuMjIsNDI5LjAxIDI5OS4wMSw0MjkuMDEgMzAwLjc5LDQyOS4wMSAzMDIuNTcsNDI5LjAxIDMwNC4zNSw0MjkuMDEgMzA2LjE0LDQyOS4wMSAzMDcuOTIsNDI5LjAxIDMwOS43MCw0MjkuMDEgMzExLjQ4LDQyOS4wMSAzMTMuMjcsNDI5LjAxIDMxNS4wNSw0MjkuMDEgMzE2LjgzLDQyOS4wMSAzMTguNjEsNDI5LjAxIDMyMC40MCw0MjkuMDEgMzIyLjE4LDQyOS4wMSAzMjMuOTYsNDI5LjAxIDMyNS43NCw0MjkuMDEgMzI3LjUzLDQyOS4wMSAzMjkuMzEsNDI5LjAxIDMzMS4wOSw0MjkuMDEgMzMyLjg3LDQyOS4wMSAzMzQuNjUsNDI5LjAxIDMzNi40NCw0MjkuMDEgMzM4LjIyLDQyOS4wMSAzNDAuMDAsNDI5LjAxIDM0MS43OCw0MjkuMDEgMzQzLjU3LDQyOS4wMSAzNDUuMzUsNDI5LjAxIDM0Ny4xMyw0MjkuMDEgMzQ4LjkxLDQyOS4wMSAzNTAuNzAsNDI5LjAxIDM1Mi40OCw0MjkuMDEgMzU0LjI2LDQyOS4wMSAzNTYuMDQsNDI5LjAxIDM1Ny44Myw0MjkuMDEgMzU5LjYxLDQyOS4wMSIvPiYjeGE7PHBvbHlsaW5lIHN0eWxlPSJzdHJva2Utd2lkdGg6IDEuMDc7IHN0cm9rZTogbm9uZTsgc3Ryb2tlLWxpbmVjYXA6IGJ1dHQ7IiBwb2ludHM9IjM1OS42MSw0MjkuMTMgMzU3LjgzLDQyOS4xMyAzNTYuMDQsNDI5LjEzIDM1NC4yNiw0MjkuMTMgMzUyLjQ4LDQyOS4xMyAzNTAuNzAsNDI5LjEzIDM0OC45MSw0MjkuMTMgMzQ3LjEzLDQyOS4xMyAzNDUuMzUsNDI5LjEzIDM0My41Nyw0MjkuMTMgMzQxLjc4LDQyOS4xMyAzNDAuMDAsNDI5LjEzIDMzOC4yMiw0MjkuMTMgMzM2LjQ0LDQyOS4xMyAzMzQuNjUsNDI5LjEzIDMzMi44Nyw0MjkuMTMgMzMxLjA5LDQyOS4xMyAzMjkuMzEsNDI5LjEzIDMyNy41Myw0MjkuMTMgMzI1Ljc0LDQyOS4xMyAzMjMuOTYsNDI5LjEzIDMyMi4xOCw0MjkuMTMgMzIwLjQwLDQyOS4xMyAzMTguNjEsNDI5LjEzIDMxNi44Myw0MjkuMTMgMzE1LjA1LDQyOS4xMyAzMTMuMjcsNDI5LjEzIDMxMS40OCw0MjkuMTMgMzA5LjcwLDQyOS4xMyAzMDcuOTIsNDI5LjEzIDMwNi4xNCw0MjkuMTMgMzA0LjM1LDQyOS4xMyAzMDIuNTcsNDI5LjEzIDMwMC43OSw0MjkuMTMgMjk5LjAxLDQyOS4xMyAyOTcuMjIsNDI5LjEzIDI5NS40NCw0MjkuMTMgMjkzLjY2LDQyOS4xMyAyOTEuODgsNDI5LjEzIDI5MC4xMCw0MjkuMTMgMjg4LjMxLDQyOS4xMyAyODYuNTMsNDI5LjEzIDI4NC43NSw0MjkuMTMgMjgyLjk3LDQyOS4xMyAyODEuMTgsNDI5LjEzIDI3OS40MCw0MjkuMTMgMjc3LjYyLDQyOS4xMyAyNzUuODQsNDI5LjEzIDI3NC4wNSw0MjkuMTMgMjcyLjI3LDQyOS4xMyAyNzAuNDksNDI5LjEzIDI2OC43MSw0MjkuMTMgMjY2LjkyLDQyOS4xMyAyNjUuMTQsNDI5LjEzIDI2My4zNiw0MjkuMTMgMjYxLjU4LDQyOS4xMyAyNTkuNzksNDI5LjEzIDI1OC4wMSw0MjkuMTMgMjU2LjIzLDQyOS4xMyAyNTQuNDUsNDI5LjEzIDI1Mi42Nyw0MjkuMTMgMjUwLjg4LDQyOS4xMyAyNDkuMTAsNDI5LjEzIDI0Ny4zMiw0MjkuMTMgMjQ1LjU0LDQyOS4xMyAyNDMuNzUsNDI5LjEzIDI0MS45Nyw0MjkuMTMgMjQwLjE5LDQyOS4xMyAyMzguNDEsNDI5LjEzIDIzNi42Miw0MjkuMTMgMjM0Ljg0LDQyOS4xMyAyMzMuMDYsNDI5LjEzIDIzMS4yOCw0MjkuMTMgMjI5LjQ5LDQyOS4xMyAyMjcuNzEsNDI5LjEzIDIyNS45Myw0MjkuMTMgMjI0LjE1LDQyOS4xMyAyMjIuMzYsNDI5LjEzIDIyMC41OCw0MjkuMTMgMjE4LjgwLDQyOS4xMyAyMTcuMDIsNDI5LjEzIDIxNS4yNCw0MjkuMTMgMjEzLjQ1LDQyOS4xMyAyMTEuNjcsNDI5LjEzIDIwOS44OSw0MjkuMTMgMjA4LjExLDQyOS4xMyAyMDYuMzIsNDI5LjEzIDIwNC41NCw0MjkuMTMgMjAyLjc2LDQyOS4xMyAyMDAuOTgsNDI5LjEzIDE5OS4xOSw0MjkuMTMgMTk3LjQxLDQyOS4xMyAxOTUuNjMsNDI5LjEzIDE5My44NSw0MjkuMTMgMTkyLjA2LDQyOS4xMyAxOTAuMjgsNDI5LjEzIDE4OC41MCw0MjkuMTMgMTg2LjcyLDQyOS4xMyAxODQuOTMsNDI5LjEzIDE4My4xNSw0MjkuMTMgMTgxLjM3LDQyOS4xMyAxNzkuNTksNDI5LjEzIDE3Ny44MSw0MjkuMTMgMTc2LjAyLDQyOS4xMyAxNzQuMjQsNDI5LjEzIDE3Mi40Niw0MjkuMTMgMTcwLjY4LDQyOS4xMyAxNjguODksNDI5LjEzIDE2Ny4xMSw0MjkuMTMgMTY1LjMzLDQyOS4xMyAxNjMuNTUsNDI5LjEzIDE2MS43Niw0MjkuMTMgMTU5Ljk4LDQyOS4xMyAxNTguMjAsNDI5LjEzIDE1Ni40Miw0MjkuMTMgMTU0LjYzLDQyOS4xMyAxNTIuODUsNDI5LjEzIDE1MS4wNyw0MjkuMTMgMTQ5LjI5LDQyOS4xMyAxNDcuNTAsNDI5LjEzIDE0NS43Miw0MjkuMTMgMTQzLjk0LDQyOS4xMyAxNDIuMTYsNDI5LjEzIDE0MC4zOCw0MjkuMTMgMTM4LjU5LDQyOS4xMyAxMzYuODEsNDI5LjEzIDEzNS4wMyw0MjkuMTMgMTMzLjI1LDQyOS4xMyAxMzEuNDYsNDI5LjEzIDEyOS42OCw0MjkuMTMgMTI3LjkwLDQyOS4xMyAxMjYuMTIsNDI5LjEzIDEyNC4zMyw0MjkuMTMgMTIyLjU1LDQyOS4xMyAxMjAuNzcsNDI5LjEzIDExOC45OSw0MjkuMTMgMTE3LjIwLDQyOS4xMyAxMTUuNDIsNDI5LjEzIDExMy42NCw0MjkuMTMgMTExLjg2LDQyOS4xMyAxMTAuMDcsNDI5LjEzIDEwOC4yOSw0MjkuMTMgMTA2LjUxLDQyOS4xMyAxMDQuNzMsNDI5LjEzIDEwMi45NSw0MjkuMTMgMTAxLjE2LDQyOS4xMyA5OS4zOCw0MjkuMTMgOTcuNjAsNDI5LjEzIDk1LjgyLDQyOS4xMyA5NC4wMyw0MjkuMTMgOTIuMjUsNDI5LjEzIDkwLjQ3LDQyOS4xMyA4OC42OSw0MjkuMTMgODYuOTAsNDI5LjEzIDg1LjEyLDQyOS4xMyA4My4zNCw0MjkuMTMgODEuNTYsNDI5LjEzIDc5Ljc3LDQyOS4xMyA3Ny45OSw0MjkuMTMgNzYuMjEsNDI5LjEzIDc0LjQzLDQyOS4xMyA3Mi42NCw0MjkuMTMgNzAuODYsNDI5LjEzIDY5LjA4LDQyOS4xMyA2Ny4zMCw0MjkuMTMgNjUuNTIsNDI5LjEzIDYzLjczLDQyOS4xMyA2MS45NSw0MjkuMTMgNjAuMTcsNDI5LjEzIDU4LjM5LDQyOS4xMyA1Ni42MCw0MjkuMTMgNTQuODIsNDI5LjEzIDUzLjA0LDQyOS4xMyA1MS4yNiw0MjkuMTMgNDkuNDcsNDI5LjEzIDQ3LjY5LDQyOS4xMyA0NS45MSw0MjkuMTMgNDQuMTMsNDI5LjEzIDQyLjM0LDQyOS4xMyA0MC41Niw0MjkuMTMgMzguNzgsNDI5LjEzIDM3LjAwLDQyOS4xMyAzNS4yMSw0MjkuMTMgMzMuNDMsNDI5LjEzIDMxLjY1LDQyOS4xMyAyOS44Nyw0MjkuMTMgMjguMDksNDI5LjEzIDI2LjMwLDQyOS4xMyAyNC41Miw0MjkuMTMgMjIuNzQsNDI5LjEzIDIwLjk2LDQyOS4xMyAxOS4xNyw0MjkuMTMgMTcuMzksNDI5LjEzIDE1LjYxLDQyOS4xMyAxMy44Myw0MjkuMTMgMTIuMDQsNDI5LjEzIDEwLjI2LDQyOS4xMyA4LjQ4LDQyOS4xMyA2LjcwLDQyOS4xMyA0LjkxLDQyOS4xMyAzLjEzLDQyOS4xMyIvPiYjeGE7PC9nPiYjeGE7PGcgY2xpcC1wYXRoPSJ1cmwoI2NwTUM0d01Id3pOakF1TURCOE1DNHdNSHcwTXpJdU1EQT0pIj4mI3hhOzwvZz4mI3hhOzwvc3ZnPg==;" parent="1" vertex="1">
          <mxGeometry x="107" y="118" width="566.66" height="680" as="geometry" />
        </mxCell>
        <mxCell id="f045MQ2bma1Jn3SjAhv5-3" value="" style="ellipse;whiteSpace=wrap;html=1;aspect=fixed;fillColor=#1A1A1A;strokeColor=none;" parent="1" vertex="1">
          <mxGeometry x="220" y="207" width="10" height="10" as="geometry" />
        </mxCell>
        <mxCell id="f045MQ2bma1Jn3SjAhv5-4" value="" style="ellipse;whiteSpace=wrap;html=1;aspect=fixed;fillColor=#1A1A1A;strokeColor=none;" parent="1" vertex="1">
          <mxGeometry x="220" y="660" width="10" height="10" as="geometry" />
        </mxCell>
        <mxCell id="f045MQ2bma1Jn3SjAhv5-5" value="" style="ellipse;whiteSpace=wrap;html=1;aspect=fixed;fillColor=#1A1A1A;strokeColor=none;" parent="1" vertex="1">
          <mxGeometry x="220" y="433" width="10" height="10" as="geometry" />
        </mxCell>
        <mxCell id="f045MQ2bma1Jn3SjAhv5-6" value="" style="ellipse;whiteSpace=wrap;html=1;aspect=fixed;fillColor=#1A1A1A;strokeColor=none;" parent="1" vertex="1">
          <mxGeometry x="556" y="719" width="10" height="10" as="geometry" />
        </mxCell>
        <mxCell id="f045MQ2bma1Jn3SjAhv5-7" value="" style="ellipse;whiteSpace=wrap;html=1;aspect=fixed;fillColor=#1A1A1A;strokeColor=none;" parent="1" vertex="1">
          <mxGeometry x="556" y="490" width="10" height="10" as="geometry" />
        </mxCell>
        <mxCell id="f045MQ2bma1Jn3SjAhv5-8" value="" style="ellipse;whiteSpace=wrap;html=1;aspect=fixed;fillColor=#1A1A1A;strokeColor=none;" parent="1" vertex="1">
          <mxGeometry x="556" y="265" width="10" height="10" as="geometry" />
        </mxCell>
        <mxCell id="f045MQ2bma1Jn3SjAhv5-11" value="" style="ellipse;whiteSpace=wrap;html=1;aspect=fixed;fillColor=#1A1A1A;strokeColor=none;" parent="1" vertex="1">
          <mxGeometry x="498" y="683" width="10" height="10" as="geometry" />
        </mxCell>
        <mxCell id="f045MQ2bma1Jn3SjAhv5-12" value="" style="ellipse;whiteSpace=wrap;html=1;aspect=fixed;fillColor=#FF0000;strokeColor=default;" parent="1" vertex="1">
          <mxGeometry x="498" y="455" width="10" height="10" as="geometry" />
        </mxCell>
        <mxCell id="f045MQ2bma1Jn3SjAhv5-14" value="" style="ellipse;whiteSpace=wrap;html=1;aspect=fixed;fillColor=#FF0000;strokeColor=default;" parent="1" vertex="1">
          <mxGeometry x="583" y="715" width="10" height="10" as="geometry" />
        </mxCell>
        <mxCell id="f045MQ2bma1Jn3SjAhv5-15" value="" style="shape=umlDestroy;whiteSpace=wrap;html=1;strokeWidth=1;targetShapes=umlLifeline;" parent="1" vertex="1">
          <mxGeometry x="498" y="308" width="10" height="10" as="geometry" />
        </mxCell>
        <mxCell id="f045MQ2bma1Jn3SjAhv5-16" value="" style="shape=umlDestroy;whiteSpace=wrap;html=1;strokeWidth=1;targetShapes=umlLifeline;" parent="1" vertex="1">
          <mxGeometry x="583" y="539" width="10" height="10" as="geometry" />
        </mxCell>
        <mxCell id="f045MQ2bma1Jn3SjAhv5-17" value="" style="shape=umlDestroy;whiteSpace=wrap;html=1;strokeWidth=1;targetShapes=umlLifeline;" parent="1" vertex="1">
          <mxGeometry x="292" y="769" width="10" height="10" as="geometry" />
        </mxCell>
        <mxCell id="f045MQ2bma1Jn3SjAhv5-18" value="&lt;span style=&quot;font-size: 18px;&quot;&gt;&lt;b&gt;Iteration 3&lt;/b&gt;&lt;/span&gt;" style="text;html=1;align=center;verticalAlign=middle;whiteSpace=wrap;rounded=0;" parent="1" vertex="1">
          <mxGeometry x="110" y="311" width="110" height="30" as="geometry" />
        </mxCell>
        <mxCell id="f045MQ2bma1Jn3SjAhv5-21" value="" style="edgeStyle=orthogonalEdgeStyle;rounded=0;orthogonalLoop=1;jettySize=auto;html=1;endArrow=classicThin;endFill=1;" parent="1" source="f045MQ2bma1Jn3SjAhv5-20" target="f045MQ2bma1Jn3SjAhv5-3" edge="1">
          <mxGeometry relative="1" as="geometry" />
        </mxCell>
        <mxCell id="f045MQ2bma1Jn3SjAhv5-20" value="Observation" style="text;html=1;align=center;verticalAlign=middle;whiteSpace=wrap;rounded=0;" parent="1" vertex="1">
          <mxGeometry x="187.5" y="255" width="75" height="30" as="geometry" />
        </mxCell>
        <mxCell id="f045MQ2bma1Jn3SjAhv5-24" value="" style="rounded=0;orthogonalLoop=1;jettySize=auto;html=1;exitX=1;exitY=0.5;exitDx=0;exitDy=0;endArrow=classicThin;endFill=1;" parent="1" source="f045MQ2bma1Jn3SjAhv5-22" target="f045MQ2bma1Jn3SjAhv5-15" edge="1">
          <mxGeometry relative="1" as="geometry" />
        </mxCell>
        <mxCell id="f045MQ2bma1Jn3SjAhv5-22" value="Max of the&lt;br&gt;Acquisition Function" style="text;html=1;align=center;verticalAlign=middle;whiteSpace=wrap;rounded=0;" parent="1" vertex="1">
          <mxGeometry x="330" y="283" width="121" height="30" as="geometry" />
        </mxCell>
        <mxCell id="f045MQ2bma1Jn3SjAhv5-25" value="Objective Function" style="text;html=1;align=center;verticalAlign=middle;whiteSpace=wrap;rounded=0;" parent="1" vertex="1">
          <mxGeometry x="300" y="380" width="62" height="30" as="geometry" />
        </mxCell>
        <mxCell id="f045MQ2bma1Jn3SjAhv5-28" value="" style="endArrow=classicThin;html=1;rounded=0;exitX=1;exitY=0.5;exitDx=0;exitDy=0;endFill=1;" parent="1" source="f045MQ2bma1Jn3SjAhv5-25" edge="1">
          <mxGeometry width="50" height="50" relative="1" as="geometry">
            <mxPoint x="358" y="395.9999999999999" as="sourcePoint" />
            <mxPoint x="417" y="415" as="targetPoint" />
          </mxGeometry>
        </mxCell>
        <mxCell id="f045MQ2bma1Jn3SjAhv5-29" value="New&lt;br&gt;Observation" style="text;html=1;align=center;verticalAlign=middle;whiteSpace=wrap;rounded=0;" parent="1" vertex="1">
          <mxGeometry x="422" y="470" width="86" height="30" as="geometry" />
        </mxCell>
        <mxCell id="f045MQ2bma1Jn3SjAhv5-31" value="" style="endArrow=classicThin;html=1;rounded=0;endFill=1;" parent="1" edge="1">
          <mxGeometry width="50" height="50" relative="1" as="geometry">
            <mxPoint x="465" y="470" as="sourcePoint" />
            <mxPoint x="500" y="460" as="targetPoint" />
          </mxGeometry>
        </mxCell>
        <mxCell id="f045MQ2bma1Jn3SjAhv5-32" value="Acquisition Function" style="text;html=1;align=center;verticalAlign=middle;whiteSpace=wrap;rounded=0;" parent="1" vertex="1">
          <mxGeometry x="470" y="522" width="61" height="30" as="geometry" />
        </mxCell>
        <mxCell id="f045MQ2bma1Jn3SjAhv5-33" value="" style="endArrow=classicThin;html=1;rounded=0;exitX=1;exitY=0.5;exitDx=0;exitDy=0;endFill=1;" parent="1" source="f045MQ2bma1Jn3SjAhv5-32" edge="1">
          <mxGeometry width="50" height="50" relative="1" as="geometry">
            <mxPoint x="523" y="537" as="sourcePoint" />
            <mxPoint x="568" y="551" as="targetPoint" />
          </mxGeometry>
        </mxCell>
        <mxCell id="f045MQ2bma1Jn3SjAhv5-35" value="Variance" style="text;html=1;align=center;verticalAlign=middle;whiteSpace=wrap;rounded=0;" parent="1" vertex="1">
          <mxGeometry x="290" y="693" width="121" height="30" as="geometry" />
        </mxCell>
        <mxCell id="f045MQ2bma1Jn3SjAhv5-36" value="" style="endArrow=classicThin;html=1;rounded=0;exitX=0.5;exitY=0;exitDx=0;exitDy=0;endFill=1;entryX=0.431;entryY=0.812;entryDx=0;entryDy=0;entryPerimeter=0;" parent="1" source="f045MQ2bma1Jn3SjAhv5-35" edge="1">
          <mxGeometry width="50" height="50" relative="1" as="geometry">
            <mxPoint x="280.5" y="709" as="sourcePoint" />
            <mxPoint x="350.23046" y="671.1600000000001" as="targetPoint" />
          </mxGeometry>
        </mxCell>
        <mxCell id="f045MQ2bma1Jn3SjAhv5-37" value="Mean" style="text;html=1;align=center;verticalAlign=middle;whiteSpace=wrap;rounded=0;" parent="1" vertex="1">
          <mxGeometry x="360" y="680" width="121" height="31" as="geometry" />
        </mxCell>
        <mxCell id="f045MQ2bma1Jn3SjAhv5-38" value="" style="endArrow=classicThin;html=1;rounded=0;exitX=0.5;exitY=0;exitDx=0;exitDy=0;endFill=1;" parent="1" source="f045MQ2bma1Jn3SjAhv5-37" edge="1">
          <mxGeometry width="50" height="50" relative="1" as="geometry">
            <mxPoint x="420.5" y="684" as="sourcePoint" />
            <mxPoint x="420" y="654" as="targetPoint" />
          </mxGeometry>
        </mxCell>
        <mxCell id="1u5hR9CTPOLKDgKdXRV1-2" value="Acquisition Function" style="text;html=1;align=center;verticalAlign=middle;whiteSpace=wrap;rounded=0;" parent="1" vertex="1">
          <mxGeometry x="604" y="273" width="60" height="30" as="geometry" />
        </mxCell>
        <mxCell id="1u5hR9CTPOLKDgKdXRV1-5" value="" style="endArrow=classicThin;html=1;rounded=0;exitX=0;exitY=1;exitDx=0;exitDy=0;entryX=1;entryY=0;entryDx=0;entryDy=0;endFill=1;" parent="1" source="1u5hR9CTPOLKDgKdXRV1-2" edge="1">
          <mxGeometry width="50" height="50" relative="1" as="geometry">
            <mxPoint x="603" y="299" as="sourcePoint" />
            <mxPoint x="586" y="322" as="targetPoint" />
          </mxGeometry>
        </mxCell>
        <mxCell id="KlFPBbW0waeeuD-TQm3k-1" value="&lt;span style=&quot;font-size: 18px;&quot;&gt;&lt;b&gt;Iteration 4&lt;/b&gt;&lt;/span&gt;" style="text;html=1;align=center;verticalAlign=middle;whiteSpace=wrap;rounded=0;" parent="1" vertex="1">
          <mxGeometry x="110" y="532" width="110" height="30" as="geometry" />
        </mxCell>
        <mxCell id="KlFPBbW0waeeuD-TQm3k-2" value="&lt;span style=&quot;font-size: 18px;&quot;&gt;&lt;b&gt;Iteration 5&lt;/b&gt;&lt;/span&gt;" style="text;html=1;align=center;verticalAlign=middle;whiteSpace=wrap;rounded=0;" parent="1" vertex="1">
          <mxGeometry x="110" y="760" width="110" height="30" as="geometry" />
        </mxCell>
      </root>
    </mxGraphModel>
  </diagram>
</mxfile>
